<svg xmlns="http://www.w3.org/2000/svg" viewBox="0 0 706 706"><defs><style>.cls-1{fill:#fff;}.cls-2,.cls-5,.cls-6,.cls-7{fill:#c6b786;}.cls-3,.cls-4{fill:none;stroke:#c6b786;stroke-miterlimit:10;}.cls-3{stroke-width:3px;}.cls-5,.cls-7{font-size:130px;}.cls-5,.cls-6,.cls-7{font-family:Rufina-Stencil-Alt-01-Regular, Rufina Stencil Alt 01;}.cls-5{letter-spacing:-0.03em;}.cls-6{font-size:100px;}.cls-7{letter-spacing:-0.01em;}</style></defs><title>lotr_app_button</title><g id="Layer_2" data-name="Layer 2"><g id="LOTR_-_APP" data-name="LOTR - APP"><rect x="0.5" y="0.5" width="705" height="705" rx="84.06" ry="84.06"/><path class="cls-1" d="M621.44,1A83.65,83.65,0,0,1,705,84.56V621.44A83.65,83.65,0,0,1,621.44,705H84.56A83.65,83.65,0,0,1,1,621.44V84.56A83.65,83.65,0,0,1,84.56,1H621.44m0-1H84.56A84.56,84.56,0,0,0,0,84.56V621.44A84.56,84.56,0,0,0,84.56,706H621.44A84.56,84.56,0,0,0,706,621.44V84.56A84.56,84.56,0,0,0,621.44,0Z"/><g id="Compass_Rose" data-name="Compass Rose"><g id="big_point_N" data-name="big point N"><polygon class="cls-2" points="366.15 351.08 215.3 200.22 361.58 323.14 366.15 351.08"/><polygon class="cls-3" points="366.15 351.08 215.3 200.22 338.21 346.51 366.15 351.08"/></g><g id="big_point_S" data-name="big point S"><polygon class="cls-2" points="366.15 351.08 517 501.93 370.72 379.01 366.15 351.08"/><polygon class="cls-3" points="366.15 351.08 517 501.93 394.08 355.65 366.15 351.08"/></g><g id="big_point_W" data-name="big point W"><polygon class="cls-2" points="365.64 351.08 214.79 501.93 337.7 355.65 365.64 351.08"/><polygon class="cls-3" points="365.64 351.08 214.79 501.93 361.07 379.01 365.64 351.08"/></g><g id="big_point_E" data-name="big point E"><polygon class="cls-2" points="366 350.45 516.86 199.59 393.94 345.88 366 350.45"/><polygon class="cls-3" points="366 350.45 516.86 199.59 370.58 322.51 366 350.45"/></g><g id="little_point_NE" data-name="little point NE"><polygon class="cls-2" points="365.99 350.62 365.99 206.37 371 322 365.99 350.62"/><polygon class="cls-4" points="365.99 350.62 365.99 206 361.5 323.5 365.99 350.62"/></g><g id="little_point_SE" data-name="little point SE"><polygon class="cls-2" points="365.99 350.62 510.24 350.62 394 356 365.99 350.62"/><polygon class="cls-4" points="365.99 350.62 510.61 350.62 393.5 345.5 365.99 350.62"/></g><g id="little_point_SW" data-name="little point SW"><polygon class="cls-2" points="365.99 351.37 365.99 495.62 361 379 365.99 351.37"/><polygon class="cls-4" points="365.99 351.37 365.99 495.99 370.5 379.5 365.99 351.37"/></g><g id="little_point_NW" data-name="little point NW"><polygon class="cls-2" points="366.36 350.99 222.11 350.99 338 347 366.36 350.99"/><polygon class="cls-4" points="366.36 350.99 221.74 350.99 337.5 355.5 366.36 350.99"/></g></g><g id="letters"><text class="cls-5" transform="translate(113.26 191.95)">L</text><text class="cls-6" transform="translate(535.45 182.6)">o</text><text class="cls-6" transform="translate(143.45 599.33)">t</text><text class="cls-7" transform="translate(512.26 608.95)">R</text></g><g id="arc_detail" data-name="arc detail"><path id="arc" class="cls-4" d="M248.5,190.5c62-46,172-47,231,0"/><circle class="cls-2" cx="274.5" cy="206.5" r="2.5"/><circle class="cls-2" cx="330.5" cy="188.5" r="2.5"/><circle class="cls-2" cx="403.5" cy="188.5" r="2.5"/><circle class="cls-2" cx="459.5" cy="206.5" r="2.5"/><line class="cls-4" x1="366.5" y1="123.5" x2="366.5" y2="57.5"/></g><g id="arc_detail_copy" data-name="arc detail copy"><path id="arc-2" data-name="arc" class="cls-4" d="M202.5,462.5c-46-62-47-172,0-231"/><circle class="cls-2" cx="218.5" cy="436.5" r="2.5"/><circle class="cls-2" cx="200.5" cy="380.5" r="2.5"/><circle class="cls-2" cx="200.5" cy="307.5" r="2.5"/><circle class="cls-2" cx="218.5" cy="251.5" r="2.5"/><line class="cls-4" x1="138" y1="350.5" x2="72" y2="350.5"/></g><g id="arc_detail_copy_2" data-name="arc detail copy 2"><path id="arc-3" data-name="arc" class="cls-4" d="M478.5,515.5c-62,46-172,47-231,0"/><circle class="cls-2" cx="452.5" cy="499.5" r="2.5"/><circle class="cls-2" cx="396.5" cy="517.5" r="2.5"/><circle class="cls-2" cx="323.5" cy="517.5" r="2.5"/><circle class="cls-2" cx="267.5" cy="499.5" r="2.5"/><line class="cls-4" x1="366.5" y1="581" x2="366.5" y2="647"/></g><g id="arc_detail_copy_3" data-name="arc detail copy 3"><path id="arc-4" data-name="arc" class="cls-4" d="M518.5,234.5c46,62,47,172,0,231"/><circle class="cls-2" cx="502.5" cy="260.5" r="2.5"/><circle class="cls-2" cx="520.5" cy="316.5" r="2.5"/><circle class="cls-2" cx="520.5" cy="389.5" r="2.5"/><circle class="cls-2" cx="502.5" cy="445.5" r="2.5"/></g><line class="cls-4" x1="599" y1="350.5" x2="665" y2="350.5"/><line class="cls-4" x1="366.5" y1="123.5" x2="366.5" y2="57.5"/></g></g></svg>