<?xml version="1.0" encoding="utf-8"?>
<!-- Generator: Adobe Illustrator 21.1.0, SVG Export Plug-In . SVG Version: 6.00 Build 0)  -->
<svg version="1.1" id="Layer_1" xmlns="http://www.w3.org/2000/svg" xmlns:xlink="http://www.w3.org/1999/xlink" x="0px" y="0px"
	 viewBox="0 0 213.9 44.8" style="enable-background:new 0 0 213.9 44.8;" xml:space="preserve">
<style type="text/css">
	.st0{fill:#F9F9F9;}
	.st1{font-family:'LaoMN';}
	.st2{font-size:9px;}
	.st3{letter-spacing:2;}
</style>
<title>logo_parker_c</title>
<g id="Layer_2">
	<g id="Text">
		<path class="st0" d="M0,0.7h9c1.4,0,2.8,0.2,4.2,0.5c1.2,0.3,2.4,0.9,3.4,1.6c0.9,0.7,1.7,1.5,2.3,2.6c0.6,1.1,0.9,2.3,0.8,3.5
			c0.1,1.2-0.2,2.3-0.7,3.4c-0.5,0.9-1.3,1.8-2.1,2.4c-0.9,0.6-1.9,1.1-3,1.4c-1.1,0.3-2.3,0.5-3.4,0.5c-0.5,0-1,0-1.6,0
			s-1.1,0-1.6-0.1l-1.4-0.1c-0.3,0-0.7-0.1-1-0.2v25.2H0V0.7z M4.8,14.4c0.5,0.2,1.1,0.3,1.7,0.4C7.2,15,7.8,15,8.4,15
			c0.9,0,1.9-0.1,2.7-0.5c0.7-0.3,1.4-0.7,1.9-1.3c0.5-0.5,0.9-1.2,1.1-1.9c0.3-0.7,0.4-1.5,0.4-2.3c0-0.9-0.2-1.8-0.5-2.6
			c-0.3-0.8-0.8-1.4-1.4-2c-0.6-0.6-1.3-1-2-1.3C10,2.9,9.1,2.8,8.3,2.8H4.8V14.4z"/>
		<path class="st0" d="M44.7,0l13.5,29.2h-4.9l-4.4-9.5H36.7l-4.5,9.5h-2.4L43.5,0H44.7z M37.5,17.8H48L42.8,6.5L37.5,17.8z"/>
		<path class="st0" d="M73.2,0.7h9.9c1.5,0,3,0.2,4.5,0.6c1.2,0.3,2.3,0.8,3.2,1.5c0.8,0.6,1.5,1.4,2,2.4c0.4,0.9,0.7,2,0.7,3
			c0,0.9-0.2,1.7-0.5,2.5c-0.3,0.8-0.8,1.5-1.4,2.1c-0.7,0.6-1.4,1.2-2.2,1.6c-0.9,0.5-1.9,0.8-2.8,1.1l10.4,13.9h-5.6l-9.9-13.4H78
			v13.4h-4.8L73.2,0.7z M78,14.4h2.8c1,0,2-0.1,3-0.4c0.9-0.3,1.7-0.7,2.4-1.2c1.4-1.1,2.2-2.7,2.1-4.4c0-0.8-0.1-1.6-0.4-2.3
			c-0.3-0.7-0.7-1.3-1.2-1.8c-0.6-0.5-1.2-0.9-1.9-1.2c-0.8-0.3-1.6-0.4-2.4-0.4H78V14.4z"/>
		<path class="st0" d="M111.8,0.7h4.8v12.7l15-12.6h3.1l-14.3,12l18.1,16.5h-6.1l-15.9-14.5v14.5h-4.8L111.8,0.7z"/>
		<path class="st0" d="M173.5,0.7v1.8h-15v10.2h10.1v1.9h-10.1v12.8h15.1v1.9h-19.9V0.7H173.5z"/>
		<path class="st0" d="M190.3,0.7h9.9c1.5,0,3,0.2,4.5,0.6c1.2,0.3,2.3,0.8,3.2,1.5c0.8,0.6,1.5,1.4,1.9,2.4c0.4,0.9,0.7,2,0.7,3
			c0,0.9-0.2,1.7-0.5,2.5c-0.3,0.8-0.8,1.5-1.4,2.1c-0.7,0.6-1.4,1.2-2.2,1.6c-0.9,0.5-1.9,0.8-2.9,1.1l10.4,13.9h-5.6l-9.9-13.4
			h-3.4v25.4h-4.8L190.3,0.7z M195.1,14.4h2.8c1,0,2-0.1,3-0.4c0.9-0.3,1.7-0.7,2.4-1.2c1.4-1.1,2.2-2.7,2.1-4.4
			c0-0.8-0.1-1.6-0.4-2.3c-0.3-0.7-0.7-1.3-1.2-1.8c-0.6-0.5-1.2-0.9-1.9-1.2c-0.8-0.3-1.6-0.4-2.4-0.4h-4.2L195.1,14.4z"/>
		<text transform="matrix(1 0 0 1 71.94 41.25)" class="st0 st1 st2 st3">CLOTHING</text>
	</g>
</g>
</svg>
