<svg xmlns="http://www.w3.org/2000/svg" viewBox="0 0 213.91 44.79"><defs><style>.cls-1,.cls-2{fill:#f9f9f9;}.cls-2{isolation:isolate;font-size:9px;font-family:LaoMN, Lao MN;letter-spacing:0.27em;}.cls-3{letter-spacing:0.24em;}</style></defs><title>logo_parker-white</title><g id="Layer_2" data-name="Layer 2"><g id="Layer_1-2" data-name="Layer 1"><g id="Layer_2-2" data-name="Layer 2"><g id="Text"><path class="cls-1" d="M0,.66H9a15.62,15.62,0,0,1,4.19.54,10.56,10.56,0,0,1,3.4,1.59,7.79,7.79,0,0,1,2.29,2.56,7,7,0,0,1,.84,3.47A6.84,6.84,0,0,1,19,12.21a7.37,7.37,0,0,1-2.13,2.4,9.28,9.28,0,0,1-3,1.42,13,13,0,0,1-3.43.46H8.88a11,11,0,0,1-1.58-.11l-1.4-.15a8.36,8.36,0,0,1-1-.18V41.22H0ZM4.8,14.4q.8.23,1.73.43a8.8,8.8,0,0,0,1.9.21,7.32,7.32,0,0,0,2.72-.46,5.32,5.32,0,0,0,1.93-1.27,5.22,5.22,0,0,0,1.15-1.89,6.89,6.89,0,0,0,.38-2.31,6.6,6.6,0,0,0-.5-2.61,5.93,5.93,0,0,0-1.36-2,6.08,6.08,0,0,0-2-1.27,6.89,6.89,0,0,0-2.5-.45H4.8Z"/><path class="cls-1" d="M44.69,0,58.14,29.22H53.26L48.9,19.69H36.65l-4.51,9.54h-2.4L43.5,0Zm-7.2,17.84H48L42.83,6.54Z"/><path class="cls-1" d="M73.22.66H83.1a16.54,16.54,0,0,1,4.52.55,9.54,9.54,0,0,1,3.23,1.55,6.54,6.54,0,0,1,2,2.36,6.79,6.79,0,0,1,.66,3,6.21,6.21,0,0,1-.5,2.49,6.83,6.83,0,0,1-1.43,2.09,9.08,9.08,0,0,1-2.21,1.62,11.87,11.87,0,0,1-2.85,1.06l10.4,13.86H91.31L81.38,15.79H78V29.22H73.2ZM78,14.36h2.77a9.87,9.87,0,0,0,3-.43,7.41,7.41,0,0,0,2.37-1.22,5.48,5.48,0,0,0,2.13-4.44,6,6,0,0,0-.45-2.35,5.45,5.45,0,0,0-1.25-1.85,5.69,5.69,0,0,0-1.91-1.2,6.62,6.62,0,0,0-2.42-.43H78Z"/><path class="cls-1" d="M111.83.66h4.8V13.31l15-12.65h3.14l-14.27,12,18.11,16.55H132.5l-15.87-14.5v14.5h-4.8Z"/><path class="cls-1" d="M173.54.66V2.5h-15V12.71h10.07v1.85H158.49V27.38h15.05v1.85H153.69V.66Z"/><path class="cls-1" d="M190.26.66h9.88a16.54,16.54,0,0,1,4.52.55,9.54,9.54,0,0,1,3.23,1.55,6.54,6.54,0,0,1,1.95,2.36,6.79,6.79,0,0,1,.66,3,6.21,6.21,0,0,1-.5,2.49,6.83,6.83,0,0,1-1.43,2.09,9.08,9.08,0,0,1-2.21,1.62,11.87,11.87,0,0,1-2.85,1.06l10.4,13.86h-5.56l-9.93-13.43h-3.36V41.22h-4.8Zm4.8,13.7h2.77a9.87,9.87,0,0,0,3-.43,7.41,7.41,0,0,0,2.37-1.22,5.48,5.48,0,0,0,2.13-4.44,6,6,0,0,0-.45-2.35,5.45,5.45,0,0,0-1.25-1.85,5.69,5.69,0,0,0-1.91-1.2,6.62,6.62,0,0,0-2.42-.43h-4.22Z"/><text class="cls-2" transform="translate(71.94 41.25)">CL<tspan class="cls-3" x="16.97" y="0">O</tspan><tspan x="26.88" y="0">THING</tspan></text></g></g></g></g></svg>