<svg xmlns="http://www.w3.org/2000/svg" viewBox="0 0 341.17 163.25"><defs><style>.cls-1{fill:#fff;}</style></defs><title>nLogo-white</title><g id="Layer_2" data-name="Layer 2"><g id="Layer_31" data-name="Layer 31"><g id="Layer_2-2" data-name="Layer 2"><g id="Layer_3" data-name="Layer 3"><path class="cls-1" d="M338.61,0a10.58,10.58,0,0,1,2.48,5.64,14.41,14.41,0,0,1,0,3.08,24.54,24.54,0,0,1-.52,2.82,27.9,27.9,0,0,1-5.47,10.17A90.59,90.59,0,0,1,319,36.58a249.67,249.67,0,0,1-36.93,22.14,482.49,482.49,0,0,1-79.06,32.14c-27.61,7.52-54.88,13.85-82.91,19.23a308.43,308.43,0,0,1-42.74,5,411.74,411.74,0,0,1-42.74.6,18.37,18.37,0,0,1-5.64-.6l-5.21-.77a89.6,89.6,0,0,1-11-2,23.31,23.31,0,0,1-6.15-2.65,13.5,13.5,0,0,1-5.3-6.24,19.17,19.17,0,0,1,0-14A40.48,40.48,0,0,1,17.14,71.54,106.22,106.22,0,0,1,37.31,61.8,281.13,281.13,0,0,1,78.6,49.57,188.9,188.9,0,0,1,121.33,45,177,177,0,0,1,143,46.41a80.33,80.33,0,0,1,21.8,5.39,70.31,70.31,0,0,1,18.89,12.39A50.5,50.5,0,0,1,197.32,83a56.79,56.79,0,0,1,2.74,22.82,52.54,52.54,0,0,1-6.16,22.39,322.31,322.31,0,0,1-25,35l-7.35-5.47c6.24-8.54,12.48-17.09,19.14-25.64a119.87,119.87,0,0,1,11-12.48L193.9,118l1.54-1,3.25-2.14,6.58-4.44A235.82,235.82,0,0,1,233,93.25,96.67,96.67,0,0,1,249,88h2.48a8,8,0,0,1,4.18.6,5.2,5.2,0,0,1,3.08,4.7,6.3,6.3,0,0,1-.77,2.82,20.45,20.45,0,0,1-1.11,2.05c-1.28,2.23-2.48,4.36-3.59,6.67a133.28,133.28,0,0,0-5.3,13.76c-2,5.22-2.73,9-1.11,11.71a13.24,13.24,0,0,0,10.6,4.36A51.22,51.22,0,0,0,271.94,133a112.88,112.88,0,0,0,28-12.14c4.62-2.56,9.06-5.21,13.51-7.86a66.85,66.85,0,0,0,12-8.55l3.5,2.22a63.69,63.69,0,0,1-12.65,10.86A122.35,122.35,0,0,1,303,126.59a100.31,100.31,0,0,1-29.41,13.93,58.72,58.72,0,0,1-17.09,2.14,20.88,20.88,0,0,1-17.1-8,21.33,21.33,0,0,1,0-18.89,142.88,142.88,0,0,1,6-15.21c1.19-2.48,2.48-5,3.84-7.35l.86-1.46v.94a3.43,3.43,0,0,0,1.88,3.17h-1.45a89.83,89.83,0,0,0-14.11,4.7A230.39,230.39,0,0,0,210,116.84l-12.65,8.55a115.79,115.79,0,0,0-9.23,12q-9.61,12.83-18.72,25.64L162,157.61a316.21,316.21,0,0,0,24-34.19,47.74,47.74,0,0,0,2.9-37.09,53.71,53.71,0,0,0-27.43-25.64,112,112,0,0,0-39.66-5.82A229.6,229.6,0,0,0,41.16,71.11a98,98,0,0,0-18,8.55,31.07,31.07,0,0,0-12,13.16,9.78,9.78,0,0,0-.51,6.59c0,1.19,2,2.3,5,3.16a82.74,82.74,0,0,0,9.75,1.79l5.21.77,4.87.52A408.19,408.19,0,0,0,77,105.39a297.67,297.67,0,0,0,41.37-4.7c27.44-5.13,55.13-11.46,82-18.72a474.74,474.74,0,0,0,77.53-31.2,328.52,328.52,0,0,0,36-20.85A124,124,0,0,0,330,17.09a28.59,28.59,0,0,0,5.81-7.52,19.25,19.25,0,0,0,.85-2.3,12.46,12.46,0,0,0,.69-2.06,8.64,8.64,0,0,0-.77-4.36Z"/></g></g></g></g></svg>