<svg xmlns="http://www.w3.org/2000/svg" viewBox="0 0 341.17 163.25"><title>nLogo</title><g id="Layer_2" data-name="Layer 2"><g id="Layer_31" data-name="Layer 31"><g id="Layer_2-2" data-name="Layer 2"><g id="Layer_3" data-name="Layer 3"><path d="M338.61,0a10.51,10.51,0,0,1,2.48,5.64,13.59,13.59,0,0,1,0,3.08,23.59,23.59,0,0,1-.51,2.82,28,28,0,0,1-5.47,10.17A90.69,90.69,0,0,1,319,36.58a250.35,250.35,0,0,1-36.92,22.14A482.84,482.84,0,0,1,203,90.86c-27.61,7.52-54.87,13.85-82.91,19.23a307.71,307.71,0,0,1-42.74,5,412.58,412.58,0,0,1-42.74.6A18.41,18.41,0,0,1,29,115l-5.21-.77a89.15,89.15,0,0,1-11-2.05,23.25,23.25,0,0,1-6.15-2.65,13.5,13.5,0,0,1-5.3-6.24,19.15,19.15,0,0,1,0-14A40.43,40.43,0,0,1,17.14,71.54,106.24,106.24,0,0,1,37.31,61.8,280.69,280.69,0,0,1,78.6,49.57,188.73,188.73,0,0,1,121.33,45,176.59,176.59,0,0,1,143,46.41a80.26,80.26,0,0,1,21.8,5.38,70.26,70.26,0,0,1,18.89,12.39A50.51,50.51,0,0,1,197.32,83a56.84,56.84,0,0,1,2.74,22.82,52.48,52.48,0,0,1-6.15,22.39,322.41,322.41,0,0,1-25,35l-7.35-5.47c6.24-8.55,12.48-17.09,19.15-25.64a119.66,119.66,0,0,1,11-12.48L193.9,118l1.54-1,3.25-2.14,6.58-4.44A235.57,235.57,0,0,1,233,93.25a96.33,96.33,0,0,1,16-5.3h2.48a8,8,0,0,1,4.19.6,5.21,5.21,0,0,1,3.08,4.7,6.32,6.32,0,0,1-.77,2.82,20.46,20.46,0,0,1-1.11,2.05c-1.28,2.22-2.48,4.36-3.59,6.67a134.19,134.19,0,0,0-5.3,13.76c-2,5.21-2.74,9-1.11,11.71a13.25,13.25,0,0,0,10.6,4.36A51.28,51.28,0,0,0,271.94,133a113.08,113.08,0,0,0,28-12.14c4.62-2.56,9.06-5.21,13.5-7.86a66.41,66.41,0,0,0,12-8.55l3.5,2.22a63.76,63.76,0,0,1-12.65,10.86A121.72,121.72,0,0,1,303,126.59a100.18,100.18,0,0,1-29.4,13.93,58.89,58.89,0,0,1-17.09,2.14,20.86,20.86,0,0,1-17.09-8,21.28,21.28,0,0,1,0-18.89,142.57,142.57,0,0,1,6-15.21c1.2-2.48,2.48-5,3.85-7.35l.85-1.45v.94a3.42,3.42,0,0,0,1.88,3.16h-1.45a90.6,90.6,0,0,0-14.1,4.7A230.78,230.78,0,0,0,210,116.84l-12.65,8.55a115.82,115.82,0,0,0-9.23,12.05q-9.62,12.82-18.72,25.64L162,157.61a316.25,316.25,0,0,0,24-34.19,47.78,47.78,0,0,0,2.91-37.1,53.76,53.76,0,0,0-27.44-25.64,112.14,112.14,0,0,0-39.66-5.81A229.33,229.33,0,0,0,41.16,71.11a97,97,0,0,0-18,8.55A31,31,0,0,0,11.07,92.82a9.74,9.74,0,0,0-.51,6.58c0,1.2,2.05,2.31,5,3.16a81.71,81.71,0,0,0,9.74,1.79l5.21.77,4.87.51A405.15,405.15,0,0,0,77,105.39a297.28,297.28,0,0,0,41.37-4.7c27.44-5.13,55.13-11.45,82-18.72a474.12,474.12,0,0,0,77.52-31.2,327.88,327.88,0,0,0,36-20.86A123.34,123.34,0,0,0,330,17.09a28.55,28.55,0,0,0,5.81-7.52,19.06,19.06,0,0,0,.85-2.31,12.65,12.65,0,0,0,.68-2.05,8.55,8.55,0,0,0-.77-4.36Z"/></g></g></g></g></svg>