<svg xmlns="http://www.w3.org/2000/svg" viewBox="0 0 720.04 1438.82"><defs><style>.cls-1{fill:#fff;}</style></defs><title>square-design</title><g id="Layer_2" data-name="Layer 2"><g id="Layer_3" data-name="Layer 3"><rect x="52.27" y="1041.8" width="29" height="29" transform="translate(-725.89 354.94) rotate(-44.88)"/><path class="cls-1" d="M66.81,1036.51l19.76,19.84L66.73,1076.1,47,1056.26l19.84-19.76m0-1.41-21.26,21.17,21.17,21.26L88,1056.35l-21.17-21.26Z"/><rect x="52.46" y="951.8" width="29" height="29" transform="translate(-662.35 328.86) rotate(-44.88)"/><path class="cls-1" d="M67,946.51l19.76,19.84L66.92,986.1,47.16,966.26,67,946.51m0-1.41L45.75,966.26l21.17,21.26,21.26-21.17L67,945.09Z"/><rect x="52.65" y="861.8" width="29" height="29" transform="translate(-598.79 302.77) rotate(-44.88)"/><path class="cls-1" d="M67.19,856.51l19.76,19.84L67.11,896.1,47.35,876.26l19.84-19.76m0-1.41L45.93,876.26,67.1,897.52l21.26-21.17L67.19,855.09Z"/><rect x="52.83" y="771.8" width="29" height="29" transform="translate(-535.23 276.67) rotate(-44.88)"/><path class="cls-1" d="M67.37,766.51l19.76,19.84L67.29,806.1,47.53,786.26l19.84-19.76m0-1.41L46.12,786.26l21.17,21.26,21.26-21.17L67.38,765.09Z"/><rect x="6.71" y="1311.71" width="29" height="29" transform="translate(-929.65 401.47) rotate(-44.88)"/><path class="cls-1" d="M21.25,1306.41,41,1326.25,21.17,1346,1.41,1326.17l19.84-19.76m0-1.41L0,1326.17l21.17,21.26,21.26-21.17L21.26,1305Z"/><rect x="6.99" y="1176.71" width="29" height="29" transform="translate(-834.29 362.31) rotate(-44.88)"/><path class="cls-1" d="M21.53,1171.41l19.76,19.84L21.45,1211,1.69,1191.17l19.84-19.76m0-1.41L.28,1191.17l21.17,21.26,21.26-21.17L21.54,1170Z"/><rect x="7.18" y="1086.71" width="29" height="29" transform="translate(-770.74 336.22) rotate(-44.88)"/><path class="cls-1" d="M21.72,1081.41l19.76,19.84L21.64,1121,1.88,1101.17l19.84-19.76m0-1.41L.47,1101.17l21.17,21.26,21.26-21.17L21.72,1080Z"/><rect x="7.46" y="951.71" width="29" height="29" transform="translate(-675.41 297.09) rotate(-44.88)"/><path class="cls-1" d="M22,946.41l19.76,19.84L21.92,986,2.16,966.17,22,946.41M22,945,.75,966.17l21.17,21.26,21.26-21.17L22,945Z"/><rect x="7.55" y="906.71" width="29" height="29" transform="translate(-643.62 284.04) rotate(-44.88)"/><path class="cls-1" d="M22.09,901.41l19.76,19.84L22,941,2.25,921.17l19.84-19.76m0-1.41L.84,921.17,22,942.42l21.26-21.17L22.1,900Z"/><rect x="7.83" y="771.71" width="29" height="29" transform="translate(-548.27 244.88) rotate(-44.88)"/><path class="cls-1" d="M22.37,766.41l19.76,19.84L22.29,806,2.53,786.17l19.84-19.76m0-1.41L1.12,786.17l21.17,21.26,21.26-21.17L22.38,765Z"/><rect x="7.93" y="726.71" width="29" height="29" transform="translate(-516.49 231.83) rotate(-44.88)"/><path class="cls-1" d="M22.47,721.41l19.76,19.84L22.39,761,2.63,741.17l19.84-19.76m0-1.41L1.21,741.17l21.17,21.26,21.26-21.17L22.47,720Z"/><rect x="142.83" y="771.99" width="29" height="29" transform="translate(-509.13 340.24) rotate(-44.88)"/><path class="cls-1" d="M157.37,766.69l19.76,19.84-19.84,19.76-19.76-19.84,19.84-19.76m0-1.41-21.26,21.17,21.17,21.26,21.26-21.17-21.17-21.26Z"/><rect x="96.53" y="1401.9" width="29" height="29" transform="translate(-967.11 491.12) rotate(-44.88)"/><path class="cls-1" d="M111.07,1396.6l19.76,19.84L111,1436.2l-19.76-19.84,19.84-19.76m0-1.41-21.26,21.17L111,1437.61l21.26-21.17-21.17-21.26Z"/><rect x="96.81" y="1266.9" width="29" height="29" transform="translate(-871.75 451.96) rotate(-44.88)"/><path class="cls-1" d="M111.35,1261.6l19.76,19.84-19.84,19.76-19.76-19.84,19.84-19.76m0-1.41-21.26,21.17,21.17,21.26,21.26-21.17-21.17-21.26Z"/><rect x="96.99" y="1176.9" width="29" height="29" transform="translate(-808.21 425.88) rotate(-44.88)"/><path class="cls-1" d="M111.53,1171.6l19.76,19.84-19.84,19.76-19.76-19.84,19.84-19.76m0-1.41-21.26,21.17,21.17,21.26,21.26-21.17-21.17-21.26Z"/><rect x="97.27" y="1041.9" width="29" height="29" transform="translate(-712.86 386.74) rotate(-44.88)"/><path class="cls-1" d="M111.81,1036.6l19.76,19.84-19.84,19.76L92,1056.36l19.84-19.76m0-1.41-21.26,21.17,21.17,21.26L133,1056.44l-21.17-21.26Z"/><rect x="97.37" y="996.9" width="29" height="29" transform="translate(-681.08 373.69) rotate(-44.88)"/><path class="cls-1" d="M111.91,991.6l19.76,19.84-19.84,19.76-19.76-19.84,19.84-19.76m0-1.41-21.26,21.17,21.17,21.26,21.26-21.17-21.17-21.26Z"/><rect x="97.55" y="906.9" width="29" height="29" transform="translate(-617.52 347.59) rotate(-44.88)"/><path class="cls-1" d="M112.09,901.6l19.76,19.84L112,941.2,92.25,921.36l19.84-19.76m0-1.41L90.84,921.35,112,942.61l21.26-21.17L112.1,900.18Z"/><rect x="97.65" y="861.9" width="29" height="29" transform="translate(-585.73 334.54) rotate(-44.88)"/><path class="cls-1" d="M112.19,856.6l19.76,19.84L112.11,896.2,92.35,876.36l19.84-19.76m0-1.41L90.93,876.35l21.17,21.26,21.26-21.17-21.17-21.26Z"/><rect x="97.74" y="816.9" width="29" height="29" transform="translate(-553.95 321.49) rotate(-44.88)"/><path class="cls-1" d="M112.28,811.6,132,831.44,112.2,851.2,92.44,831.36l19.84-19.76m0-1.41L91,831.35l21.17,21.26,21.26-21.17-21.17-21.26Z"/><rect x="97.93" y="726.9" width="29" height="29" transform="translate(-490.4 295.4) rotate(-44.88)"/><path class="cls-1" d="M112.47,721.6l19.76,19.84L112.39,761.2,92.63,741.36l19.84-19.76m0-1.41L91.21,741.35l21.17,21.26,21.26-21.17-21.17-21.26Z"/><rect x="232.09" y="1132.18" width="29" height="29" transform="translate(-737.26 508.15) rotate(-44.88)"/><path class="cls-1" d="M246.63,1126.88l19.76,19.84-19.84,19.76-19.76-19.84,19.84-19.76m0-1.41-21.26,21.17,21.17,21.26,21.26-21.17-21.17-21.26Z"/><rect x="232.27" y="1042.18" width="29" height="29" transform="translate(-673.72 482.08) rotate(-44.88)"/><path class="cls-1" d="M246.81,1036.88l19.76,19.84-19.84,19.76L227,1056.64l19.84-19.76m0-1.41-21.26,21.17,21.17,21.26L268,1056.72l-21.17-21.26Z"/><rect x="232.46" y="952.18" width="29" height="29" transform="translate(-610.16 455.99) rotate(-44.88)"/><path class="cls-1" d="M247,946.88l19.76,19.84-19.84,19.76-19.76-19.84L247,946.88m0-1.41-21.26,21.17,21.17,21.26,21.26-21.17L247,945.46Z"/><rect x="232.83" y="772.18" width="29" height="29" transform="translate(-483.03 403.79) rotate(-44.88)"/><path class="cls-1" d="M247.37,766.88l19.76,19.84-19.84,19.76-19.76-19.84,19.84-19.76m0-1.41-21.26,21.17,21.17,21.26,21.26-21.17-21.17-21.26Z"/><rect x="186.81" y="1267.08" width="29" height="29" transform="translate(-845.67 515.54) rotate(-44.88)"/><path class="cls-1" d="M201.35,1261.78l19.76,19.84-19.84,19.76-19.76-19.84,19.84-19.76m0-1.41-21.26,21.17,21.17,21.26,21.26-21.17-21.17-21.26Z"/><rect x="186.99" y="1177.08" width="29" height="29" transform="translate(-782.11 489.44) rotate(-44.88)"/><path class="cls-1" d="M201.53,1171.79l19.76,19.84-19.84,19.76-19.76-19.84,19.84-19.76m0-1.41-21.26,21.17,21.17,21.26,21.26-21.17-21.17-21.26Z"/><rect x="187.09" y="1132.08" width="29" height="29" transform="translate(-750.33 476.4) rotate(-44.88)"/><path class="cls-1" d="M201.63,1126.79l19.76,19.84-19.84,19.76-19.76-19.84,19.84-19.76m0-1.41-21.26,21.17,21.17,21.26,21.26-21.17-21.17-21.26Z"/><rect x="187.18" y="1087.08" width="29" height="29" transform="translate(-718.55 463.35) rotate(-44.88)"/><path class="cls-1" d="M201.72,1081.79l19.76,19.84-19.84,19.76-19.76-19.84,19.84-19.76m0-1.41-21.26,21.17,21.17,21.26,21.26-21.17-21.17-21.26Z"/><rect x="187.37" y="997.08" width="29" height="29" transform="translate(-654.98 437.24) rotate(-44.88)"/><path class="cls-1" d="M201.91,991.79l19.76,19.84-19.84,19.76-19.76-19.84,19.84-19.76m0-1.41-21.26,21.17,21.17,21.26,21.26-21.17-21.17-21.26Z"/><rect x="187.46" y="952.08" width="29" height="29" transform="translate(-623.19 424.18) rotate(-44.88)"/><path class="cls-1" d="M202,946.79l19.76,19.84-19.84,19.76-19.76-19.84L202,946.79m0-1.41-21.26,21.17,21.17,21.26,21.26-21.17L202,945.37Z"/><rect x="187.55" y="907.08" width="29" height="29" transform="translate(-591.41 411.14) rotate(-44.88)"/><path class="cls-1" d="M202.09,901.79l19.76,19.84L202,941.38l-19.76-19.84,19.84-19.76m0-1.41-21.26,21.17L202,942.8l21.26-21.17L202.1,900.37Z"/><rect x="187.74" y="817.08" width="29" height="29" transform="translate(-527.86 385.06) rotate(-44.88)"/><path class="cls-1" d="M202.28,811.79,222,831.63,202.2,851.38l-19.76-19.84,19.84-19.76m0-1.41L181,831.54,202.2,852.8l21.26-21.17-21.17-21.26Z"/><rect x="187.83" y="772.08" width="29" height="29" transform="translate(-496.09 372.02) rotate(-44.88)"/><path class="cls-1" d="M202.37,766.79l19.76,19.84-19.84,19.76-19.76-19.84,19.84-19.76m0-1.41-21.26,21.17,21.17,21.26,21.26-21.17-21.17-21.26Z"/><rect x="187.93" y="727.08" width="29" height="29" transform="translate(-464.3 358.97) rotate(-44.88)"/><path class="cls-1" d="M202.47,721.79l19.76,19.84-19.84,19.76-19.76-19.84,19.84-19.76m0-1.41-21.26,21.17,21.17,21.26,21.26-21.17-21.17-21.26Z"/><rect x="321.9" y="1222.36" width="29" height="29" transform="translate(-774.73 597.81) rotate(-44.88)"/><path class="cls-1" d="M336.44,1217.07l19.76,19.84-19.84,19.76-19.76-19.84,19.84-19.76m0-1.41-21.26,21.17,21.17,21.26,21.26-21.17-21.17-21.26Z"/><rect x="322.09" y="1132.36" width="29" height="29" transform="translate(-711.18 571.74) rotate(-44.88)"/><path class="cls-1" d="M336.63,1127.07l19.76,19.84-19.84,19.76-19.76-19.84,19.84-19.76m0-1.41-21.26,21.17,21.17,21.26,21.26-21.17-21.17-21.26Z"/><rect x="322.27" y="1042.36" width="29" height="29" transform="translate(-647.62 545.64) rotate(-44.88)"/><path class="cls-1" d="M336.81,1037.07l19.76,19.84-19.84,19.76L317,1056.82l19.84-19.76m0-1.41-21.26,21.17,21.17,21.26L358,1056.91l-21.17-21.26Z"/><rect x="322.46" y="952.36" width="29" height="29" transform="translate(-584.06 519.55) rotate(-44.88)"/><path class="cls-1" d="M337,947.07l19.76,19.84-19.84,19.76-19.76-19.84L337,947.07m0-1.41-21.26,21.17,21.17,21.26,21.26-21.17L337,945.65Z"/><rect x="322.83" y="772.37" width="29" height="29" transform="translate(-456.93 467.33) rotate(-44.88)"/><path class="cls-1" d="M337.37,767.07l19.76,19.84-19.84,19.76-19.76-19.84,19.84-19.76m0-1.41-21.26,21.17,21.17,21.26,21.26-21.17-21.17-21.26Z"/><rect x="276.53" y="1402.27" width="29" height="29" transform="translate(-914.92 618.25) rotate(-44.88)"/><path class="cls-1" d="M291.07,1397l19.76,19.84L291,1436.57l-19.76-19.84L291.07,1397m0-1.41-21.26,21.17L291,1438l21.26-21.17-21.17-21.26Z"/><rect x="276.9" y="1222.27" width="29" height="29" transform="translate(-787.79 566.06) rotate(-44.88)"/><path class="cls-1" d="M291.44,1217l19.76,19.84-19.84,19.76-19.76-19.84L291.44,1217m0-1.41-21.26,21.17L291.36,1258l21.26-21.17-21.17-21.26Z"/><rect x="276.99" y="1177.27" width="29" height="29" transform="translate(-756.01 553.01) rotate(-44.88)"/><path class="cls-1" d="M291.53,1172l19.76,19.84-19.84,19.76-19.76-19.84L291.53,1172m0-1.41-21.26,21.17L291.45,1213l21.26-21.17-21.17-21.26Z"/><rect x="277.18" y="1087.27" width="29" height="29" transform="translate(-692.44 526.89) rotate(-44.88)"/><path class="cls-1" d="M291.72,1082l19.76,19.84-19.84,19.76-19.76-19.84L291.72,1082m0-1.41-21.26,21.17L291.64,1123l21.26-21.17-21.17-21.26Z"/><rect x="277.37" y="997.27" width="29" height="29" transform="translate(-628.89 500.81) rotate(-44.88)"/><path class="cls-1" d="M291.91,992l19.76,19.84-19.84,19.76-19.76-19.84L291.91,992m0-1.41-21.26,21.17L291.82,1033l21.26-21.17-21.17-21.26Z"/><rect x="277.55" y="907.27" width="29" height="29" transform="translate(-565.33 474.73) rotate(-44.88)"/><path class="cls-1" d="M292.09,902l19.76,19.84L292,941.57l-19.76-19.84L292.09,902m0-1.41-21.26,21.17L292,943l21.26-21.17L292.1,900.56Z"/><rect x="277.65" y="862.27" width="29" height="29" transform="translate(-533.55 461.67) rotate(-44.88)"/><path class="cls-1" d="M292.19,857l19.76,19.84-19.84,19.76-19.76-19.84L292.19,857m0-1.41-21.26,21.17L292.1,898l21.26-21.17-21.17-21.26Z"/><rect x="277.74" y="817.27" width="29" height="29" transform="translate(-501.76 448.62) rotate(-44.88)"/><path class="cls-1" d="M292.28,812,312,831.81,292.2,851.57l-19.76-19.84L292.28,812m0-1.41L271,831.73,292.2,853l21.26-21.17-21.17-21.26Z"/><rect x="277.93" y="727.27" width="29" height="29" transform="translate(-438.2 422.52) rotate(-44.88)"/><path class="cls-1" d="M292.47,722l19.76,19.84-19.84,19.76-19.76-19.84L292.47,722m0-1.41-21.26,21.17L292.38,763l21.26-21.17-21.17-21.26Z"/><rect x="412.09" y="1132.55" width="29" height="29" transform="translate(-685.09 635.3) rotate(-44.88)"/><path class="cls-1" d="M426.63,1127.25l19.76,19.84-19.84,19.76L406.79,1147l19.84-19.76m0-1.41L405.37,1147l21.17,21.26,21.26-21.17-21.17-21.26Z"/><rect x="412.65" y="862.55" width="29" height="29" transform="translate(-494.39 556.99) rotate(-44.88)"/><path class="cls-1" d="M427.19,857.25l19.76,19.84L427.1,896.85,407.35,877l19.84-19.76m0-1.41L405.93,877l21.17,21.26,21.26-21.17-21.17-21.26Z"/><rect x="412.83" y="772.55" width="29" height="29" transform="translate(-430.84 530.91) rotate(-44.88)"/><path class="cls-1" d="M427.37,767.25l19.76,19.84-19.84,19.76L407.53,787l19.84-19.76m0-1.41L406.12,787l21.17,21.26,21.26-21.17-21.17-21.26Z"/><rect x="366.71" y="1312.46" width="29" height="29" transform="translate(-825.26 655.71) rotate(-44.88)"/><path class="cls-1" d="M381.25,1307.16,401,1327l-19.84,19.76-19.76-19.84,19.84-19.76m0-1.41L360,1326.91l21.17,21.26L402.43,1327l-21.17-21.26Z"/><rect x="366.81" y="1267.46" width="29" height="29" transform="translate(-793.48 642.67) rotate(-44.88)"/><path class="cls-1" d="M381.35,1262.16,401.1,1282l-19.84,19.76-19.76-19.84,19.84-19.76m0-1.41-21.26,21.17,21.17,21.26L402.52,1282l-21.17-21.26Z"/><rect x="367.09" y="1132.46" width="29" height="29" transform="translate(-698.12 603.49) rotate(-44.88)"/><path class="cls-1" d="M381.63,1127.16,401.38,1147l-19.84,19.76-19.76-19.84,19.84-19.76m0-1.41-21.26,21.17,21.17,21.26L402.8,1147l-21.17-21.26Z"/><rect x="367.18" y="1087.46" width="29" height="29" transform="translate(-666.34 590.45) rotate(-44.88)"/><path class="cls-1" d="M381.72,1082.16,401.48,1102l-19.84,19.76-19.76-19.84,19.84-19.76m0-1.41-21.26,21.17,21.17,21.26L402.89,1102l-21.17-21.26Z"/><rect x="367.37" y="997.46" width="29" height="29" transform="translate(-602.78 564.35) rotate(-44.88)"/><path class="cls-1" d="M381.91,992.16,401.66,1012l-19.84,19.76-19.76-19.84,19.84-19.76m0-1.41-21.26,21.17,21.17,21.26L403.08,1012l-21.17-21.26Z"/><rect x="367.46" y="952.46" width="29" height="29" transform="translate(-571.01 551.33) rotate(-44.88)"/><path class="cls-1" d="M382,947.16,401.76,967l-19.84,19.76-19.76-19.84L382,947.16m0-1.41-21.26,21.17,21.17,21.26L403.17,967,382,945.74Z"/><rect x="367.55" y="907.46" width="29" height="29" transform="translate(-539.23 538.28) rotate(-44.88)"/><path class="cls-1" d="M382.09,902.16,401.85,922,382,941.76l-19.76-19.84,19.84-19.76m0-1.41-21.26,21.17L382,943.17,403.27,922,382.1,900.74Z"/><rect x="367.74" y="817.46" width="29" height="29" transform="translate(-475.67 512.18) rotate(-44.88)"/><path class="cls-1" d="M382.28,812.16,402,832,382.2,851.76l-19.76-19.84,19.84-19.76m0-1.41L361,831.91l21.17,21.26L403.45,832l-21.17-21.26Z"/><rect x="367.83" y="772.46" width="29" height="29" transform="translate(-443.89 499.13) rotate(-44.88)"/><path class="cls-1" d="M382.37,767.16,402.13,787l-19.84,19.76-19.76-19.84,19.84-19.76m0-1.41-21.26,21.17,21.17,21.26L403.55,787l-21.17-21.26Z"/><rect x="501.71" y="1312.74" width="29" height="29" transform="translate(-786.11 751.06) rotate(-44.88)"/><path class="cls-1" d="M516.25,1307.44,536,1327.28,516.17,1347l-19.76-19.84,19.84-19.76m0-1.41L495,1327.19l21.17,21.26,21.26-21.17L516.26,1306Z"/><rect x="501.9" y="1222.74" width="29" height="29" transform="translate(-722.55 724.96) rotate(-44.88)"/><path class="cls-1" d="M516.44,1217.44l19.76,19.84L516.36,1257,496.6,1237.2l19.84-19.76m0-1.41-21.26,21.17,21.17,21.26,21.26-21.17L516.44,1216Z"/><rect x="502.09" y="1132.74" width="29" height="29" transform="translate(-658.98 698.84) rotate(-44.88)"/><path class="cls-1" d="M516.63,1127.44l19.76,19.84L516.54,1167l-19.76-19.84,19.84-19.76m0-1.41-21.26,21.17,21.17,21.26,21.26-21.17L516.63,1126Z"/><rect x="502.27" y="1042.74" width="29" height="29" transform="translate(-595.42 672.74) rotate(-44.88)"/><path class="cls-1" d="M516.81,1037.44l19.76,19.84L516.73,1077,497,1057.2l19.84-19.76m0-1.41-21.26,21.17,21.17,21.26L538,1057.28,516.82,1036Z"/><rect x="502.46" y="952.74" width="29" height="29" transform="translate(-531.86 646.64) rotate(-44.88)"/><path class="cls-1" d="M517,947.44l19.76,19.84L516.92,987,497.16,967.2,517,947.44m0-1.41-21.26,21.17,21.17,21.26,21.26-21.17L517,946Z"/><rect x="502.65" y="862.74" width="29" height="29" transform="translate(-468.3 620.57) rotate(-44.88)"/><path class="cls-1" d="M517.19,857.44l19.76,19.84L517.1,897,497.35,877.2l19.84-19.76m0-1.41-21.26,21.17,21.17,21.26,21.26-21.17L517.19,856Z"/><rect x="502.83" y="772.74" width="29" height="29" transform="translate(-404.74 594.48) rotate(-44.88)"/><path class="cls-1" d="M517.37,767.44l19.76,19.84L517.29,807,497.53,787.2l19.84-19.76m0-1.41-21.26,21.17,21.17,21.26,21.26-21.17L517.38,766Z"/><rect x="456.53" y="1402.64" width="29" height="29" transform="translate(-862.72 745.37) rotate(-44.88)"/><path class="cls-1" d="M471.07,1397.34l19.76,19.84L471,1436.94l-19.76-19.84,19.84-19.76m0-1.41-21.26,21.17L471,1438.36l21.26-21.17-21.17-21.26Z"/><rect x="456.62" y="1357.64" width="29" height="29" transform="translate(-830.93 732.29) rotate(-44.88)"/><path class="cls-1" d="M471.16,1352.34l19.76,19.84-19.84,19.76-19.76-19.84,19.84-19.76m0-1.41-21.26,21.17,21.17,21.26,21.26-21.17-21.17-21.26Z"/><rect x="456.81" y="1267.64" width="29" height="29" transform="translate(-767.37 706.2) rotate(-44.88)"/><path class="cls-1" d="M471.35,1262.35l19.76,19.84-19.84,19.76-19.76-19.84,19.84-19.76m0-1.41-21.26,21.17,21.17,21.26,21.26-21.17-21.17-21.26Z"/><rect x="456.9" y="1222.64" width="29" height="29" transform="translate(-735.59 693.15) rotate(-44.88)"/><path class="cls-1" d="M471.44,1217.35l19.76,19.84-19.84,19.76L451.6,1237.1l19.84-19.76m0-1.41-21.26,21.17,21.17,21.26,21.26-21.17-21.17-21.26Z"/><rect x="456.99" y="1177.64" width="29" height="29" transform="translate(-703.81 680.1) rotate(-44.88)"/><path class="cls-1" d="M471.53,1172.35l19.76,19.84-19.84,19.76-19.76-19.84,19.84-19.76m0-1.41-21.26,21.17,21.17,21.26,21.26-21.17-21.17-21.26Z"/><rect x="457.18" y="1087.64" width="29" height="29" transform="translate(-640.25 654.01) rotate(-44.88)"/><path class="cls-1" d="M471.72,1082.35l19.76,19.84-19.84,19.76-19.76-19.84,19.84-19.76m0-1.41-21.26,21.17,21.17,21.26,21.26-21.17-21.17-21.26Z"/><rect x="457.27" y="1042.64" width="29" height="29" transform="translate(-608.48 640.99) rotate(-44.88)"/><path class="cls-1" d="M471.81,1037.35l19.76,19.84-19.84,19.76L452,1057.1l19.84-19.76m0-1.41-21.26,21.17,21.17,21.26L493,1057.19l-21.17-21.26Z"/><rect x="457.37" y="997.64" width="29" height="29" transform="translate(-576.69 627.94) rotate(-44.88)"/><path class="cls-1" d="M471.91,992.35l19.76,19.84-19.84,19.76-19.76-19.84,19.84-19.76m0-1.41-21.26,21.17,21.17,21.26,21.26-21.17-21.17-21.26Z"/><rect x="457.55" y="907.64" width="29" height="29" transform="translate(-513.12 601.82) rotate(-44.88)"/><path class="cls-1" d="M472.09,902.35l19.76,19.84L472,941.94,452.25,922.1l19.84-19.76m0-1.41L450.84,922.1,472,943.36l21.26-21.17L472.1,900.93Z"/><rect x="457.65" y="862.64" width="29" height="29" transform="translate(-481.35 588.79) rotate(-44.88)"/><path class="cls-1" d="M472.19,857.35l19.76,19.84L472.1,896.94,452.35,877.1l19.84-19.76m0-1.41L450.93,877.1l21.17,21.26,21.26-21.17-21.17-21.26Z"/><rect x="457.74" y="817.65" width="29" height="29" transform="translate(-449.56 575.72) rotate(-44.88)"/><path class="cls-1" d="M472.28,812.35,492,832.19,472.2,851.94,452.44,832.1l19.84-19.76m0-1.41L451,832.1l21.17,21.26,21.26-21.17-21.17-21.26Z"/><rect x="457.93" y="727.65" width="29" height="29" transform="translate(-386 549.63) rotate(-44.88)"/><path class="cls-1" d="M472.47,722.35l19.76,19.84-19.84,19.76L452.63,742.1l19.84-19.76m0-1.41L451.21,742.1l21.17,21.26,21.26-21.17-21.17-21.26Z"/><rect x="591.71" y="1312.92" width="29" height="29" transform="translate(-760.02 814.62) rotate(-44.88)"/><path class="cls-1" d="M606.25,1307.63,626,1327.47l-19.84,19.76-19.76-19.84,19.84-19.76m0-1.41L585,1327.38l21.17,21.26,21.26-21.17-21.17-21.26Z"/><rect x="591.9" y="1222.92" width="29" height="29" transform="translate(-696.45 788.52) rotate(-44.88)"/><path class="cls-1" d="M606.44,1217.63l19.76,19.84-19.84,19.76-19.76-19.84,19.84-19.76m0-1.41-21.26,21.17,21.17,21.26,21.26-21.17-21.17-21.26Z"/><rect x="592.09" y="1132.92" width="29" height="29" transform="translate(-632.88 762.4) rotate(-44.88)"/><path class="cls-1" d="M606.63,1127.63l19.76,19.84-19.84,19.76-19.76-19.84,19.84-19.76m0-1.41-21.26,21.17,21.17,21.26,21.26-21.17-21.17-21.26Z"/><rect x="592.46" y="952.93" width="29" height="29" transform="translate(-505.77 710.23) rotate(-44.88)"/><path class="cls-1" d="M607,947.63l19.76,19.84-19.84,19.76-19.76-19.84L607,947.63m0-1.41-21.26,21.17,21.17,21.26,21.26-21.17L607,946.21Z"/><rect x="592.65" y="862.93" width="29" height="29" transform="translate(-442.21 684.13) rotate(-44.88)"/><path class="cls-1" d="M607.19,857.63l19.76,19.84L607.1,897.22l-19.76-19.84,19.84-19.76m0-1.41-21.26,21.17,21.17,21.26,21.26-21.17-21.17-21.26Z"/><rect x="592.83" y="772.93" width="29" height="29" transform="translate(-378.64 658.04) rotate(-44.88)"/><path class="cls-1" d="M607.37,767.63l19.76,19.84-19.84,19.76-19.76-19.84,19.84-19.76m0-1.41-21.26,21.17,21.17,21.26,21.26-21.17-21.17-21.26Z"/><rect x="546.99" y="1177.83" width="29" height="29" transform="translate(-677.71 743.66) rotate(-44.88)"/><path class="cls-1" d="M561.53,1172.53l19.76,19.84-19.84,19.76-19.76-19.84,19.84-19.76m0-1.41-21.26,21.17,21.17,21.26,21.26-21.17-21.17-21.26Z"/><rect x="547.09" y="1132.83" width="29" height="29" transform="translate(-645.94 730.64) rotate(-44.88)"/><path class="cls-1" d="M561.63,1127.53l19.76,19.84-19.84,19.76-19.76-19.84,19.84-19.76m0-1.41-21.26,21.17,21.17,21.26,21.26-21.17-21.17-21.26Z"/><rect x="547.46" y="952.83" width="29" height="29" transform="translate(-518.82 678.45) rotate(-44.88)"/><path class="cls-1" d="M562,947.53l19.76,19.84-19.84,19.76-19.76-19.84L562,947.53m0-1.41-21.26,21.17,21.17,21.26,21.26-21.17L562,946.12Z"/><rect x="547.55" y="907.83" width="29" height="29" transform="translate(-487.03 665.38) rotate(-44.88)"/><path class="cls-1" d="M562.09,902.53l19.76,19.84L562,942.13l-19.76-19.84,19.84-19.76m0-1.41-21.26,21.17L562,943.54l21.26-21.17L562.1,901.12Z"/><rect x="547.74" y="817.83" width="29" height="29" transform="translate(-423.47 639.28) rotate(-44.88)"/><path class="cls-1" d="M562.28,812.53,582,832.37,562.2,852.13l-19.76-19.84,19.84-19.76m0-1.41L541,832.29l21.17,21.26,21.26-21.17-21.17-21.26Z"/><rect x="547.83" y="772.83" width="29" height="29" transform="translate(-391.69 626.23) rotate(-44.88)"/><path class="cls-1" d="M562.37,767.53l19.76,19.84-19.84,19.76-19.76-19.84,19.84-19.76m0-1.41-21.26,21.17,21.17,21.26,21.26-21.17-21.17-21.26Z"/><rect x="547.93" y="727.83" width="29" height="29" transform="translate(-359.91 613.19) rotate(-44.88)"/><path class="cls-1" d="M562.47,722.53l19.76,19.84-19.84,19.76-19.76-19.84,19.84-19.76m0-1.41-21.26,21.17,21.17,21.26,21.26-21.17-21.17-21.26Z"/><rect x="681.52" y="1403.11" width="29" height="29" transform="translate(-797.48 904.28) rotate(-44.88)"/><path class="cls-1" d="M696.07,1397.81l19.76,19.84L696,1437.41l-19.76-19.84,19.84-19.76m0-1.41-21.26,21.17L696,1438.82l21.26-21.17-21.17-21.26Z"/><rect x="681.71" y="1313.11" width="29" height="29" transform="translate(-733.92 878.18) rotate(-44.88)"/><path class="cls-1" d="M696.25,1307.81,716,1327.65l-19.84,19.76-19.76-19.84,19.84-19.76m0-1.41L675,1327.57l21.17,21.26,21.26-21.17-21.17-21.26Z"/><rect x="681.9" y="1223.11" width="29" height="29" transform="translate(-670.35 852.05) rotate(-44.88)"/><path class="cls-1" d="M696.44,1217.81l19.76,19.84-19.84,19.76-19.76-19.84,19.84-19.76m0-1.41-21.26,21.17,21.17,21.26,21.26-21.17-21.17-21.26Z"/><rect x="682.09" y="1133.11" width="29" height="29" transform="translate(-606.79 825.96) rotate(-44.88)"/><path class="cls-1" d="M696.63,1127.81l19.76,19.84-19.84,19.76-19.76-19.84,19.84-19.76m0-1.41-21.26,21.17,21.17,21.26,21.26-21.17-21.17-21.26Z"/><rect x="682.46" y="953.11" width="29" height="29" transform="translate(-479.67 773.76) rotate(-44.88)"/><path class="cls-1" d="M697,947.81l19.76,19.84-19.84,19.76-19.76-19.84L697,947.81m0-1.41-21.26,21.17,21.17,21.26,21.26-21.17L697,946.4Z"/><rect x="682.65" y="863.11" width="29" height="29" transform="translate(-416.11 747.7) rotate(-44.88)"/><path class="cls-1" d="M697.19,857.81l19.76,19.84L697.1,897.41l-19.76-19.84,19.84-19.76m0-1.41-21.26,21.17,21.17,21.26,21.26-21.17L697.19,856.4Z"/><rect x="682.83" y="773.11" width="29" height="29" transform="translate(-352.55 721.57) rotate(-44.88)"/><path class="cls-1" d="M697.37,767.81l19.76,19.84-19.84,19.76-19.76-19.84,19.84-19.76m0-1.41-21.26,21.17,21.17,21.26,21.26-21.17L697.38,766.4Z"/><rect x="636.62" y="1358.02" width="29" height="29" transform="translate(-778.74 859.41) rotate(-44.88)"/><path class="cls-1" d="M651.16,1352.72l19.76,19.84-19.84,19.76-19.76-19.84,19.84-19.76m0-1.41-21.26,21.17,21.17,21.26,21.26-21.17-21.17-21.26Z"/><rect x="636.9" y="1223.02" width="29" height="29" transform="translate(-683.41 820.3) rotate(-44.88)"/><path class="cls-1" d="M651.44,1217.72l19.76,19.84-19.84,19.76-19.76-19.84,19.84-19.76m0-1.41-21.26,21.17,21.17,21.26,21.26-21.17-21.17-21.26Z"/><rect x="636.99" y="1178.02" width="29" height="29" transform="translate(-651.62 807.22) rotate(-44.88)"/><path class="cls-1" d="M651.53,1172.72l19.76,19.84-19.84,19.76-19.76-19.84,19.84-19.76m0-1.41-21.26,21.17,21.17,21.26,21.26-21.17-21.17-21.26Z"/><rect x="637.18" y="1088.02" width="29" height="29" transform="translate(-588.06 781.16) rotate(-44.88)"/><path class="cls-1" d="M651.72,1082.72l19.76,19.84-19.84,19.76-19.76-19.84,19.84-19.76m0-1.41-21.26,21.17,21.17,21.26,21.26-21.17-21.17-21.26Z"/><rect x="637.27" y="1043.02" width="29" height="29" transform="translate(-556.28 768.11) rotate(-44.88)"/><path class="cls-1" d="M651.81,1037.72l19.76,19.84-19.84,19.76L632,1057.48l19.84-19.76m0-1.41-21.26,21.17,21.17,21.26L673,1057.56l-21.17-21.26Z"/><rect x="637.37" y="998.02" width="29" height="29" transform="translate(-524.49 755.03) rotate(-44.88)"/><path class="cls-1" d="M651.91,992.72l19.76,19.84-19.84,19.76-19.76-19.84,19.84-19.76m0-1.41-21.26,21.17,21.17,21.26,21.26-21.17L651.91,991.3Z"/><rect x="637.55" y="908.02" width="29" height="29" transform="translate(-460.93 728.94) rotate(-44.88)"/><path class="cls-1" d="M652.09,902.72l19.76,19.84L652,942.32l-19.76-19.84,19.84-19.76m0-1.41-21.26,21.17L652,943.73l21.26-21.17L652.1,901.31Z"/><rect x="637.65" y="863.02" width="29" height="29" transform="translate(-429.15 715.89) rotate(-44.88)"/><path class="cls-1" d="M652.19,857.72l19.76,19.84L652.1,897.32l-19.76-19.84,19.84-19.76m0-1.41-21.26,21.17,21.17,21.26,21.26-21.17-21.17-21.26Z"/><rect x="637.74" y="818.02" width="29" height="29" transform="translate(-397.37 702.84) rotate(-44.88)"/><path class="cls-1" d="M652.28,812.72,672,832.56,652.2,852.32l-19.76-19.84,19.84-19.76m0-1.41L631,832.47l21.17,21.26,21.26-21.17-21.17-21.26Z"/><rect x="637.93" y="728.02" width="29" height="29" transform="translate(-333.81 676.77) rotate(-44.88)"/><path class="cls-1" d="M652.47,722.72l19.76,19.84-19.84,19.76-19.76-19.84,19.84-19.76m0-1.41-21.26,21.17,21.17,21.26,21.26-21.17-21.17-21.26Z"/><rect x="53.02" y="681.8" width="29" height="29" transform="translate(-471.66 250.57) rotate(-44.88)"/><path class="cls-1" d="M67.56,676.51l19.76,19.84L67.48,716.1,47.72,696.26l19.84-19.76m0-1.41L46.31,696.26l21.17,21.26,21.26-21.17L67.56,675.09Z"/><rect x="53.39" y="501.81" width="29" height="29" transform="translate(-344.54 198.37) rotate(-44.88)"/><path class="cls-1" d="M67.93,496.51l19.76,19.84L67.85,536.1,48.09,516.26l19.84-19.76m0-1.41L46.68,516.26l21.17,21.26,21.26-21.17L67.94,495.09Z"/><rect x="53.58" y="411.81" width="29" height="29" transform="translate(-280.98 172.28) rotate(-44.88)"/><path class="cls-1" d="M68.12,406.51l19.76,19.84L68,446.1,48.28,426.26l19.84-19.76m0-1.41L46.87,426.26,68,447.52l21.26-21.17L68.12,405.09Z"/><rect x="53.77" y="321.81" width="29" height="29" transform="translate(-217.41 146.18) rotate(-44.88)"/><path class="cls-1" d="M68.31,316.51l19.76,19.84L68.23,356.1,48.47,336.26l19.84-19.76m0-1.41L47.05,336.26l21.17,21.26,21.26-21.17L68.31,315.09Z"/><rect x="53.95" y="231.81" width="29" height="29" transform="translate(-153.85 120.08) rotate(-44.88)"/><path class="cls-1" d="M68.49,226.51l19.76,19.84L68.41,266.1,48.65,246.26l19.84-19.76m0-1.41L47.24,246.26l21.17,21.26,21.26-21.17L68.5,225.09Z"/><rect x="54.14" y="141.81" width="29" height="29" transform="translate(-90.29 93.99) rotate(-44.88)"/><path class="cls-1" d="M68.68,136.51l19.76,19.84L68.6,176.11,48.84,156.27l19.84-19.76m0-1.41L47.43,156.26,68.6,177.52l21.26-21.17L68.68,135.09Z"/><rect x="54.23" y="96.81" width="29" height="29" transform="translate(-58.51 80.94) rotate(-44.88)"/><path class="cls-1" d="M68.77,91.51l19.76,19.84L68.69,131.11,48.93,111.27,68.77,91.51m0-1.41L47.52,111.26l21.17,21.26,21.26-21.17L68.78,90.09Z"/><rect x="54.33" y="51.81" width="29" height="29" transform="translate(-26.73 67.89) rotate(-44.88)"/><path class="cls-1" d="M68.87,46.51,88.63,66.35,68.79,86.11,49,66.27,68.87,46.51m0-1.41L47.61,66.26,68.78,87.52,90,66.35,68.87,45.09Z"/><rect x="8.11" y="636.71" width="29" height="29" transform="translate(-452.93 205.73) rotate(-44.88)"/><path class="cls-1" d="M22.65,631.41l19.76,19.84L22.57,671,2.81,651.17l19.84-19.76m0-1.41L1.4,651.17l21.17,21.26,21.26-21.17L22.66,630Z"/><rect x="8.3" y="546.71" width="29" height="29" transform="translate(-389.37 179.64) rotate(-44.88)"/><path class="cls-1" d="M22.84,541.41,42.6,561.25,22.76,581,3,561.17l19.84-19.76m0-1.41L1.59,561.17l21.17,21.26L44,561.26,22.84,540Z"/><rect x="8.58" y="411.71" width="29" height="29" transform="translate(-294.02 140.49) rotate(-44.88)"/><path class="cls-1" d="M23.12,406.41l19.76,19.84L23,446,3.28,426.17l19.84-19.76m0-1.41L1.87,426.17,23,447.43l21.26-21.17L23.12,405Z"/><rect x="8.67" y="366.71" width="29" height="29" transform="translate(-262.25 127.45) rotate(-44.88)"/><path class="cls-1" d="M23.21,361.41,43,381.25,23.13,401,3.37,381.17l19.84-19.76m0-1.41L2,381.17l21.17,21.26,21.26-21.17L23.22,360Z"/><rect x="8.86" y="276.71" width="29" height="29" transform="translate(-198.68 101.35) rotate(-44.88)"/><path class="cls-1" d="M23.4,271.41l19.76,19.84L23.32,311,3.56,291.17,23.4,271.41m0-1.41L2.15,291.17l21.17,21.26,21.26-21.17L23.4,270Z"/><rect x="8.95" y="231.71" width="29" height="29" transform="translate(-166.9 88.3) rotate(-44.88)"/><path class="cls-1" d="M23.49,226.41l19.76,19.84L23.41,266,3.65,246.17l19.84-19.76m0-1.41L2.24,246.17l21.17,21.26,21.26-21.17L23.5,225Z"/><rect x="9.05" y="186.71" width="29" height="29" transform="translate(-135.12 75.25) rotate(-44.88)"/><path class="cls-1" d="M23.59,181.41l19.76,19.84L23.51,221,3.75,201.17l19.84-19.76m0-1.41L2.33,201.17,23.5,222.43l21.26-21.17L23.59,180Z"/><rect x="9.23" y="96.71" width="29" height="29" transform="translate(-71.56 49.16) rotate(-44.88)"/><path class="cls-1" d="M23.77,91.41l19.76,19.84L23.69,131,3.93,111.17,23.77,91.41m0-1.41L2.52,111.17l21.17,21.26,21.26-21.17L23.78,90Z"/><rect x="9.33" y="51.71" width="29" height="29" transform="translate(-39.78 36.11) rotate(-44.88)"/><path class="cls-1" d="M23.87,46.41,43.63,66.25,23.79,86,4,66.17,23.87,46.41m0-1.41L2.61,66.17,23.78,87.43,45,66.26,23.87,45Z"/><rect x="9.42" y="6.71" width="29" height="29" transform="translate(-8 23.06) rotate(-44.88)"/><path class="cls-1" d="M24,1.41,43.72,21.25,23.88,41,4.12,21.17,24,1.41M24,0,2.71,21.17,23.88,42.43,45.13,21.26,24,0Z"/><rect x="143.02" y="681.99" width="29" height="29" transform="translate(-445.57 314.13) rotate(-44.88)"/><path class="cls-1" d="M157.56,676.69l19.76,19.84-19.84,19.76-19.76-19.84,19.84-19.76m0-1.41-21.26,21.17,21.17,21.26,21.26-21.17-21.17-21.26Z"/><rect x="143.21" y="591.99" width="29" height="29" transform="translate(-382 288.03) rotate(-44.88)"/><path class="cls-1" d="M157.75,586.69l19.76,19.84-19.84,19.76-19.76-19.84,19.84-19.76m0-1.41-21.26,21.17,21.17,21.26,21.26-21.17-21.17-21.26Z"/><rect x="143.39" y="501.99" width="29" height="29" transform="translate(-318.44 261.94) rotate(-44.88)"/><path class="cls-1" d="M157.93,496.69l19.76,19.84-19.84,19.76-19.76-19.84,19.84-19.76m0-1.41-21.26,21.17,21.17,21.26,21.26-21.17-21.17-21.26Z"/><rect x="143.58" y="411.99" width="29" height="29" transform="translate(-254.88 235.84) rotate(-44.88)"/><path class="cls-1" d="M158.12,406.69l19.76,19.84L158,446.29l-19.76-19.84,19.84-19.76m0-1.41-21.26,21.17L158,447.71l21.26-21.17-21.17-21.26Z"/><rect x="143.77" y="321.99" width="29" height="29" transform="translate(-191.32 209.74) rotate(-44.88)"/><path class="cls-1" d="M158.31,316.69l19.76,19.84-19.84,19.76-19.76-19.84,19.84-19.76m0-1.41-21.26,21.17,21.17,21.26,21.26-21.17-21.17-21.26Z"/><rect x="143.95" y="231.99" width="29" height="29" transform="translate(-127.76 183.65) rotate(-44.88)"/><path class="cls-1" d="M158.49,226.69l19.76,19.84-19.84,19.76-19.76-19.84,19.84-19.76m0-1.41-21.26,21.17,21.17,21.26,21.26-21.17L158.5,225.28Z"/><rect x="144.05" y="186.99" width="29" height="29" transform="translate(-95.98 170.6) rotate(-44.88)"/><path class="cls-1" d="M158.59,181.69l19.76,19.84-19.84,19.76-19.76-19.84,19.84-19.76m0-1.41-21.26,21.17,21.17,21.26,21.26-21.17-21.17-21.26Z"/><rect x="144.14" y="141.99" width="29" height="29" transform="translate(-64.2 157.55) rotate(-44.88)"/><path class="cls-1" d="M158.68,136.69l19.76,19.84L158.6,176.29l-19.76-19.84,19.84-19.76m0-1.41-21.26,21.17,21.17,21.26,21.26-21.17-21.17-21.26Z"/><rect x="144.33" y="51.99" width="29" height="29" transform="translate(-0.63 131.45) rotate(-44.88)"/><path class="cls-1" d="M158.87,46.69l19.76,19.84L158.79,86.29,139,66.45l19.84-19.76m0-1.41L137.61,66.45l21.17,21.26L180,66.54,158.87,45.28Z"/><rect x="144.42" y="6.99" width="29" height="29" transform="translate(31.15 118.4) rotate(-44.88)"/><path class="cls-1" d="M159,1.69l19.76,19.84L158.88,41.29,139.12,21.45,159,1.69m0-1.41L137.71,21.45l21.17,21.26,21.26-21.17L159,.28Z"/><rect x="98.11" y="636.9" width="29" height="29" transform="translate(-426.84 269.31) rotate(-44.88)"/><path class="cls-1" d="M112.65,631.6l19.76,19.84L112.57,671.2,92.81,651.36l19.84-19.76m0-1.41L91.4,651.35l21.17,21.26,21.26-21.17-21.17-21.26Z"/><rect x="98.39" y="501.9" width="29" height="29" transform="translate(-331.49 230.15) rotate(-44.88)"/><path class="cls-1" d="M112.93,496.6l19.76,19.84L112.85,536.2,93.09,516.36l19.84-19.76m0-1.41L91.68,516.35l21.17,21.26,21.26-21.17-21.17-21.26Z"/><rect x="98.49" y="456.9" width="29" height="29" transform="translate(-299.71 217.11) rotate(-44.88)"/><path class="cls-1" d="M113,451.6l19.76,19.84L112.95,491.2,93.19,471.36,113,451.6m0-1.41L91.77,471.35l21.17,21.26,21.26-21.17L113,450.19Z"/><rect x="98.67" y="366.9" width="29" height="29" transform="translate(-236.15 191.01) rotate(-44.88)"/><path class="cls-1" d="M113.21,361.6,133,381.44,113.13,401.2,93.37,381.36l19.84-19.76m0-1.41L92,381.36l21.17,21.26,21.26-21.17-21.17-21.26Z"/><rect x="98.77" y="321.9" width="29" height="29" transform="translate(-204.37 177.96) rotate(-44.88)"/><path class="cls-1" d="M113.31,316.6l19.76,19.84L113.23,356.2,93.47,336.36l19.84-19.76m0-1.41L92.05,336.36l21.17,21.26,21.26-21.17-21.17-21.26Z"/><rect x="98.86" y="276.9" width="29" height="29" transform="translate(-172.59 164.91) rotate(-44.88)"/><path class="cls-1" d="M113.4,271.6l19.76,19.84L113.32,311.2,93.56,291.36,113.4,271.6m0-1.41L92.15,291.36l21.17,21.26,21.26-21.17L113.4,270.19Z"/><rect x="99.05" y="186.9" width="29" height="29" transform="translate(-109.03 138.82) rotate(-44.88)"/><path class="cls-1" d="M113.59,181.6l19.76,19.84L113.51,221.2,93.75,201.36l19.84-19.76m0-1.41L92.33,201.36l21.17,21.26,21.26-21.17-21.17-21.26Z"/><rect x="99.14" y="141.9" width="29" height="29" transform="translate(-77.24 125.77) rotate(-44.88)"/><path class="cls-1" d="M113.68,136.6l19.76,19.84L113.6,176.2,93.84,156.36l19.84-19.76m0-1.41L92.43,156.36l21.17,21.26,21.26-21.17-21.17-21.26Z"/><rect x="99.23" y="96.9" width="29" height="29" transform="translate(-45.46 112.72) rotate(-44.88)"/><path class="cls-1" d="M113.77,91.6l19.76,19.84L113.69,131.2,93.93,111.36,113.77,91.6m0-1.41L92.52,111.36l21.17,21.26,21.26-21.17L113.78,90.19Z"/><rect x="99.42" y="6.9" width="29" height="29" transform="translate(18.1 86.62) rotate(-44.88)"/><path class="cls-1" d="M114,1.6l19.76,19.84L113.88,41.2,94.12,21.36,114,1.6m0-1.41L92.71,21.36l21.17,21.26,21.26-21.17L114,.19Z"/><rect x="233.21" y="592.18" width="29" height="29" transform="translate(-355.91 351.6) rotate(-44.88)"/><path class="cls-1" d="M247.75,586.88l19.76,19.84-19.84,19.76-19.76-19.84,19.84-19.76m0-1.41-21.26,21.17,21.17,21.26,21.26-21.17-21.17-21.26Z"/><rect x="233.39" y="502.18" width="29" height="29" transform="translate(-292.35 325.5) rotate(-44.88)"/><path class="cls-1" d="M247.93,496.88l19.76,19.84-19.84,19.76-19.76-19.84,19.84-19.76m0-1.41-21.26,21.17,21.17,21.26,21.26-21.17-21.17-21.26Z"/><rect x="233.58" y="412.18" width="29" height="29" transform="translate(-228.78 299.4) rotate(-44.88)"/><path class="cls-1" d="M248.12,406.88l19.76,19.84L248,446.48l-19.76-19.84,19.84-19.76m0-1.41-21.26,21.17L248,447.89l21.26-21.17-21.17-21.26Z"/><rect x="233.77" y="322.18" width="29" height="29" transform="translate(-165.22 273.31) rotate(-44.88)"/><path class="cls-1" d="M248.31,316.88l19.76,19.84-19.84,19.76-19.76-19.84,19.84-19.76m0-1.41-21.26,21.17,21.17,21.26,21.26-21.17-21.17-21.26Z"/><rect x="233.86" y="277.18" width="29" height="29" transform="translate(-133.44 260.26) rotate(-44.88)"/><path class="cls-1" d="M248.4,271.88l19.76,19.84-19.84,19.76-19.76-19.84,19.84-19.76m0-1.41-21.26,21.17,21.17,21.26,21.26-21.17L248.4,270.47Z"/><rect x="233.95" y="232.18" width="29" height="29" transform="translate(-101.66 247.21) rotate(-44.88)"/><path class="cls-1" d="M248.49,226.88l19.76,19.84-19.84,19.76-19.76-19.84,19.84-19.76m0-1.41-21.26,21.17,21.17,21.26,21.26-21.17L248.5,225.47Z"/><rect x="234.14" y="142.18" width="29" height="29" transform="translate(-38.1 221.11) rotate(-44.88)"/><path class="cls-1" d="M248.68,136.88l19.76,19.84L248.6,176.48l-19.76-19.84,19.84-19.76m0-1.41-21.26,21.17,21.17,21.26,21.26-21.17-21.17-21.26Z"/><rect x="234.23" y="97.18" width="29" height="29" transform="translate(-6.32 208.06) rotate(-44.88)"/><path class="cls-1" d="M248.77,91.88l19.76,19.84-19.84,19.76-19.76-19.84,19.84-19.76m0-1.41-21.26,21.17,21.17,21.26,21.26-21.17L248.78,90.47Z"/><rect x="234.33" y="52.18" width="29" height="29" transform="translate(25.47 195.02) rotate(-44.88)"/><path class="cls-1" d="M248.87,46.88l19.76,19.84L248.79,86.48,229,66.64l19.84-19.76m0-1.41L227.61,66.64l21.17,21.26L270,66.72,248.87,45.47Z"/><rect x="188.21" y="592.09" width="29" height="29" transform="translate(-368.95 319.81) rotate(-44.88)"/><path class="cls-1" d="M202.75,586.79l19.76,19.84-19.84,19.76-19.76-19.84,19.84-19.76m0-1.41-21.26,21.17,21.17,21.26,21.26-21.17-21.17-21.26Z"/><rect x="188.49" y="457.09" width="29" height="29" transform="translate(-273.61 280.66) rotate(-44.88)"/><path class="cls-1" d="M203,451.79l19.76,19.84-19.84,19.76-19.76-19.84L203,451.79m0-1.41-21.26,21.17,21.17,21.26,21.26-21.17L203,450.37Z"/><rect x="188.58" y="412.09" width="29" height="29" transform="translate(-241.83 267.62) rotate(-44.88)"/><path class="cls-1" d="M203.12,406.79l19.76,19.84L203,446.38l-19.76-19.84,19.84-19.76m0-1.41-21.26,21.17L203,447.8l21.26-21.17-21.17-21.26Z"/><rect x="188.67" y="367.09" width="29" height="29" transform="translate(-210.05 254.57) rotate(-44.88)"/><path class="cls-1" d="M203.21,361.79,223,381.63l-19.84,19.76-19.76-19.84,19.84-19.76m0-1.41L182,381.54l21.17,21.26,21.26-21.17-21.17-21.26Z"/><rect x="188.86" y="277.09" width="29" height="29" transform="translate(-146.49 228.48) rotate(-44.88)"/><path class="cls-1" d="M203.4,271.79l19.76,19.84-19.84,19.76-19.76-19.84,19.84-19.76m0-1.41-21.26,21.17,21.17,21.26,21.26-21.17L203.4,270.37Z"/><rect x="188.95" y="232.09" width="29" height="29" transform="translate(-114.71 215.43) rotate(-44.88)"/><path class="cls-1" d="M203.49,226.79l19.76,19.84-19.84,19.76-19.76-19.84,19.84-19.76m0-1.41-21.26,21.17,21.17,21.26,21.26-21.17L203.5,225.37Z"/><rect x="189.05" y="187.09" width="29" height="29" transform="translate(-82.93 202.38) rotate(-44.88)"/><path class="cls-1" d="M203.59,181.79l19.76,19.84-19.84,19.76-19.76-19.84,19.84-19.76m0-1.41-21.26,21.17L203.5,222.8l21.26-21.17-21.17-21.26Z"/><rect x="189.23" y="97.09" width="29" height="29" transform="translate(-19.37 176.28) rotate(-44.88)"/><path class="cls-1" d="M203.77,91.79l19.76,19.84-19.84,19.76-19.76-19.84,19.84-19.76m0-1.41-21.26,21.17,21.17,21.26,21.26-21.17L203.78,90.37Z"/><rect x="189.33" y="52.09" width="29" height="29" transform="translate(12.42 163.24) rotate(-44.88)"/><path class="cls-1" d="M203.87,46.79l19.76,19.84L203.79,86.39,184,66.55l19.84-19.76m0-1.41L182.61,66.54,203.78,87.8,225,66.63,203.87,45.37Z"/><rect x="189.42" y="7.09" width="29" height="29" transform="translate(44.2 150.19) rotate(-44.88)"/><path class="cls-1" d="M204,1.79l19.76,19.84L203.88,41.39,184.12,21.55,204,1.79m0-1.41L182.71,21.54,203.88,42.8l21.26-21.17L204,.37Z"/><rect x="323.02" y="682.37" width="29" height="29" transform="translate(-393.38 441.27) rotate(-44.88)"/><path class="cls-1" d="M337.56,677.07l19.76,19.84-19.84,19.76-19.76-19.84,19.84-19.76m0-1.41-21.26,21.17,21.17,21.26,21.26-21.17-21.17-21.26Z"/><rect x="323.21" y="592.37" width="29" height="29" transform="translate(-329.82 415.17) rotate(-44.88)"/><path class="cls-1" d="M337.75,587.07l19.76,19.84-19.84,19.76-19.76-19.84,19.84-19.76m0-1.41-21.26,21.17,21.17,21.26,21.26-21.17-21.17-21.26Z"/><rect x="323.39" y="502.37" width="29" height="29" transform="translate(-266.25 389.05) rotate(-44.88)"/><path class="cls-1" d="M337.93,497.07l19.76,19.84-19.84,19.76-19.76-19.84,19.84-19.76m0-1.41-21.26,21.17,21.17,21.26,21.26-21.17-21.17-21.26Z"/><rect x="323.58" y="412.37" width="29" height="29" transform="translate(-202.69 362.96) rotate(-44.88)"/><path class="cls-1" d="M338.12,407.07l19.76,19.84L338,446.66l-19.76-19.84,19.84-19.76m0-1.41-21.26,21.17L338,448.08l21.26-21.17-21.17-21.26Z"/><rect x="323.77" y="322.37" width="29" height="29" transform="translate(-139.13 336.86) rotate(-44.88)"/><path class="cls-1" d="M338.31,317.07l19.76,19.84-19.84,19.76-19.76-19.84,19.84-19.76m0-1.41-21.26,21.17,21.17,21.26,21.26-21.17-21.17-21.26Z"/><rect x="323.95" y="232.37" width="29" height="29" transform="translate(-75.56 310.77) rotate(-44.88)"/><path class="cls-1" d="M338.49,227.07l19.76,19.84-19.84,19.76-19.76-19.84,19.84-19.76m0-1.41-21.26,21.17,21.17,21.26,21.26-21.17L338.5,225.65Z"/><rect x="324.05" y="187.37" width="29" height="29" transform="translate(-43.78 297.72) rotate(-44.88)"/><path class="cls-1" d="M338.59,182.07l19.76,19.84-19.84,19.76-19.76-19.84,19.84-19.76m0-1.41-21.26,21.17,21.17,21.26,21.26-21.17-21.17-21.26Z"/><rect x="324.14" y="142.37" width="29" height="29" transform="translate(-12 284.68) rotate(-44.88)"/><path class="cls-1" d="M338.68,137.07l19.76,19.84L338.6,176.67l-19.76-19.84,19.84-19.76m0-1.41-21.26,21.17,21.17,21.26,21.26-21.17-21.17-21.26Z"/><rect x="324.33" y="52.37" width="29" height="29" transform="translate(51.56 258.57) rotate(-44.88)"/><path class="cls-1" d="M338.87,47.07l19.76,19.84L338.79,86.67,319,66.83l19.84-19.76m0-1.41L317.61,66.82l21.17,21.26L360,66.91,338.87,45.65Z"/><rect x="278.02" y="682.27" width="29" height="29" transform="translate(-406.42 409.47) rotate(-44.88)"/><path class="cls-1" d="M292.56,677l19.76,19.84-19.84,19.76-19.76-19.84L292.56,677m0-1.41-21.26,21.17L292.48,718l21.26-21.17-21.17-21.26Z"/><rect x="278.11" y="637.27" width="29" height="29" transform="translate(-374.64 396.43) rotate(-44.88)"/><path class="cls-1" d="M292.65,632l19.76,19.84-19.84,19.76-19.76-19.84L292.65,632m0-1.41L271.4,651.73,292.57,673l21.26-21.17-21.17-21.26Z"/><rect x="278.3" y="547.27" width="29" height="29" transform="translate(-311.08 370.33) rotate(-44.88)"/><path class="cls-1" d="M292.84,542l19.76,19.84-19.84,19.76L273,561.73,292.84,542m0-1.41-21.26,21.17L292.76,583,314,561.82l-21.17-21.26Z"/><rect x="278.39" y="502.27" width="29" height="29" transform="translate(-279.3 357.27) rotate(-44.88)"/><path class="cls-1" d="M292.93,497l19.76,19.84-19.84,19.76-19.76-19.84L292.93,497m0-1.41-21.26,21.17L292.85,538l21.26-21.17-21.17-21.26Z"/><rect x="278.49" y="457.27" width="29" height="29" transform="translate(-247.52 344.23) rotate(-44.88)"/><path class="cls-1" d="M293,452l19.76,19.84-19.84,19.76-19.76-19.84L293,452m0-1.41-21.26,21.17L292.94,493l21.26-21.17L293,450.56Z"/><rect x="278.67" y="367.27" width="29" height="29" transform="translate(-183.95 318.13) rotate(-44.88)"/><path class="cls-1" d="M293.21,362,313,381.81l-19.84,19.76-19.76-19.84L293.21,362m0-1.41L272,381.73,293.13,403l21.26-21.17-21.17-21.26Z"/><rect x="278.77" y="322.27" width="29" height="29" transform="translate(-152.17 305.09) rotate(-44.88)"/><path class="cls-1" d="M293.31,317l19.76,19.84-19.84,19.76-19.76-19.84L293.31,317m0-1.41-21.26,21.17L293.22,358l21.26-21.17-21.17-21.26Z"/><rect x="278.86" y="277.27" width="29" height="29" transform="translate(-120.39 292.03) rotate(-44.88)"/><path class="cls-1" d="M293.4,272l19.76,19.84-19.84,19.76-19.76-19.84L293.4,272m0-1.41-21.26,21.17L293.32,313l21.26-21.17L293.4,270.56Z"/><rect x="279.05" y="187.27" width="29" height="29" transform="translate(-56.83 265.95) rotate(-44.88)"/><path class="cls-1" d="M293.59,182l19.76,19.84-19.84,19.76-19.76-19.84L293.59,182m0-1.41-21.26,21.17L293.5,223l21.26-21.17-21.17-21.26Z"/><rect x="279.14" y="142.27" width="29" height="29" transform="translate(-25.05 252.89) rotate(-44.88)"/><path class="cls-1" d="M293.68,137l19.76,19.84L293.6,176.57l-19.76-19.84L293.68,137m0-1.41-21.26,21.17L293.6,178l21.26-21.17-21.17-21.26Z"/><rect x="279.23" y="97.27" width="29" height="29" transform="translate(6.73 239.84) rotate(-44.88)"/><path class="cls-1" d="M293.77,92l19.76,19.84-19.84,19.76-19.76-19.84L293.77,92m0-1.41-21.26,21.17L293.69,133l21.26-21.17L293.78,90.56Z"/><rect x="279.42" y="7.27" width="29" height="29" transform="translate(70.29 213.75) rotate(-44.88)"/><path class="cls-1" d="M294,2l19.76,19.84L293.88,41.57,274.12,21.73,294,2m0-1.41L272.71,21.73,293.88,43l21.26-21.17L294,.56Z"/><rect x="413.02" y="682.55" width="29" height="29" transform="translate(-367.28 504.84) rotate(-44.88)"/><path class="cls-1" d="M427.56,677.25l19.76,19.84-19.84,19.76L407.72,697l19.84-19.76m0-1.41L406.31,697l21.17,21.26,21.26-21.17-21.17-21.26Z"/><rect x="413.21" y="592.55" width="29" height="29" transform="translate(-303.71 478.71) rotate(-44.88)"/><path class="cls-1" d="M427.75,587.25l19.76,19.84-19.84,19.76L407.91,607l19.84-19.76m0-1.41L406.49,607l21.17,21.26,21.26-21.17-21.17-21.26Z"/><rect x="413.39" y="502.55" width="29" height="29" transform="translate(-240.15 452.64) rotate(-44.88)"/><path class="cls-1" d="M427.93,497.25l19.76,19.84-19.84,19.76L408.09,517l19.84-19.76m0-1.41L406.68,517l21.17,21.26,21.26-21.17-21.17-21.26Z"/><rect x="413.58" y="412.55" width="29" height="29" transform="translate(-176.59 426.52) rotate(-44.88)"/><path class="cls-1" d="M428.12,407.25l19.76,19.84L428,446.85,408.28,427l19.84-19.76m0-1.41L406.87,427,428,448.27l21.26-21.17-21.17-21.26Z"/><rect x="413.77" y="322.55" width="29" height="29" transform="translate(-113.03 400.42) rotate(-44.88)"/><path class="cls-1" d="M428.31,317.25l19.76,19.84-19.84,19.76L408.47,337l19.84-19.76m0-1.41L407.05,337l21.17,21.26,21.26-21.17-21.17-21.26Z"/><rect x="413.95" y="232.55" width="29" height="29" transform="translate(-49.47 374.33) rotate(-44.88)"/><path class="cls-1" d="M428.49,227.25l19.76,19.84-19.84,19.76L408.65,247l19.84-19.76m0-1.41L407.24,247l21.17,21.26,21.26-21.17L428.5,225.84Z"/><rect x="414.05" y="187.55" width="29" height="29" transform="translate(-17.69 361.28) rotate(-44.88)"/><path class="cls-1" d="M428.59,182.25l19.76,19.84-19.84,19.76L408.75,202l19.84-19.76m0-1.41L407.33,202l21.17,21.26,21.26-21.17-21.17-21.26Z"/><rect x="414.14" y="142.55" width="29" height="29" transform="translate(14.09 348.23) rotate(-44.88)"/><path class="cls-1" d="M428.68,137.25l19.76,19.84L428.6,176.85,408.84,157l19.84-19.76m0-1.41L407.43,157l21.17,21.26,21.26-21.17-21.17-21.26Z"/><rect x="414.33" y="52.55" width="29" height="29" transform="translate(77.66 322.15) rotate(-44.88)"/><path class="cls-1" d="M428.87,47.25l19.76,19.84L428.79,86.85,409,67l19.84-19.76m0-1.41L407.61,67l21.17,21.26L450,67.1,428.87,45.84Z"/><rect x="368.11" y="637.46" width="29" height="29" transform="translate(-348.54 459.99) rotate(-44.88)"/><path class="cls-1" d="M382.65,632.16,402.41,652l-19.84,19.76-19.76-19.84,19.84-19.76m0-1.41L361.4,651.91l21.17,21.26L403.83,652l-21.17-21.26Z"/><rect x="368.21" y="592.46" width="29" height="29" transform="translate(-316.76 446.93) rotate(-44.88)"/><path class="cls-1" d="M382.75,587.16,402.51,607l-19.84,19.76-19.76-19.84,19.84-19.76m0-1.41-21.26,21.17,21.17,21.26L403.92,607l-21.17-21.26Z"/><rect x="368.3" y="547.46" width="29" height="29" transform="translate(-284.98 433.88) rotate(-44.88)"/><path class="cls-1" d="M382.84,542.16,402.6,562l-19.84,19.76L363,561.92l19.84-19.76m0-1.41-21.26,21.17,21.17,21.26L404,562l-21.17-21.26Z"/><rect x="368.49" y="457.46" width="29" height="29" transform="translate(-221.42 407.81) rotate(-44.88)"/><path class="cls-1" d="M383,452.16,402.79,472l-19.84,19.76-19.76-19.84L383,452.16m0-1.41-21.26,21.17,21.17,21.26L404.2,472,383,450.75Z"/><rect x="368.58" y="412.46" width="29" height="29" transform="translate(-189.64 394.75) rotate(-44.88)"/><path class="cls-1" d="M383.12,407.16,402.88,427,383,446.76l-19.76-19.84,19.84-19.76m0-1.41-21.26,21.17L383,448.17,404.29,427l-21.17-21.26Z"/><rect x="368.67" y="367.46" width="29" height="29" transform="translate(-157.86 381.69) rotate(-44.88)"/><path class="cls-1" d="M383.21,362.16,403,382l-19.84,19.76-19.76-19.84,19.84-19.76m0-1.41L362,381.92l21.17,21.26L404.39,382l-21.17-21.26Z"/><rect x="368.86" y="277.46" width="29" height="29" transform="translate(-94.3 355.59) rotate(-44.88)"/><path class="cls-1" d="M383.4,272.16,403.16,292l-19.84,19.76-19.76-19.84,19.84-19.76m0-1.41-21.26,21.17,21.17,21.26L404.57,292,383.4,270.75Z"/><rect x="368.95" y="232.46" width="29" height="29" transform="translate(-62.51 342.56) rotate(-44.88)"/><path class="cls-1" d="M383.49,227.16,403.25,247l-19.84,19.76-19.76-19.84,19.84-19.76m0-1.41-21.26,21.17,21.17,21.26L404.67,247,383.5,225.75Z"/><rect x="369.05" y="187.46" width="29" height="29" transform="translate(-30.73 329.5) rotate(-44.88)"/><path class="cls-1" d="M383.59,182.16,403.35,202l-19.84,19.76-19.76-19.84,19.84-19.76m0-1.41-21.26,21.17,21.17,21.26L404.76,202l-21.17-21.26Z"/><rect x="369.23" y="97.46" width="29" height="29" transform="translate(32.83 303.4) rotate(-44.88)"/><path class="cls-1" d="M383.77,92.16,403.53,112l-19.84,19.76-19.76-19.84,19.84-19.76m0-1.41-21.26,21.17,21.17,21.26L404.95,112,383.78,90.75Z"/><rect x="369.33" y="52.46" width="29" height="29" transform="translate(64.61 290.35) rotate(-44.88)"/><path class="cls-1" d="M383.87,47.16,403.63,67,383.79,86.76,364,66.92l19.84-19.76m0-1.41L362.61,66.92l21.17,21.26L405,67,383.87,45.75Z"/><rect x="369.42" y="7.46" width="29" height="29" transform="translate(96.4 277.32) rotate(-44.88)"/><path class="cls-1" d="M384,2.16,403.72,22,383.88,41.76,364.12,21.92,384,2.16m0-1.41L362.71,21.92l21.17,21.26L405.13,22,384,.75Z"/><rect x="503.02" y="682.74" width="29" height="29" transform="translate(-341.18 568.37) rotate(-44.88)"/><path class="cls-1" d="M517.56,677.44l19.76,19.84L517.48,717,497.72,697.2l19.84-19.76m0-1.41-21.26,21.17,21.17,21.26,21.26-21.17L517.56,676Z"/><rect x="503.21" y="592.74" width="29" height="29" transform="translate(-277.62 542.3) rotate(-44.88)"/><path class="cls-1" d="M517.75,587.44l19.76,19.84L517.66,627,497.91,607.2l19.84-19.76m0-1.41-21.26,21.17,21.17,21.26,21.26-21.17L517.75,586Z"/><rect x="503.39" y="502.74" width="29" height="29" transform="translate(-214.06 516.18) rotate(-44.88)"/><path class="cls-1" d="M517.93,497.44l19.76,19.84L517.85,537,498.09,517.2l19.84-19.76m0-1.41L496.68,517.2l21.17,21.26,21.26-21.17L517.94,496Z"/><rect x="503.58" y="412.74" width="29" height="29" transform="translate(-150.49 490.08) rotate(-44.88)"/><path class="cls-1" d="M518.12,407.44l19.76,19.84L518,447,498.28,427.2l19.84-19.76m0-1.41L496.87,427.2,518,448.45l21.26-21.17L518.12,406Z"/><rect x="503.77" y="322.74" width="29" height="29" transform="translate(-86.93 463.99) rotate(-44.88)"/><path class="cls-1" d="M518.31,317.44l19.76,19.84L518.22,357,498.47,337.2l19.84-19.76m0-1.41L497.05,337.2l21.17,21.26,21.26-21.17L518.31,316Z"/><rect x="503.86" y="277.74" width="29" height="29" transform="translate(-55.15 450.94) rotate(-44.88)"/><path class="cls-1" d="M518.4,272.44l19.76,19.84L518.32,312,498.56,292.2l19.84-19.76m0-1.41L497.15,292.2l21.17,21.26,21.26-21.17L518.4,271Z"/><rect x="503.95" y="232.74" width="29" height="29" transform="translate(-23.37 437.89) rotate(-44.88)"/><path class="cls-1" d="M518.49,227.44l19.76,19.84L518.41,267,498.65,247.2l19.84-19.76m0-1.41L497.24,247.2l21.17,21.26,21.26-21.17L518.5,226Z"/><rect x="504.14" y="142.74" width="29" height="29" transform="translate(40.19 411.8) rotate(-44.88)"/><path class="cls-1" d="M518.68,137.44l19.76,19.84L518.6,177,498.84,157.2l19.84-19.76m0-1.41L497.43,157.2l21.17,21.26,21.26-21.17L518.68,136Z"/><rect x="504.23" y="97.74" width="29" height="29" transform="translate(71.97 398.75) rotate(-44.88)"/><path class="cls-1" d="M518.77,92.44l19.76,19.84L518.69,132,498.93,112.2l19.84-19.76m0-1.41L497.52,112.2l21.17,21.26,21.26-21.17L518.78,91Z"/><rect x="504.33" y="52.74" width="29" height="29" transform="translate(103.75 385.7) rotate(-44.88)"/><path class="cls-1" d="M518.87,47.44l19.76,19.84L518.79,87,499,67.2l19.84-19.76m0-1.41L497.61,67.2l21.17,21.26L540,67.28,518.87,46Z"/><rect x="458.02" y="682.65" width="29" height="29" transform="translate(-354.23 536.59) rotate(-44.88)"/><path class="cls-1" d="M472.56,677.35l19.76,19.84-19.84,19.76L452.72,697.1l19.84-19.76m0-1.41L451.31,697.1l21.17,21.26,21.26-21.17-21.17-21.26Z"/><rect x="458.11" y="637.65" width="29" height="29" transform="translate(-322.45 523.54) rotate(-44.88)"/><path class="cls-1" d="M472.65,632.35l19.76,19.84-19.84,19.76L452.81,652.1l19.84-19.76m0-1.41L451.4,652.1l21.17,21.26,21.26-21.17-21.17-21.26Z"/><rect x="458.3" y="547.65" width="29" height="29" transform="translate(-258.88 497.45) rotate(-44.88)"/><path class="cls-1" d="M472.84,542.35l19.76,19.84-19.84,19.76L453,562.1l19.84-19.76m0-1.41L451.59,562.1l21.17,21.26L494,562.19l-21.17-21.26Z"/><rect x="458.39" y="502.65" width="29" height="29" transform="translate(-227.1 484.42) rotate(-44.88)"/><path class="cls-1" d="M472.93,497.35l19.76,19.84-19.84,19.76L453.09,517.1l19.84-19.76m0-1.41L451.68,517.1l21.17,21.26,21.26-21.17-21.17-21.26Z"/><rect x="458.49" y="457.65" width="29" height="29" transform="translate(-195.32 471.35) rotate(-44.88)"/><path class="cls-1" d="M473,452.35l19.76,19.84-19.84,19.76L453.19,472.1,473,452.35m0-1.41L451.77,472.1l21.17,21.26,21.26-21.17L473,450.93Z"/><rect x="458.67" y="367.65" width="29" height="29" transform="translate(-131.76 445.25) rotate(-44.88)"/><path class="cls-1" d="M473.21,362.35,493,382.19l-19.84,19.76L453.37,382.1l19.84-19.76m0-1.41L452,382.1l21.17,21.26,21.26-21.17-21.17-21.26Z"/><rect x="458.77" y="322.65" width="29" height="29" transform="translate(-99.98 432.21) rotate(-44.88)"/><path class="cls-1" d="M473.31,317.35l19.76,19.84-19.84,19.76L453.47,337.1l19.84-19.76m0-1.41L452.05,337.1l21.17,21.26,21.26-21.17-21.17-21.26Z"/><rect x="458.86" y="277.65" width="29" height="29" transform="translate(-68.2 419.17) rotate(-44.88)"/><path class="cls-1" d="M473.4,272.35l19.76,19.84-19.84,19.76-19.76-19.84,19.84-19.76m0-1.41L452.15,292.1l21.17,21.26,21.26-21.17L473.4,270.93Z"/><rect x="459.05" y="187.65" width="29" height="29" transform="translate(-4.64 393.06) rotate(-44.88)"/><path class="cls-1" d="M473.59,182.35l19.76,19.84-19.84,19.76-19.76-19.84,19.84-19.76m0-1.41L452.33,202.1l21.17,21.26,21.26-21.17-21.17-21.26Z"/><rect x="459.14" y="142.65" width="29" height="29" transform="translate(27.14 380.01) rotate(-44.88)"/><path class="cls-1" d="M473.68,137.35l19.76,19.84L473.6,176.95l-19.76-19.84,19.84-19.76m0-1.41L452.43,157.1l21.17,21.26,21.26-21.17-21.17-21.26Z"/><rect x="459.23" y="97.65" width="29" height="29" transform="translate(58.92 366.97) rotate(-44.88)"/><path class="cls-1" d="M473.77,92.35l19.76,19.84-19.84,19.76-19.76-19.84,19.84-19.76m0-1.41L452.52,112.1l21.17,21.26,21.26-21.17L473.78,90.93Z"/><rect x="459.42" y="7.65" width="29" height="29" transform="translate(122.48 340.87) rotate(-44.88)"/><path class="cls-1" d="M474,2.35l19.76,19.84L473.88,41.95,454.12,22.11,474,2.35m0-1.41L452.71,22.1l21.17,21.26,21.26-21.17L474,.93Z"/><rect x="593.02" y="682.93" width="29" height="29" transform="translate(-315.08 631.94) rotate(-44.88)"/><path class="cls-1" d="M607.56,677.63l19.76,19.84-19.84,19.76-19.76-19.84,19.84-19.76m0-1.41-21.26,21.17,21.17,21.26,21.26-21.17-21.17-21.26Z"/><rect x="593.21" y="592.93" width="29" height="29" transform="translate(-251.52 605.83) rotate(-44.88)"/><path class="cls-1" d="M607.75,587.63l19.76,19.84-19.84,19.76-19.76-19.84,19.84-19.76m0-1.41-21.26,21.17,21.17,21.26,21.26-21.17-21.17-21.26Z"/><rect x="593.39" y="502.93" width="29" height="29" transform="translate(-187.96 579.74) rotate(-44.88)"/><path class="cls-1" d="M607.93,497.63l19.76,19.84-19.84,19.76-19.76-19.84,19.84-19.76m0-1.41-21.26,21.17,21.17,21.26,21.26-21.17-21.17-21.26Z"/><rect x="593.58" y="412.93" width="29" height="29" transform="translate(-124.39 553.67) rotate(-44.88)"/><path class="cls-1" d="M608.12,407.63l19.76,19.84L608,447.22l-19.76-19.84,19.84-19.76m0-1.41-21.26,21.17L608,448.64l21.26-21.17-21.17-21.26Z"/><rect x="593.77" y="322.93" width="29" height="29" transform="translate(-60.84 527.54) rotate(-44.88)"/><path class="cls-1" d="M608.31,317.63l19.76,19.84-19.84,19.76-19.76-19.84,19.84-19.76m0-1.41-21.26,21.17,21.17,21.26,21.26-21.17-21.17-21.26Z"/><rect x="593.95" y="232.93" width="29" height="29" transform="translate(2.73 501.46) rotate(-44.88)"/><path class="cls-1" d="M608.49,227.63l19.76,19.84-19.84,19.76-19.76-19.84,19.84-19.76m0-1.41-21.26,21.17,21.17,21.26,21.26-21.17L608.5,226.21Z"/><rect x="594.05" y="187.93" width="29" height="29" transform="translate(34.51 488.42) rotate(-44.88)"/><path class="cls-1" d="M608.59,182.63l19.76,19.84L608.5,222.23l-19.76-19.84,19.84-19.76m0-1.41-21.26,21.17,21.17,21.26,21.26-21.17-21.17-21.26Z"/><rect x="594.14" y="142.93" width="29" height="29" transform="translate(66.29 475.35) rotate(-44.88)"/><path class="cls-1" d="M608.68,137.63l19.76,19.84L608.6,177.23l-19.76-19.84,19.84-19.76m0-1.41-21.26,21.17,21.17,21.26,21.26-21.17-21.17-21.26Z"/><rect x="594.33" y="52.93" width="29" height="29" transform="translate(129.85 449.26) rotate(-44.88)"/><path class="cls-1" d="M608.87,47.63l19.76,19.84L608.78,87.23,589,67.39l19.84-19.76m0-1.41L587.61,67.38l21.17,21.26L630,67.47,608.87,46.21Z"/><rect x="594.42" y="7.93" width="29" height="29" transform="translate(161.63 436.21) rotate(-44.88)"/><path class="cls-1" d="M609,2.63l19.76,19.84L608.88,42.23,589.12,22.39,609,2.63m0-1.41L587.71,22.38l21.17,21.26,21.26-21.17L609,1.21Z"/><rect x="548.11" y="637.83" width="29" height="29" transform="translate(-296.35 587.13) rotate(-44.88)"/><path class="cls-1" d="M562.65,632.53l19.76,19.84-19.84,19.76-19.76-19.84,19.84-19.76m0-1.41L541.4,652.29l21.17,21.26,21.26-21.17-21.17-21.26Z"/><rect x="548.21" y="592.83" width="29" height="29" transform="translate(-264.57 574.06) rotate(-44.88)"/><path class="cls-1" d="M562.75,587.53l19.76,19.84-19.84,19.76-19.76-19.84,19.84-19.76m0-1.41-21.26,21.17,21.17,21.26,21.26-21.17-21.17-21.26Z"/><rect x="548.3" y="547.83" width="29" height="29" transform="translate(-232.79 561) rotate(-44.88)"/><path class="cls-1" d="M562.84,542.53l19.76,19.84-19.84,19.76L543,562.29l19.84-19.76m0-1.41-21.26,21.17,21.17,21.26L584,562.38l-21.17-21.26Z"/><rect x="548.49" y="457.83" width="29" height="29" transform="translate(-169.23 534.91) rotate(-44.88)"/><path class="cls-1" d="M563,452.53l19.76,19.84-19.84,19.76-19.76-19.84L563,452.53m0-1.41-21.26,21.17,21.17,21.26,21.26-21.17L563,451.12Z"/><rect x="548.58" y="412.83" width="29" height="29" transform="translate(-137.44 521.89) rotate(-44.88)"/><path class="cls-1" d="M563.12,407.53l19.76,19.84L563,447.13l-19.76-19.84,19.84-19.76m0-1.41-21.26,21.17L563,448.55l21.26-21.17-21.17-21.26Z"/><rect x="548.67" y="367.83" width="29" height="29" transform="translate(-105.66 508.82) rotate(-44.88)"/><path class="cls-1" d="M563.21,362.53,583,382.37l-19.84,19.76-19.76-19.84,19.84-19.76m0-1.41L542,382.29l21.17,21.26,21.26-21.17-21.17-21.26Z"/><rect x="548.86" y="277.83" width="29" height="29" transform="translate(-42.1 482.72) rotate(-44.88)"/><path class="cls-1" d="M563.4,272.53l19.76,19.84-19.84,19.76-19.76-19.84,19.84-19.76m0-1.41-21.26,21.17,21.17,21.26,21.26-21.17L563.4,271.12Z"/><rect x="548.95" y="232.83" width="29" height="29" transform="translate(-10.32 469.67) rotate(-44.88)"/><path class="cls-1" d="M563.49,227.53l19.76,19.84-19.84,19.76-19.76-19.84,19.84-19.76m0-1.41-21.26,21.17,21.17,21.26,21.26-21.17L563.5,226.12Z"/><rect x="549.05" y="187.83" width="29" height="29" transform="translate(21.47 456.64) rotate(-44.88)"/><path class="cls-1" d="M563.59,182.53l19.76,19.84L563.5,222.13l-19.76-19.84,19.84-19.76m0-1.41-21.26,21.17,21.17,21.26,21.26-21.17-21.17-21.26Z"/><rect x="549.23" y="97.83" width="29" height="29" transform="translate(85.02 430.52) rotate(-44.88)"/><path class="cls-1" d="M563.77,92.53l19.76,19.84-19.84,19.76-19.76-19.84,19.84-19.76m0-1.41-21.26,21.17,21.17,21.26,21.26-21.17L563.78,91.12Z"/><rect x="549.33" y="52.83" width="29" height="29" transform="translate(116.8 417.48) rotate(-44.88)"/><path class="cls-1" d="M563.87,47.53l19.76,19.84L563.78,87.13,544,67.29l19.84-19.76m0-1.41L542.61,67.29l21.17,21.26L585,67.38,563.87,46.12Z"/><rect x="549.42" y="7.83" width="29" height="29" transform="translate(148.58 404.43) rotate(-44.88)"/><path class="cls-1" d="M564,2.53l19.76,19.84L563.88,42.13,544.12,22.29,564,2.53m0-1.41L542.71,22.29l21.17,21.26,21.26-21.17L564,1.12Z"/><rect x="683.02" y="683.11" width="29" height="29" transform="translate(-288.99 695.49) rotate(-44.88)"/><path class="cls-1" d="M697.56,677.81l19.76,19.84-19.84,19.76-19.76-19.84,19.84-19.76m0-1.41-21.26,21.17,21.17,21.26,21.26-21.17L697.56,676.4Z"/><rect x="683.21" y="593.11" width="29" height="29" transform="translate(-225.42 669.39) rotate(-44.88)"/><path class="cls-1" d="M697.75,587.81l19.76,19.84-19.84,19.76-19.76-19.84,19.84-19.76m0-1.41-21.26,21.17,21.17,21.26,21.26-21.17L697.75,586.4Z"/><rect x="683.39" y="503.11" width="29" height="29" transform="translate(-161.86 643.31) rotate(-44.88)"/><path class="cls-1" d="M697.93,497.81l19.76,19.84-19.84,19.76-19.76-19.84,19.84-19.76m0-1.41-21.26,21.17,21.17,21.26,21.26-21.17L697.94,496.4Z"/><rect x="683.58" y="413.11" width="29" height="29" transform="translate(-98.3 617.2) rotate(-44.88)"/><path class="cls-1" d="M698.12,407.81l19.76,19.84L698,447.41l-19.76-19.84,19.84-19.76m0-1.41-21.26,21.17L698,448.83l21.26-21.17L698.12,406.4Z"/><rect x="683.77" y="323.11" width="29" height="29" transform="translate(-34.73 591.13) rotate(-44.88)"/><path class="cls-1" d="M698.31,317.81l19.76,19.84-19.84,19.76-19.76-19.84,19.84-19.76m0-1.41-21.26,21.17,21.17,21.26,21.26-21.17L698.31,316.4Z"/><rect x="683.95" y="233.11" width="29" height="29" transform="translate(28.82 565.01) rotate(-44.88)"/><path class="cls-1" d="M698.49,227.81l19.76,19.84-19.84,19.76-19.76-19.84,19.84-19.76m0-1.41-21.26,21.17,21.17,21.26,21.26-21.17L698.5,226.4Z"/><rect x="684.14" y="143.11" width="29" height="29" transform="translate(92.38 538.91) rotate(-44.88)"/><path class="cls-1" d="M698.68,137.81l19.76,19.84L698.6,177.41l-19.76-19.84,19.84-19.76m0-1.41-21.26,21.17,21.17,21.26,21.26-21.17L698.68,136.4Z"/><rect x="684.23" y="98.11" width="29" height="29" transform="translate(124.18 525.89) rotate(-44.88)"/><path class="cls-1" d="M698.77,92.81l19.76,19.84-19.84,19.76-19.76-19.84,19.84-19.76m0-1.41-21.26,21.17,21.17,21.26,21.26-21.17L698.78,91.4Z"/><rect x="684.33" y="53.11" width="29" height="29" transform="translate(155.95 512.82) rotate(-44.88)"/><path class="cls-1" d="M698.87,47.81l19.76,19.84L698.78,87.41,679,67.57l19.84-19.76m0-1.41L677.61,67.57l21.17,21.26L720,67.66,698.87,46.4Z"/><rect x="638.02" y="683.02" width="29" height="29" transform="translate(-302.03 663.72) rotate(-44.88)"/><path class="cls-1" d="M652.56,677.72l19.76,19.84-19.84,19.76-19.76-19.84,19.84-19.76m0-1.41-21.26,21.17,21.17,21.26,21.26-21.17-21.17-21.26Z"/><rect x="638.11" y="638.02" width="29" height="29" transform="translate(-270.25 650.66) rotate(-44.88)"/><path class="cls-1" d="M652.65,632.72l19.76,19.84-19.84,19.76-19.76-19.84,19.84-19.76m0-1.41L631.4,652.47l21.17,21.26,21.26-21.17-21.17-21.26Z"/><rect x="638.3" y="548.02" width="29" height="29" transform="translate(-206.69 624.57) rotate(-44.88)"/><path class="cls-1" d="M652.84,542.72l19.76,19.84-19.84,19.76L633,562.48l19.84-19.76m0-1.41-21.26,21.17,21.17,21.26L674,562.56l-21.17-21.26Z"/><rect x="638.39" y="503.02" width="29" height="29" transform="translate(-174.91 611.53) rotate(-44.88)"/><path class="cls-1" d="M652.93,497.72l19.76,19.84-19.84,19.76-19.76-19.84,19.84-19.76m0-1.41-21.26,21.17,21.17,21.26,21.26-21.17-21.17-21.26Z"/><rect x="638.49" y="458.02" width="29" height="29" transform="translate(-143.13 598.48) rotate(-44.88)"/><path class="cls-1" d="M653,452.72l19.76,19.84-19.84,19.76-19.76-19.84L653,452.72m0-1.41-21.26,21.17,21.17,21.26,21.26-21.17L653,451.31Z"/><rect x="638.67" y="368.02" width="29" height="29" transform="translate(-79.57 572.37) rotate(-44.88)"/><path class="cls-1" d="M653.21,362.72,673,382.56l-19.84,19.76-19.76-19.84,19.84-19.76m0-1.41L632,382.48l21.17,21.26,21.26-21.17-21.17-21.26Z"/><rect x="638.77" y="323.02" width="29" height="29" transform="translate(-47.79 559.33) rotate(-44.88)"/><path class="cls-1" d="M653.31,317.72l19.76,19.84-19.84,19.76-19.76-19.84,19.84-19.76m0-1.41-21.26,21.17,21.17,21.26,21.26-21.17-21.17-21.26Z"/><rect x="638.86" y="278.02" width="29" height="29" transform="translate(-16.01 546.29) rotate(-44.88)"/><path class="cls-1" d="M653.4,272.72l19.76,19.84-19.84,19.76-19.76-19.84,19.84-19.76m0-1.41-21.26,21.17,21.17,21.26,21.26-21.17L653.4,271.31Z"/><rect x="639.05" y="188.02" width="29" height="29" transform="translate(47.55 520.18) rotate(-44.88)"/><path class="cls-1" d="M653.59,182.72l19.76,19.84L653.5,222.32l-19.76-19.84,19.84-19.76m0-1.41-21.26,21.17,21.17,21.26,21.26-21.17-21.17-21.26Z"/><rect x="639.14" y="143.02" width="29" height="29" transform="translate(79.33 507.13) rotate(-44.88)"/><path class="cls-1" d="M653.68,137.72l19.76,19.84L653.6,177.32l-19.76-19.84,19.84-19.76m0-1.41-21.26,21.17,21.17,21.26,21.26-21.17-21.17-21.26Z"/><rect x="639.23" y="98.02" width="29" height="29" transform="translate(111.11 494.09) rotate(-44.88)"/><path class="cls-1" d="M653.77,92.72l19.76,19.84-19.84,19.76-19.76-19.84,19.84-19.76m0-1.41-21.26,21.17,21.17,21.26,21.26-21.17L653.78,91.31Z"/><rect x="639.42" y="8.02" width="29" height="29" transform="translate(174.68 468) rotate(-44.88)"/><path class="cls-1" d="M654,2.72l19.76,19.84L653.88,42.32,634.12,22.48,654,2.72m0-1.41L632.71,22.48l21.17,21.26,21.26-21.17L654,1.31Z"/></g></g></svg>