<svg xmlns="http://www.w3.org/2000/svg" viewBox="0 0 1310.19 1064.91"><defs><style>.cls-1{fill:#436668;}.cls-2{fill:#358930;}.cls-3{fill:#a2c661;}.cls-4{fill:#507777;}.cls-5{fill:#afadaa;}.cls-6{fill:#ede8e6;}.cls-7{fill:#597c7b;}.cls-8{fill:#fff;opacity:0.14;}.cls-9{fill:#345056;}.cls-10{fill:#244044;}.cls-11{fill:#425f63;}.cls-12{fill:#49676b;}.cls-13{fill:#7e9694;}.cls-14{fill:#1e1e1e;}.cls-15{fill:#5b4528;}.cls-16{fill:#134421;}.cls-17{fill:#17602a;}.cls-18{fill:#134733;}.cls-19{fill:#acc96d;}.cls-20{fill:#4f6f70;}.cls-21{fill:#385656;}.cls-22{fill:#42605f;}.cls-23{fill:#4e7575;}.cls-24{fill:#597c7c;}.cls-25{fill:#334f4e;}.cls-26{fill:#4b6867;}.cls-27{fill:#273f3e;}.cls-28{fill:#aed3cc;}</style></defs><title>city_front</title><g id="Layer_2" data-name="Layer 2"><g id="city_front"><g id="TDTowers"><rect id="_Rectangle_" data-name="&lt;Rectangle&gt;" class="cls-1" x="839.5" y="706.53" width="132.04" height="297.34"/><rect id="_Rectangle_2" data-name="&lt;Rectangle&gt;" class="cls-2" x="879.81" y="716.38" width="18.97" height="18.89"/><rect id="_Rectangle_3" data-name="&lt;Rectangle&gt;" class="cls-3" x="839.5" y="750.37" width="132.04" height="9.24"/><rect id="_Rectangle_4" data-name="&lt;Rectangle&gt;" class="cls-4" x="839.5" y="769.77" width="132.04" height="9.24"/><rect id="_Rectangle_5" data-name="&lt;Rectangle&gt;" class="cls-3" x="839.5" y="790.92" width="132.04" height="9.24"/><rect id="_Rectangle_6" data-name="&lt;Rectangle&gt;" class="cls-3" x="839.5" y="810.64" width="132.04" height="9.24"/><rect id="_Rectangle_7" data-name="&lt;Rectangle&gt;" class="cls-4" x="839.5" y="830.3" width="132.04" height="9.24"/><rect id="_Rectangle_8" data-name="&lt;Rectangle&gt;" class="cls-3" x="839.5" y="850.53" width="132.04" height="9.24"/><rect id="_Rectangle_9" data-name="&lt;Rectangle&gt;" class="cls-4" x="839.5" y="870.86" width="132.04" height="9.24"/><rect id="_Rectangle_10" data-name="&lt;Rectangle&gt;" class="cls-4" x="839.5" y="890.57" width="132.04" height="9.24"/><rect id="_Rectangle_11" data-name="&lt;Rectangle&gt;" class="cls-3" x="839.5" y="908.79" width="132.04" height="9.24"/><rect id="_Rectangle_12" data-name="&lt;Rectangle&gt;" class="cls-4" x="839.5" y="929.12" width="132.04" height="9.24"/><rect id="_Rectangle_13" data-name="&lt;Rectangle&gt;" class="cls-4" x="839.5" y="948.84" width="132.04" height="9.24"/><rect id="_Rectangle_14" data-name="&lt;Rectangle&gt;" class="cls-5" x="839.5" y="968.42" width="132.04" height="34.7"/><rect id="_Rectangle_15" data-name="&lt;Rectangle&gt;" class="cls-6" x="866.79" y="977.79" width="73.91" height="26.08"/><rect id="_Rectangle_16" data-name="&lt;Rectangle&gt;" class="cls-7" x="854.54" y="706.53" width="12.25" height="297.34"/><rect id="_Rectangle_17" data-name="&lt;Rectangle&gt;" class="cls-7" x="940.7" y="706.53" width="12.25" height="297.34"/></g><rect id="highlight" class="cls-8" x="839.85" y="707.33" width="100.85" height="264.43"/><rect id="_Path_" data-name="&lt;Path&gt;" class="cls-9" y="603.12" width="100.65" height="289.32"/><rect id="_Rectangle_18" data-name="&lt;Rectangle&gt;" class="cls-10" x="22.8" y="586.61" width="25.16" height="16.51"/><rect id="_Rectangle_19" data-name="&lt;Rectangle&gt;" class="cls-10" x="39.47" y="592.14" width="38.52" height="10.97"/><polygon id="_Path_2" data-name="&lt;Path&gt;" class="cls-11" points="42.62 580.45 42.62 573.04 39.47 573.04 39.47 580.45 31.61 580.45 31.61 602.4 58.34 602.4 58.34 580.45 42.62 580.45"/><rect id="_Rectangle_20" data-name="&lt;Rectangle&gt;" class="cls-12" x="5.63" y="611.57" width="34.9" height="11.4"/><rect id="_Rectangle_21" data-name="&lt;Rectangle&gt;" class="cls-3" x="45.64" y="611.57" width="21.76" height="11.4"/><rect id="_Rectangle_22" data-name="&lt;Rectangle&gt;" class="cls-12" x="5.5" y="628.67" width="34.9" height="11.4"/><rect id="_Rectangle_23" data-name="&lt;Rectangle&gt;" class="cls-12" x="45.51" y="628.67" width="21.76" height="11.4"/><rect id="_Rectangle_24" data-name="&lt;Rectangle&gt;" class="cls-3" x="5.37" y="646.36" width="34.9" height="11.4"/><rect id="_Rectangle_25" data-name="&lt;Rectangle&gt;" class="cls-3" x="45.38" y="646.36" width="21.76" height="11.4"/><rect id="_Rectangle_26" data-name="&lt;Rectangle&gt;" class="cls-3" x="5.24" y="663.46" width="34.9" height="11.4"/><rect id="_Rectangle_27" data-name="&lt;Rectangle&gt;" class="cls-12" x="45.25" y="663.46" width="21.76" height="11.4"/><rect id="_Rectangle_28" data-name="&lt;Rectangle&gt;" class="cls-3" x="5.37" y="680.56" width="34.9" height="11.4"/><rect id="_Rectangle_29" data-name="&lt;Rectangle&gt;" class="cls-3" x="45.38" y="680.56" width="22.08" height="11.4"/><rect id="_Rectangle_30" data-name="&lt;Rectangle&gt;" class="cls-12" x="5.24" y="697.66" width="34.9" height="11.4"/><rect id="_Rectangle_31" data-name="&lt;Rectangle&gt;" class="cls-12" x="45.25" y="697.66" width="22.08" height="11.4"/><rect id="_Rectangle_32" data-name="&lt;Rectangle&gt;" class="cls-3" x="5.5" y="714.95" width="34.9" height="11.4"/><rect id="_Rectangle_33" data-name="&lt;Rectangle&gt;" class="cls-3" x="45.51" y="714.95" width="22.08" height="11.4"/><rect id="_Rectangle_34" data-name="&lt;Rectangle&gt;" class="cls-12" x="5.37" y="732.05" width="34.9" height="11.4"/><rect id="_Rectangle_35" data-name="&lt;Rectangle&gt;" class="cls-3" x="45.38" y="732.05" width="22.08" height="11.4"/><rect id="_Rectangle_36" data-name="&lt;Rectangle&gt;" class="cls-3" x="5.24" y="749.74" width="34.9" height="11.4"/><rect id="_Rectangle_37" data-name="&lt;Rectangle&gt;" class="cls-12" x="45.25" y="749.74" width="22.08" height="11.4"/><rect id="_Rectangle_38" data-name="&lt;Rectangle&gt;" class="cls-3" x="5.11" y="766.84" width="34.9" height="11.4"/><rect id="_Rectangle_39" data-name="&lt;Rectangle&gt;" class="cls-3" x="45.12" y="766.84" width="22.08" height="11.4"/><rect id="_Rectangle_40" data-name="&lt;Rectangle&gt;" class="cls-12" x="5.24" y="783.94" width="34.9" height="11.4"/><rect id="_Rectangle_41" data-name="&lt;Rectangle&gt;" class="cls-3" x="45.25" y="783.94" width="22.08" height="11.4"/><rect id="_Rectangle_42" data-name="&lt;Rectangle&gt;" class="cls-3" x="5.11" y="801.04" width="34.9" height="11.4"/><rect id="_Rectangle_43" data-name="&lt;Rectangle&gt;" class="cls-3" x="45.12" y="801.04" width="22.08" height="11.4"/><rect id="_Rectangle_44" data-name="&lt;Rectangle&gt;" class="cls-3" x="5.24" y="821.09" width="34.9" height="11.4"/><rect id="_Rectangle_45" data-name="&lt;Rectangle&gt;" class="cls-12" x="45.25" y="821.09" width="48.52" height="11.4"/><rect id="_Rectangle_46" data-name="&lt;Rectangle&gt;" class="cls-12" x="5.37" y="838.19" width="34.9" height="11.4"/><rect id="_Rectangle_47" data-name="&lt;Rectangle&gt;" class="cls-3" x="45.38" y="838.19" width="48.52" height="11.4"/><rect id="_Rectangle_48" data-name="&lt;Rectangle&gt;" class="cls-3" x="100.72" y="838.19" width="36.61" height="11.4"/><rect id="_Rectangle_49" data-name="&lt;Rectangle&gt;" class="cls-3" x="5.24" y="855.29" width="34.9" height="11.4"/><rect id="_Rectangle_50" data-name="&lt;Rectangle&gt;" class="cls-3" x="45.25" y="855.29" width="48.52" height="11.4"/><rect id="_Rectangle_51" data-name="&lt;Rectangle&gt;" class="cls-3" x="100.59" y="855.29" width="36.61" height="11.4"/><rect id="_Rectangle_52" data-name="&lt;Rectangle&gt;" class="cls-3" x="5.31" y="872.58" width="34.9" height="11.4"/><rect id="_Rectangle_53" data-name="&lt;Rectangle&gt;" class="cls-3" x="45.32" y="872.58" width="48.52" height="11.4"/><rect id="_Rectangle_54" data-name="&lt;Rectangle&gt;" class="cls-3" x="100.65" y="872.58" width="36.61" height="11.4"/><rect id="highlight-2" data-name="highlight" class="cls-8" y="602.8" width="42.84" height="335.92"/><rect id="_Path_3" data-name="&lt;Path&gt;" class="cls-9" x="91.11" y="677.72" width="142.56" height="289.32"/><rect id="_Rectangle_55" data-name="&lt;Rectangle&gt;" class="cls-10" x="113.91" y="661.21" width="25.16" height="16.51"/><rect id="_Rectangle_56" data-name="&lt;Rectangle&gt;" class="cls-10" x="176.8" y="666.75" width="38.52" height="10.97"/><polygon id="_Path_4" data-name="&lt;Path&gt;" class="cls-11" points="168.15 655.78 168.15 648.37 165.01 648.37 165.01 655.78 157.15 655.78 157.15 677.72 183.88 677.72 183.88 655.78 168.15 655.78"/><rect id="_Rectangle_57" data-name="&lt;Rectangle&gt;" class="cls-12" x="96.74" y="686.17" width="34.9" height="11.4"/><rect id="_Rectangle_58" data-name="&lt;Rectangle&gt;" class="cls-3" x="136.75" y="686.17" width="48.52" height="11.4"/><rect id="_Rectangle_59" data-name="&lt;Rectangle&gt;" class="cls-12" x="192.08" y="686.17" width="36.61" height="11.4"/><rect id="_Rectangle_60" data-name="&lt;Rectangle&gt;" class="cls-12" x="96.61" y="703.27" width="34.9" height="11.4"/><rect id="_Rectangle_61" data-name="&lt;Rectangle&gt;" class="cls-12" x="136.62" y="703.27" width="48.52" height="11.4"/><rect id="_Rectangle_62" data-name="&lt;Rectangle&gt;" class="cls-3" x="191.95" y="703.27" width="36.61" height="11.4"/><rect id="_Rectangle_63" data-name="&lt;Rectangle&gt;" class="cls-3" x="96.48" y="720.96" width="34.9" height="11.4"/><rect id="_Rectangle_64" data-name="&lt;Rectangle&gt;" class="cls-3" x="136.49" y="720.96" width="48.52" height="11.4"/><rect id="_Rectangle_65" data-name="&lt;Rectangle&gt;" class="cls-12" x="191.82" y="720.96" width="36.61" height="11.4"/><rect id="_Rectangle_66" data-name="&lt;Rectangle&gt;" class="cls-3" x="96.35" y="738.06" width="34.9" height="11.4"/><rect id="_Rectangle_67" data-name="&lt;Rectangle&gt;" class="cls-12" x="136.36" y="738.06" width="48.52" height="11.4"/><rect id="_Rectangle_68" data-name="&lt;Rectangle&gt;" class="cls-3" x="191.69" y="738.06" width="36.61" height="11.4"/><rect id="_Rectangle_69" data-name="&lt;Rectangle&gt;" class="cls-3" x="96.48" y="755.16" width="34.9" height="11.4"/><rect id="_Rectangle_70" data-name="&lt;Rectangle&gt;" class="cls-3" x="136.49" y="755.16" width="48.52" height="11.4"/><rect id="_Rectangle_71" data-name="&lt;Rectangle&gt;" class="cls-3" x="191.82" y="755.16" width="36.61" height="11.4"/><rect id="_Rectangle_72" data-name="&lt;Rectangle&gt;" class="cls-12" x="96.35" y="772.26" width="34.9" height="11.4"/><rect id="_Rectangle_73" data-name="&lt;Rectangle&gt;" class="cls-12" x="136.36" y="772.26" width="48.52" height="11.4"/><rect id="_Rectangle_74" data-name="&lt;Rectangle&gt;" class="cls-12" x="191.69" y="772.26" width="36.61" height="11.4"/><rect id="_Rectangle_75" data-name="&lt;Rectangle&gt;" class="cls-3" x="96.61" y="789.56" width="34.9" height="11.4"/><rect id="_Rectangle_76" data-name="&lt;Rectangle&gt;" class="cls-3" x="136.62" y="789.56" width="48.52" height="11.4"/><rect id="_Rectangle_77" data-name="&lt;Rectangle&gt;" class="cls-3" x="191.95" y="789.56" width="36.61" height="11.4"/><rect id="_Rectangle_78" data-name="&lt;Rectangle&gt;" class="cls-12" x="96.48" y="806.66" width="34.9" height="11.4"/><rect id="_Rectangle_79" data-name="&lt;Rectangle&gt;" class="cls-3" x="136.49" y="806.66" width="48.52" height="11.4"/><rect id="_Rectangle_80" data-name="&lt;Rectangle&gt;" class="cls-12" x="191.82" y="806.66" width="36.61" height="11.4"/><rect id="_Rectangle_81" data-name="&lt;Rectangle&gt;" class="cls-3" x="96.35" y="824.35" width="34.9" height="11.4"/><rect id="_Rectangle_82" data-name="&lt;Rectangle&gt;" class="cls-12" x="136.36" y="824.35" width="48.52" height="11.4"/><rect id="_Rectangle_83" data-name="&lt;Rectangle&gt;" class="cls-3" x="191.69" y="824.35" width="36.61" height="11.4"/><rect id="_Rectangle_84" data-name="&lt;Rectangle&gt;" class="cls-3" x="96.22" y="841.45" width="34.9" height="11.4"/><rect id="_Rectangle_85" data-name="&lt;Rectangle&gt;" class="cls-3" x="136.23" y="841.45" width="48.52" height="11.4"/><rect id="_Rectangle_86" data-name="&lt;Rectangle&gt;" class="cls-3" x="191.56" y="841.45" width="36.61" height="11.4"/><rect id="_Rectangle_87" data-name="&lt;Rectangle&gt;" class="cls-12" x="96.35" y="858.55" width="34.9" height="11.4"/><rect id="_Rectangle_88" data-name="&lt;Rectangle&gt;" class="cls-3" x="136.36" y="858.55" width="48.52" height="11.4"/><rect id="_Rectangle_89" data-name="&lt;Rectangle&gt;" class="cls-12" x="191.69" y="858.55" width="36.61" height="11.4"/><rect id="_Rectangle_90" data-name="&lt;Rectangle&gt;" class="cls-3" x="96.22" y="875.65" width="34.9" height="11.4"/><rect id="_Rectangle_91" data-name="&lt;Rectangle&gt;" class="cls-3" x="136.23" y="875.65" width="48.52" height="11.4"/><rect id="_Rectangle_92" data-name="&lt;Rectangle&gt;" class="cls-3" x="191.56" y="875.65" width="36.61" height="11.4"/><rect id="_Rectangle_93" data-name="&lt;Rectangle&gt;" class="cls-3" x="96.35" y="895.7" width="34.9" height="11.4"/><rect id="_Rectangle_94" data-name="&lt;Rectangle&gt;" class="cls-12" x="136.36" y="895.7" width="48.52" height="11.4"/><rect id="_Rectangle_95" data-name="&lt;Rectangle&gt;" class="cls-3" x="191.69" y="895.7" width="36.61" height="11.4"/><rect id="_Rectangle_96" data-name="&lt;Rectangle&gt;" class="cls-12" x="96.48" y="912.79" width="34.9" height="11.4"/><rect id="_Rectangle_97" data-name="&lt;Rectangle&gt;" class="cls-3" x="136.49" y="912.79" width="48.52" height="11.4"/><rect id="_Rectangle_98" data-name="&lt;Rectangle&gt;" class="cls-3" x="191.82" y="912.79" width="36.61" height="11.4"/><rect id="_Rectangle_99" data-name="&lt;Rectangle&gt;" class="cls-3" x="96.35" y="929.89" width="34.9" height="11.4"/><rect id="_Rectangle_100" data-name="&lt;Rectangle&gt;" class="cls-3" x="136.36" y="929.89" width="48.52" height="11.4"/><rect id="_Rectangle_101" data-name="&lt;Rectangle&gt;" class="cls-3" x="191.69" y="929.89" width="36.61" height="11.4"/><rect id="_Rectangle_102" data-name="&lt;Rectangle&gt;" class="cls-3" x="96.41" y="947.19" width="34.9" height="11.4"/><rect id="_Rectangle_103" data-name="&lt;Rectangle&gt;" class="cls-3" x="136.42" y="947.19" width="48.52" height="11.4"/><rect id="_Rectangle_104" data-name="&lt;Rectangle&gt;" class="cls-3" x="191.76" y="947.19" width="36.61" height="11.4"/><rect id="highlight-3" data-name="highlight" class="cls-8" x="90.56" y="678.84" width="94.71" height="335.92"/><g id="TDTowers-2" data-name="TDTowers"><rect id="_Rectangle_105" data-name="&lt;Rectangle&gt;" class="cls-1" x="983.15" y="652.37" width="132.04" height="299.1"/><rect id="_Rectangle_106" data-name="&lt;Rectangle&gt;" class="cls-2" x="1023.46" y="662.29" width="18.97" height="19"/><rect id="_Rectangle_107" data-name="&lt;Rectangle&gt;" class="cls-4" x="983.15" y="696.47" width="132.04" height="9.3"/><rect id="_Rectangle_108" data-name="&lt;Rectangle&gt;" class="cls-4" x="983.15" y="715.99" width="132.04" height="9.3"/><rect id="_Rectangle_109" data-name="&lt;Rectangle&gt;" class="cls-3" x="983.15" y="737.27" width="132.04" height="9.3"/><rect id="_Rectangle_110" data-name="&lt;Rectangle&gt;" class="cls-4" x="983.15" y="757.1" width="132.04" height="9.3"/><rect id="_Rectangle_111" data-name="&lt;Rectangle&gt;" class="cls-3" x="983.15" y="776.88" width="132.04" height="9.3"/><rect id="_Rectangle_112" data-name="&lt;Rectangle&gt;" class="cls-3" x="983.15" y="797.22" width="132.04" height="9.3"/><rect id="_Rectangle_113" data-name="&lt;Rectangle&gt;" class="cls-4" x="983.15" y="817.67" width="132.04" height="9.3"/><rect id="_Rectangle_114" data-name="&lt;Rectangle&gt;" class="cls-3" x="983.15" y="837.5" width="132.04" height="9.3"/><rect id="_Rectangle_115" data-name="&lt;Rectangle&gt;" class="cls-4" x="983.15" y="855.84" width="132.04" height="9.3"/><rect id="_Rectangle_116" data-name="&lt;Rectangle&gt;" class="cls-3" x="983.15" y="876.28" width="132.04" height="9.3"/><rect id="_Rectangle_117" data-name="&lt;Rectangle&gt;" class="cls-3" x="983.15" y="896.11" width="132.04" height="9.3"/><rect id="_Rectangle_118" data-name="&lt;Rectangle&gt;" class="cls-4" x="983.15" y="915.81" width="132.04" height="34.91"/><rect id="_Rectangle_119" data-name="&lt;Rectangle&gt;" class="cls-13" x="1010.44" y="925.24" width="73.91" height="26.23"/><rect id="_Rectangle_120" data-name="&lt;Rectangle&gt;" class="cls-7" x="998.19" y="652.37" width="12.25" height="299.1"/><rect id="_Rectangle_121" data-name="&lt;Rectangle&gt;" class="cls-7" x="1084.35" y="652.37" width="12.25" height="299.1"/></g><rect id="highlight-4" data-name="highlight" class="cls-8" x="982.86" y="654.54" width="27.15" height="264.43"/><g id="rbc"><polyline id="_Path_5" data-name="&lt;Path&gt;" class="cls-11" points="1310.19 914 1310.19 670 1106.19 670 1106.19 993 1309.43 993 1310.19 993"/><rect id="_Rectangle_122" data-name="&lt;Rectangle&gt;" class="cls-10" x="1145.15" y="635.25" width="120.55" height="34.89"/><rect id="_Rectangle_123" data-name="&lt;Rectangle&gt;" class="cls-3" x="1106.18" y="692.24" width="203.72" height="10.36"/><rect id="_Rectangle_124" data-name="&lt;Rectangle&gt;" class="cls-14" x="1195.31" y="639.74" width="18.36" height="24.19"/><rect id="_Rectangle_125" data-name="&lt;Rectangle&gt;" class="cls-4" x="1106.18" y="715.51" width="203.72" height="10.36"/><rect id="_Rectangle_126" data-name="&lt;Rectangle&gt;" class="cls-4" x="1106.18" y="739.17" width="203.72" height="10.36"/><rect id="_Rectangle_127" data-name="&lt;Rectangle&gt;" class="cls-3" x="1106.18" y="763.37" width="203.72" height="10.36"/><rect id="_Rectangle_128" data-name="&lt;Rectangle&gt;" class="cls-4" x="1106.18" y="786.75" width="203.72" height="10.36"/><rect id="_Rectangle_129" data-name="&lt;Rectangle&gt;" class="cls-3" x="1106.18" y="810.01" width="203.72" height="10.36"/><rect id="_Rectangle_130" data-name="&lt;Rectangle&gt;" class="cls-4" x="1106.18" y="833.17" width="203.72" height="10.36"/><rect id="_Rectangle_131" data-name="&lt;Rectangle&gt;" class="cls-3" x="1106.18" y="857.36" width="203.72" height="10.36"/><rect id="_Rectangle_132" data-name="&lt;Rectangle&gt;" class="cls-3" x="1106.18" y="881.14" width="203.72" height="10.36"/><rect id="_Rectangle_133" data-name="&lt;Rectangle&gt;" class="cls-3" x="1106.18" y="905.33" width="203.72" height="10.36"/></g><rect class="cls-8" x="1106.18" y="670.33" width="152.24" height="326.46"/><path class="cls-15" d="M241.79,848.85s-.49-11.15.47-13.33c0,0,.68,4.69,0,6.92,0,0,4.66-5.84,4.54-5.93s-.65,1.63-.65,1.63-2.86,3.58-3.07,5.2A46.63,46.63,0,0,1,241.79,848.85Z"/><g id="_Group_" data-name="&lt;Group&gt;"><path class="cls-16" d="M276.65,830.88s-2.68-4.32-5-4c0,0,1.53-5.77-4.59-6.85,0,0-3.07-14.05-14.55-2.16,0,0-10.34-13.52-16.08-4.78,0,0-10.34,2.26-7.28,11.27,0,0-10.72.72-9.95,8.29,0,0-5.75,1.08-3.83,10.45,0,0-6.51,3.6-6.51,10.09,0,0-9.19-6.85-13.4,0,0,0-16.85,2.88-13.4,20.54,0,0-4.6,5.41,3.06,10.1,0,0,1.92,8.29,6.51,8.65,0,0,1.91,7.21,12.63,4.32,0,0,3.45,6.13,6.51,8.65,0,0,0,8.65,3.07,10.81s6.12,7.21,10.72,7.21,6.12,9,16.84-4.32c0,0,9.19,6.49,16.47-6.49,0,0,9.57-.36,11.1-6.13,0,0,9.57-7.21,9.57-11.89,0,0,11.87-6.13,9.57-19.1,0,0,8.25-16.94.3-20.91,0,0,2-12.25-3.36-11.53C285.07,843.14,285.07,827.64,276.65,830.88Z"/><path class="cls-17" d="M259,824.9s3.79-10.2-4-8.93c0,0-4.77,6.25-4,8.93C251,824.9,251.81,831.64,259,824.9Z"/><path class="cls-17" d="M276,837.66s3-7.4-2-7.15-6.41,2.56-8.1,5.36c0,0-4.73,1.79-5.4,4.34,0,0-7.31-4.59-10.07,4.85,0,0-9.39,7.92,0,12.51,0,0,6,1,7.37-2.81s3.11-4.59,4.59.26c0,0-1.82,3.32,0,3.83,0,0-2.91,6.89,3.85,6.89s8.1-4.6,6.41-7.15c0,0,2.7-3.32,2.7-5.61,0,0,5.86-4.6,1.58-8.94C276.9,844,279.71,837.15,276,837.66Z"/><path class="cls-15" d="M259.94,839.45s1.9-12.39,1.9-14.62.77-7.59,1.54-7.84-.59,7.88-.77,11.23S259.94,839.45,259.94,839.45Z"/><polygon class="cls-15" points="273.87 828.66 272.66 832.73 272.36 834.4 276.26 826 273.87 828.66"/><path class="cls-15" d="M256.74,858.59s3.73-13,3.22-16.59a15.31,15.31,0,0,0-1.59,6.89s-4.45-9.35-4.27-9.44l-.18.09s1.48,8.57,3,10.37S256.74,858.59,256.74,858.59Z"/><path class="cls-15" d="M269.76,853s-2.34,13.78-5.39,19.91c0,0-2-2.3-1.51-7.15,0,0-1.83,4.08,1.51,10C264.37,875.69,271.29,859.36,269.76,853Z"/><path class="cls-17" d="M242.76,818.52s1.34-7.69-2.49-7.21l-3.82.47s-10,2.4-7.28,12c0,0-6.89,4.79-7.66,10.53a10.38,10.38,0,0,0-6.12,9.38s-8.62,3.06-6.13,11.68c0,0-6.51-2.49-7.46-1.73s-5-.57-5.36,1.73a26.14,26.14,0,0,0-4.3.12c-.57.26-7,3.71-5.66,9.64s3.26,3,3.26-.89c0,0,4,2,4.21-1.41,0,0,12.63,5.94,12.06-3.25,0,0,3.83-3.06,5-3.83s3.83,2.3,5-2.49c0,0,6.32-1.72,3.45,3.83,0,0-1.53,8.42,3.64,8.23s5.74-2.1,6.7-2.49,3.06-2.17,3.06,1.41,3.64,6.83,7.66,2.81c0,0,6.7-3.07,3.44-7.85,0,0,3.64-8-4-6.7,0,0-4.69,5.61-2.82-1a6.27,6.27,0,0,0,1.67-7.22s6.9,1.07,7.09-4.15c0,0,6.34-9.05,5.08-10.2,0,0,1.43-10-7.19-4.41C243.72,825.47,249.08,817.69,242.76,818.52Z"/><path class="cls-18" d="M232.62,830.51h6.31s-1.72,3.06-3.15,3.89-5.27,5.05-4.31,3.33C232.82,835.29,235.11,831.52,232.62,830.51Z"/><polygon class="cls-15" points="195.53 857.31 195.14 853.08 194.79 851.41 194.3 860.67 195.53 857.31"/><path class="cls-15" d="M253.92,870.84s-2.35,5.56-2,7.85-1.91,7.09-3.25,2.11-7.75-20-7-24.76,1.29-4.63,1.29-4.63c-.29,7.52-.63,6.28-.39,7.18.58,2.11,5.19,13.37,5.19,13.37s3.26-4.63,3.15-6.22c0,0,.47-.45-2.79,7.78l1.92,4.41S251.86,869.12,253.92,870.84Z"/><path class="cls-15" d="M249.3,888.84s-3.81,51.31-5.08,58.58,0,31.4,0,31.4h3.55l3.14-62s14.74-10.34,15.26-14.17c0,0-14.63,10.34-16.62,10.34C249.55,913,251.81,888.84,249.3,888.84Z"/><path class="cls-17" d="M264.07,879.78s-1-6.13-4.81-2,.69,6.91,3,5.24S264.07,879.78,264.07,879.78Z"/><path class="cls-15" d="M272.36,868.55s-2.35,13.8-4.9,14.43C267.46,883,273.68,885.88,272.36,868.55Z"/><polygon class="cls-15" points="236.3 815.86 233 811.72 231.47 810.19 237.07 820.05 236.3 815.86"/><polygon class="cls-15" points="279.55 895.46 285.78 890.51 288.03 888.31 272.78 897.45 279.55 895.46"/><path class="cls-15" d="M241.67,898.67s-7.92-23.23-8.93-23.1S221,868.65,220,867.2s-.78,4.41,10.84,10.54l-11.22,1,11,1.14s3.37,3.2,3.64,5.49-8.42-.25-8.42-.25.68,2.55,9.28,3.7l6.54,11.1"/><path class="cls-17" d="M220,900.5s6.66,4.43,7.4-.58-1.24-6.79-3.66-9c0,0-.82-5-3.19-6.15,0,0,5.95-6.26-2.77-10.82,0,0-5.91-10.77-12.26-2.47,0,0-2.19,5.7,1.3,7.78s3.89,4-1.16,4.45c0,0-2.89-2.43-3.75-.75,0,0-6.18-4.21-7.51,2.41s2.91,8.85,5.74,7.7c0,0,2.72,3.3,5,3.75,0,0,3.35,6.65,8.44,3.31C213.53,900.13,219.74,904.24,220,900.5Z"/></g><g id="_Group_2" data-name="&lt;Group&gt;"><path id="_Path_6" data-name="&lt;Path&gt;" class="cls-16" d="M993.65,895s-3.08-5-5.72-4.56c0,0,1.76-6.62-5.28-7.86,0,0-3.52-16.15-16.72-2.49,0,0-11.87-15.53-18.47-5.49,0,0-11.88,2.59-8.36,13,0,0-12.31.82-11.43,9.52,0,0-6.6,1.24-4.4,12,0,0-7.48,4.14-7.48,11.59,0,0-10.56-7.87-15.4,0,0,0-19.35,3.31-15.39,23.6,0,0-5.28,6.22,3.52,11.6,0,0,2.2,9.52,7.48,9.94,0,0,2.19,8.28,14.51,5,0,0,4,7,7.48,9.94,0,0,0,9.94,3.52,12.42s7,8.29,12.31,8.29,7,10.35,19.36-5c0,0,10.56,7.45,18.91-7.46,0,0,11-.41,12.76-7,0,0,11-8.28,11-13.66,0,0,13.63-7,11-22,0,0,9.48-19.46.34-24,0,0,2.3-14.08-3.86-13.25C1003.32,909,1003.32,891.23,993.65,895Z"/><path id="_Path_7" data-name="&lt;Path&gt;" class="cls-17" d="M973.41,888.08s4.37-11.71-4.63-10.25c0,0-5.48,7.17-4.6,10.25C964.18,888.08,965.12,895.83,973.41,888.08Z"/><path id="_Path_8" data-name="&lt;Path&gt;" class="cls-17" d="M992.89,902.75s3.5-8.51-2.32-8.22-7.37,2.94-9.31,6.16c0,0-5.43,2.06-6.2,5,0,0-8.4-5.28-11.57,5.57,0,0-10.79,9.09,0,14.37,0,0,6.91,1.17,8.46-3.23s3.58-5.28,5.28.3c0,0-2.09,3.81,0,4.39,0,0-3.34,7.92,4.42,7.92s9.31-5.28,7.37-8.21c0,0,3.1-3.81,3.1-6.45,0,0,6.73-5.28,1.81-10.26C993.93,910.08,997.16,902.16,992.89,902.75Z"/><path id="_Path_9" data-name="&lt;Path&gt;" class="cls-15" d="M974.46,904.8s2.18-14.23,2.18-16.79.88-8.72,1.76-9-.67,9.06-.88,12.91S974.46,904.8,974.46,904.8Z"/><polygon id="_Path_10" data-name="&lt;Path&gt;" class="cls-15" points="990.45 892.4 989.07 897.07 988.72 899 993.2 889.35 990.45 892.4"/><path id="_Path_11" data-name="&lt;Path&gt;" class="cls-15" d="M970.77,926.79s4.29-14.9,3.7-19.06a17.5,17.5,0,0,0-1.82,7.91s-5.12-10.74-4.9-10.84-.22.1-.22.1,1.7,9.85,3.5,11.92S970.77,926.79,970.77,926.79Z"/><path id="_Path_12" data-name="&lt;Path&gt;" class="cls-15" d="M985.73,920.34s-2.69,15.84-6.18,22.87c0,0-2.33-2.64-1.74-8.21,0,0-2.1,4.69,1.74,11.44C979.55,946.44,987.49,927.67,985.73,920.34Z"/><path id="_Path_13" data-name="&lt;Path&gt;" class="cls-17" d="M954.72,880.75s1.54-8.83-2.86-8.28l-4.4.54s-11.44,2.76-8.36,13.75c0,0-7.91,5.5-8.79,12.1,0,0-7,2.86-7,10.78,0,0-9.9,3.52-7,13.41,0,0-7.48-2.86-8.58-2s-5.72-.66-6.16,2a29.92,29.92,0,0,0-4.94.15c-.65.29-8,4.25-6.49,11.07s3.74,3.45,3.74-1c0,0,4.61,2.35,4.83-1.61,0,0,14.52,6.82,13.86-3.74,0,0,4.4-3.52,5.72-4.4s4.4,2.64,5.72-2.86c0,0,7.26-2,4,4.4,0,0-1.76,9.68,4.17,9.46s6.6-2.42,7.7-2.86,3.52-2.49,3.52,1.61,4.18,7.85,8.8,3.23c0,0,7.7-3.52,4-9,0,0,4.18-9.24-4.62-7.7,0,0-5.4,6.46-3.25-1.17a7.19,7.19,0,0,0,1.93-8.28s7.92,1.22,8.14-4.78c0,0,7.28-10.4,5.84-11.72,0,0,1.63-11.43-8.26-5.06C955.82,888.74,962,879.8,954.72,880.75Z"/><path id="_Path_14" data-name="&lt;Path&gt;" class="cls-18" d="M943.06,894.53h7.26s-2,3.52-3.63,4.47-6.05,5.8-5,3.82C943.3,900,945.92,895.69,943.06,894.53Z"/><path id="_Path_15" data-name="&lt;Path&gt;" class="cls-15" d="M953.6,915.6s-.56-12.81.54-15.32c0,0,.78,5.39,0,8,0,0,5.36-6.71,5.22-6.81s-.74,1.86-.74,1.86-3.29,4.12-3.53,6A53.13,53.13,0,0,1,953.6,915.6Z"/><polygon id="_Path_16" data-name="&lt;Path&gt;" class="cls-15" points="900.46 925.32 900 920.46 899.61 918.54 899.04 929.18 900.46 925.32"/><path id="_Path_17" data-name="&lt;Path&gt;" class="cls-15" d="M967.53,940.87s-2.7,6.38-2.26,9-2.19,8.14-3.73,2.42-8.9-23-8.08-28.44,1.48-5.32,1.48-5.32c-.33,8.64-.72,7.22-.44,8.25.66,2.42,6,15.36,6,15.36s3.75-5.31,3.63-7.15c0,0,.53-.51-3.2,9l2.2,5.06S965.17,938.89,967.53,940.87Z"/><path id="_Path_18" data-name="&lt;Path&gt;" class="cls-15" d="M962.23,961.54s-4.38,58.94-5.83,67.3,0,36.07,0,36.07h4.07l3.61-71.26s16.93-11.87,17.53-16.27c0,0-16.81,11.87-19.1,11.87C962.51,989.25,965.11,961.54,962.23,961.54Z"/><path id="_Path_19" data-name="&lt;Path&gt;" class="cls-17" d="M979.2,951.13s-1.17-7-5.53-2.34.8,7.94,3.5,6S979.2,951.13,979.2,951.13Z"/><path id="_Path_20" data-name="&lt;Path&gt;" class="cls-15" d="M988.72,938.23s-2.7,15.86-5.63,16.58C983.09,954.81,990.24,958.14,988.72,938.23Z"/><polygon id="_Path_21" data-name="&lt;Path&gt;" class="cls-15" points="947.29 877.7 943.5 872.94 941.74 871.18 948.17 882.51 947.29 877.7"/><polygon id="_Path_22" data-name="&lt;Path&gt;" class="cls-15" points="996.98 969.15 1004.14 963.46 1006.72 960.94 989.2 971.43 996.98 969.15"/><path id="_Path_23" data-name="&lt;Path&gt;" class="cls-15" d="M953.46,972.83s-9.1-26.68-10.26-26.54-13.48-7.94-14.65-9.61-.9,5.07,12.45,12.11L928.11,950l12.67,1.31s3.87,3.67,4.18,6.31-9.67-.29-9.67-.29.78,2.93,10.65,4.25l7.52,12.76"/><path id="_Path_24" data-name="&lt;Path&gt;" class="cls-17" d="M928.53,974.93s7.65,5.1,8.51-.66-1.43-7.8-4.21-10.34c0,0-.94-5.72-3.66-7.06,0,0,6.82-7.2-3.19-12.44,0,0-6.79-12.37-14.09-2.83,0,0-2.51,6.55,1.5,8.94s4.47,4.54-1.33,5.11c0,0-3.32-2.8-4.31-.86,0,0-7.11-4.84-8.63,2.77s3.34,10.16,6.6,8.84c0,0,3.12,3.79,5.71,4.31,0,0,3.85,7.64,9.71,3.8C921.14,974.51,928.26,979.23,928.53,974.93Z"/></g><g id="_Group_3" data-name="&lt;Group&gt;"><polygon id="_Path_25" data-name="&lt;Path&gt;" class="cls-1" points="501 1003.48 501 675.52 495.48 675.52 495.48 601.62 491.55 601.62 491.55 638.61 485.24 637.65 485.24 667.93 407.87 667.93 407.87 657.54 397.63 657.54 397.63 1003.48 501 1003.48"/><g id="building2"><rect id="_Path_26" data-name="&lt;Path&gt;" class="cls-19" x="409.14" y="696.71" width="12.52" height="11.7"/><rect id="_Path_27" data-name="&lt;Path&gt;" class="cls-20" x="431.66" y="696.71" width="12.52" height="11.7"/><rect id="_Path_28" data-name="&lt;Path&gt;" class="cls-20" x="476.97" y="696.71" width="12.52" height="11.7"/><rect id="_Path_29" data-name="&lt;Path&gt;" class="cls-20" x="409.86" y="725.21" width="12.52" height="11.7"/><rect id="_Path_30" data-name="&lt;Path&gt;" class="cls-19" x="432.38" y="725.21" width="12.52" height="11.7"/><rect id="_Path_31" data-name="&lt;Path&gt;" class="cls-19" x="409.86" y="753.91" width="12.52" height="11.7"/><rect id="_Path_32" data-name="&lt;Path&gt;" class="cls-19" x="454.9" y="753.91" width="12.52" height="11.7"/><rect id="_Path_33" data-name="&lt;Path&gt;" class="cls-19" x="409.86" y="782.61" width="12.52" height="11.7"/><rect id="_Path_34" data-name="&lt;Path&gt;" class="cls-19" x="409.14" y="811.91" width="12.52" height="11.7"/><rect id="_Path_35" data-name="&lt;Path&gt;" class="cls-19" x="432.38" y="782.73" width="12.52" height="11.7"/><rect id="_Path_36" data-name="&lt;Path&gt;" class="cls-20" x="454.9" y="782.73" width="12.52" height="11.7"/><rect id="_Path_37" data-name="&lt;Path&gt;" class="cls-20" x="454.9" y="696.71" width="12.52" height="11.7"/><rect id="_Path_38" data-name="&lt;Path&gt;" class="cls-20" x="433.1" y="811.23" width="12.52" height="11.7"/><rect id="_Path_39" data-name="&lt;Path&gt;" class="cls-20" x="455.62" y="810.23" width="12.52" height="11.7"/><rect id="_Path_40" data-name="&lt;Path&gt;" class="cls-20" x="454.9" y="725.21" width="12.52" height="11.7"/><rect id="_Path_41" data-name="&lt;Path&gt;" class="cls-19" x="478.14" y="725.21" width="12.52" height="11.7"/><rect id="_Path_42" data-name="&lt;Path&gt;" class="cls-20" x="432.38" y="753.91" width="12.52" height="11.7"/><rect id="_Path_43" data-name="&lt;Path&gt;" class="cls-20" x="478.14" y="753.91" width="12.52" height="11.7"/><rect id="_Path_44" data-name="&lt;Path&gt;" class="cls-20" x="477.78" y="782.45" width="12.52" height="11.7"/><rect id="_Path_45" data-name="&lt;Path&gt;" class="cls-19" x="478.5" y="809.95" width="12.52" height="11.7"/><rect id="_Path_46" data-name="&lt;Path&gt;" class="cls-20" x="410.06" y="836.35" width="12.52" height="11.7"/><rect id="_Path_47" data-name="&lt;Path&gt;" class="cls-20" x="432.58" y="836.35" width="12.52" height="11.7"/><rect id="_Path_48" data-name="&lt;Path&gt;" class="cls-20" x="477.9" y="836.35" width="12.52" height="11.7"/><rect id="_Path_49" data-name="&lt;Path&gt;" class="cls-19" x="410.78" y="864.85" width="12.52" height="11.7"/><rect id="_Path_50" data-name="&lt;Path&gt;" class="cls-20" x="433.31" y="864.85" width="12.52" height="11.7"/><rect id="_Path_51" data-name="&lt;Path&gt;" class="cls-19" x="455.83" y="836.35" width="12.52" height="11.7"/><rect id="_Path_52" data-name="&lt;Path&gt;" class="cls-20" x="455.83" y="864.85" width="12.52" height="11.7"/><rect id="_Path_53" data-name="&lt;Path&gt;" class="cls-19" x="479.07" y="864.85" width="12.52" height="11.7"/><rect id="_Path_54" data-name="&lt;Path&gt;" class="cls-20" x="410.78" y="892.63" width="12.52" height="11.7"/><rect id="_Path_55" data-name="&lt;Path&gt;" class="cls-20" x="433.31" y="892.63" width="12.52" height="11.7"/><rect id="_Path_56" data-name="&lt;Path&gt;" class="cls-20" x="478.62" y="892.63" width="12.52" height="11.7"/><rect id="_Path_57" data-name="&lt;Path&gt;" class="cls-20" x="411.5" y="921.13" width="12.52" height="11.7"/><rect id="_Path_58" data-name="&lt;Path&gt;" class="cls-20" x="434.03" y="921.13" width="12.52" height="11.7"/><rect id="_Path_59" data-name="&lt;Path&gt;" class="cls-19" x="456.55" y="892.63" width="12.52" height="11.7"/><rect id="_Path_60" data-name="&lt;Path&gt;" class="cls-19" x="456.55" y="921.13" width="12.52" height="11.7"/><rect id="_Path_61" data-name="&lt;Path&gt;" class="cls-19" x="479.79" y="921.13" width="12.52" height="11.7"/><rect id="_Path_62" data-name="&lt;Path&gt;" class="cls-19" x="411.5" y="947.16" width="12.52" height="11.7"/><rect id="_Path_63" data-name="&lt;Path&gt;" class="cls-20" x="434.03" y="947.16" width="12.52" height="11.7"/><rect id="_Path_64" data-name="&lt;Path&gt;" class="cls-19" x="479.34" y="947.16" width="12.52" height="11.7"/><rect id="_Path_65" data-name="&lt;Path&gt;" class="cls-20" x="412.23" y="975.66" width="12.52" height="11.7"/><rect id="_Path_66" data-name="&lt;Path&gt;" class="cls-20" x="434.75" y="975.66" width="12.52" height="11.7"/><rect id="_Path_67" data-name="&lt;Path&gt;" class="cls-20" x="457.27" y="947.16" width="12.52" height="11.7"/><rect id="_Path_68" data-name="&lt;Path&gt;" class="cls-19" x="457.27" y="975.66" width="12.52" height="11.7"/><rect id="_Path_69" data-name="&lt;Path&gt;" class="cls-19" x="480.51" y="975.66" width="12.52" height="11.7"/></g></g><rect id="highlight-5" data-name="highlight" class="cls-8" x="397.67" y="667.79" width="71.84" height="335.92"/><path class="cls-16" d="M434.2,833.28s-2.68-4.32-5-4c0,0,1.54-5.77-4.59-6.85,0,0-3.06-14.06-14.55-2.16,0,0-10.34-13.52-16.08-4.78,0,0-10.34,2.25-7.27,11.27,0,0-10.73.72-10,8.28,0,0-5.74,1.09-3.83,10.46,0,0-6.51,3.6-6.51,10.09,0,0-9.19-6.85-13.4,0,0,0-16.84,2.88-13.4,20.54,0,0-4.59,5.41,3.06,10.09,0,0,1.92,8.29,6.51,8.65,0,0,1.92,7.21,12.64,4.33,0,0,3.44,6.13,6.51,8.65,0,0,0,8.65,3.06,10.81s6.13,7.21,10.72,7.21,6.13,9,16.85-4.32c0,0,9.19,6.48,16.46-6.49,0,0,9.57-.36,11.1-6.13,0,0,9.58-7.21,9.58-11.89,0,0,11.87-6.13,9.57-19.1,0,0,8.25-16.94.29-20.91,0,0,2-12.25-3.35-11.53C442.63,845.54,442.63,830,434.2,833.28Z"/><path class="cls-17" d="M416.59,827.3s3.8-10.2-4-8.93c0,0-4.77,6.25-4,8.93C408.55,827.3,409.37,834,416.59,827.3Z"/><path class="cls-17" d="M433.55,840.06s3-7.4-2-7.15-6.41,2.56-8.1,5.36c0,0-4.72,1.79-5.4,4.34,0,0-7.31-4.59-10.07,4.85,0,0-9.39,7.92,0,12.51,0,0,6,1,7.37-2.81s3.11-4.59,4.59.26c0,0-1.82,3.32,0,3.83,0,0-2.9,6.89,3.85,6.89s8.1-4.6,6.41-7.15c0,0,2.7-3.32,2.7-5.61,0,0,5.86-4.6,1.58-8.94C434.45,846.44,437.26,839.55,433.55,840.06Z"/><path class="cls-15" d="M417.5,841.85s1.9-12.39,1.9-14.62.76-7.59,1.53-7.85-.58,7.89-.77,11.24S417.5,841.85,417.5,841.85Z"/><polygon class="cls-15" points="431.42 831.06 430.21 835.12 429.91 836.8 433.82 828.39 431.42 831.06"/><path class="cls-15" d="M414.29,861s3.73-13,3.22-16.59a15.22,15.22,0,0,0-1.58,6.89s-4.46-9.35-4.27-9.44l-.19.09s1.48,8.57,3,10.37S414.29,861,414.29,861Z"/><path class="cls-15" d="M427.31,855.38s-2.34,13.78-5.38,19.9c0,0-2-2.29-1.51-7.14,0,0-1.83,4.08,1.51,10C421.93,878.09,428.84,861.76,427.31,855.38Z"/><path class="cls-17" d="M400.32,820.92s1.34-7.69-2.49-7.21l-3.83.47s-9.95,2.4-7.27,12c0,0-6.9,4.78-7.66,10.53a10.38,10.38,0,0,0-6.13,9.38s-8.61,3.06-6.12,11.68c0,0-6.51-2.49-7.47-1.73s-5-.57-5.36,1.73a26.14,26.14,0,0,0-4.3.12c-.57.25-7,3.7-5.66,9.64s3.26,3,3.26-.89c0,0,4,2,4.21-1.41,0,0,12.64,5.94,12.06-3.25,0,0,3.83-3.07,5-3.83s3.83,2.3,5-2.49c0,0,6.31-1.72,3.44,3.83,0,0-1.53,8.42,3.64,8.23s5.74-2.1,6.7-2.49,3.06-2.17,3.06,1.41,3.64,6.82,7.66,2.8c0,0,6.7-3.06,3.45-7.85,0,0,3.63-8-4-6.7,0,0-4.7,5.62-2.83-1a6.27,6.27,0,0,0,1.68-7.21s6.89,1.07,7.08-4.15c0,0,6.34-9.06,5.09-10.21,0,0,1.42-9.95-7.2-4.4C401.27,827.87,406.63,820.09,400.32,820.92Z"/><path class="cls-18" d="M390.17,832.91h6.32s-1.72,3.06-3.16,3.89-5.26,5.05-4.31,3.32C390.38,837.69,392.66,833.92,390.17,832.91Z"/><path class="cls-15" d="M399.35,851.25s-.49-11.15.46-13.33c0,0,.68,4.68,0,6.92,0,0,4.66-5.84,4.54-5.93s-.64,1.62-.64,1.62-2.87,3.59-3.08,5.21A45.3,45.3,0,0,1,399.35,851.25Z"/><polygon class="cls-15" points="353.09 859.71 352.69 855.48 352.35 853.81 351.86 863.07 353.09 859.71"/><path class="cls-15" d="M411.47,873.24s-2.35,5.55-2,7.85-1.92,7.08-3.26,2.11-7.74-20-7-24.76,1.29-4.63,1.29-4.63c-.28,7.52-.63,6.28-.38,7.18.57,2.11,5.18,13.37,5.18,13.37s3.26-4.63,3.16-6.22c0,0,.46-.45-2.79,7.78l1.91,4.41S409.41,871.52,411.47,873.24Z"/><path class="cls-15" d="M406.85,891.24s-3.8,51.3-5.07,58.58,0,31.39,0,31.39h3.54l3.15-62S423.2,908.85,423.72,905c0,0-14.62,10.34-16.62,10.34C407.1,915.36,409.37,891.24,406.85,891.24Z"/><path class="cls-17" d="M421.63,882.18s-1-6.13-4.82-2,.7,6.92,3.05,5.25S421.63,882.18,421.63,882.18Z"/><path class="cls-15" d="M429.91,871s-2.34,13.8-4.9,14.43C425,885.38,431.23,888.28,429.91,871Z"/><polygon class="cls-15" points="393.85 818.26 390.55 814.12 389.02 812.59 394.62 822.45 393.85 818.26"/><polygon class="cls-15" points="437.1 897.86 443.33 892.91 445.58 890.71 430.33 899.85 437.1 897.86"/><path class="cls-15" d="M399.22,901.07s-7.92-23.23-8.93-23.11-11.73-6.91-12.75-8.37-.78,4.42,10.84,10.54l-11.23,1,11,1.14s3.37,3.19,3.63,5.49-8.41-.25-8.41-.25.67,2.55,9.27,3.7l6.54,11.1"/><path class="cls-17" d="M377.52,902.9s6.66,4.43,7.41-.58-1.24-6.79-3.66-9c0,0-.82-5-3.19-6.15,0,0,5.94-6.26-2.78-10.83,0,0-5.91-10.76-12.26-2.46,0,0-2.19,5.7,1.3,7.78s3.9,4-1.15,4.45c0,0-2.9-2.44-3.76-.75,0,0-6.18-4.21-7.51,2.41s2.91,8.85,5.75,7.7c0,0,2.72,3.3,5,3.75,0,0,3.35,6.65,8.45,3.31C371.09,902.53,377.29,906.64,377.52,902.9Z"/><g id="_Group_4" data-name="&lt;Group&gt;"><rect id="_Rectangle_134" data-name="&lt;Rectangle&gt;" class="cls-21" x="514.44" y="970.54" width="292.45" height="67.96"/><polygon id="_Path_70" data-name="&lt;Path&gt;" class="cls-22" points="810.75 970.54 512.73 970.54 507.56 965.55 816.4 965.55 810.75 970.54"/><rect id="_Rectangle_135" data-name="&lt;Rectangle&gt;" class="cls-1" x="514.44" y="782.24" width="145.96" height="183.32"/><path id="_Path_71" data-name="&lt;Path&gt;" class="cls-23" d="M521.84,834s0-31.74,7.47-31.8c8.92-.07,6.28,31.8,6.28,31.8Z"/><polygon id="_Path_72" data-name="&lt;Path&gt;" class="cls-22" points="663.04 787.22 512.85 787.22 510.2 776 666.21 776 663.04 787.22"/><path id="_Path_73" data-name="&lt;Path&gt;" class="cls-23" d="M543.52,834s0-31.74,7.47-31.8c8.93-.07,6.28,31.8,6.28,31.8Z"/><path id="_Path_74" data-name="&lt;Path&gt;" class="cls-3" d="M565.2,834s0-31.74,7.47-31.8C581.6,802.13,579,834,579,834Z"/><path id="_Path_75" data-name="&lt;Path&gt;" class="cls-23" d="M595.35,834s0-31.74,7.47-31.8c8.92-.07,6.28,31.8,6.28,31.8Z"/><path id="_Path_76" data-name="&lt;Path&gt;" class="cls-3" d="M617,834s0-31.74,7.47-31.8c8.92-.07,6.28,31.8,6.28,31.8Z"/><path id="_Path_77" data-name="&lt;Path&gt;" class="cls-23" d="M638.71,834s0-31.74,7.47-31.8c8.93-.07,6.28,31.8,6.28,31.8Z"/><rect id="_Rectangle_136" data-name="&lt;Rectangle&gt;" class="cls-24" x="584.24" y="787.22" width="7.01" height="178.33"/><path id="_Path_78" data-name="&lt;Path&gt;" class="cls-23" d="M520.78,887s0-28.62,7.47-28.68c8.93-.08,6.28,28.68,6.28,28.68Z"/><path id="_Path_79" data-name="&lt;Path&gt;" class="cls-3" d="M542.46,887s0-28.62,7.47-28.68c8.93-.08,6.28,28.68,6.28,28.68Z"/><path id="_Path_80" data-name="&lt;Path&gt;" class="cls-23" d="M564.15,887s0-28.62,7.47-28.68c8.92-.08,6.28,28.68,6.28,28.68Z"/><path id="_Path_81" data-name="&lt;Path&gt;" class="cls-3" d="M596.41,887s0-28.62,7.47-28.68c8.92-.08,6.28,28.68,6.28,28.68Z"/><path id="_Path_82" data-name="&lt;Path&gt;" class="cls-23" d="M618.09,887s0-28.62,7.47-28.68c8.92-.08,6.28,28.68,6.28,28.68Z"/><path id="_Path_83" data-name="&lt;Path&gt;" class="cls-23" d="M639.77,887s0-28.62,7.47-28.68c8.92-.08,6.28,28.68,6.28,28.68Z"/><rect id="_Rectangle_137" data-name="&lt;Rectangle&gt;" class="cls-3" x="522.37" y="909.43" width="13.06" height="36.16"/><rect id="_Rectangle_138" data-name="&lt;Rectangle&gt;" class="cls-23" x="544.05" y="909.43" width="13.06" height="36.16"/><rect id="_Rectangle_139" data-name="&lt;Rectangle&gt;" class="cls-23" x="565.02" y="909.43" width="13.06" height="36.16"/><rect id="_Rectangle_140" data-name="&lt;Rectangle&gt;" class="cls-23" x="596.23" y="910.06" width="13.06" height="36.16"/><rect id="_Rectangle_141" data-name="&lt;Rectangle&gt;" class="cls-3" x="617.91" y="910.06" width="13.06" height="36.16"/><rect id="_Rectangle_142" data-name="&lt;Rectangle&gt;" class="cls-3" x="638.89" y="910.06" width="13.06" height="36.16"/><rect id="_Rectangle_143" data-name="&lt;Rectangle&gt;" class="cls-25" x="521.01" y="970.54" width="285.59" height="3.12"/><rect id="_Path_84" data-name="&lt;Path&gt;" class="cls-25" x="514.63" y="787.22" width="145.77" height="4.99"/><rect id="_Rectangle_144" data-name="&lt;Rectangle&gt;" class="cls-26" x="584.24" y="787.22" width="7.41" height="4.99"/><rect id="_Rectangle_145" data-name="&lt;Rectangle&gt;" class="cls-1" x="660.92" y="782.24" width="145.96" height="183.32"/><path id="_Path_85" data-name="&lt;Path&gt;" class="cls-23" d="M668.33,834s0-31.74,7.47-31.8c8.92-.07,6.28,31.8,6.28,31.8Z"/><polygon id="_Path_86" data-name="&lt;Path&gt;" class="cls-22" points="809.53 787.22 659.34 787.22 656.69 776 812.7 776 809.53 787.22"/><path id="_Path_87" data-name="&lt;Path&gt;" class="cls-23" d="M690,834s0-31.74,7.47-31.8c8.92-.07,6.28,31.8,6.28,31.8Z"/><path id="_Path_88" data-name="&lt;Path&gt;" class="cls-23" d="M711.69,834s0-31.74,7.47-31.8c8.93-.07,6.28,31.8,6.28,31.8Z"/><path id="_Path_89" data-name="&lt;Path&gt;" class="cls-3" d="M741.84,834s0-31.74,7.47-31.8c8.92-.07,6.28,31.8,6.28,31.8Z"/><path id="_Path_90" data-name="&lt;Path&gt;" class="cls-23" d="M763.52,834s0-31.74,7.47-31.8c8.92-.07,6.28,31.8,6.28,31.8Z"/><path id="_Path_91" data-name="&lt;Path&gt;" class="cls-23" d="M785.2,834s0-31.74,7.47-31.8C801.6,802.13,799,834,799,834Z"/><rect id="_Rectangle_146" data-name="&lt;Rectangle&gt;" class="cls-24" x="730.73" y="787.22" width="7.01" height="178.33"/><path id="_Path_92" data-name="&lt;Path&gt;" class="cls-3" d="M667.27,887s0-28.62,7.47-28.68C683.66,858.24,681,887,681,887Z"/><path id="_Path_93" data-name="&lt;Path&gt;" class="cls-3" d="M689,887s0-28.62,7.47-28.68c8.93-.08,6.28,28.68,6.28,28.68Z"/><path id="_Path_94" data-name="&lt;Path&gt;" class="cls-23" d="M710.63,887s0-28.62,7.48-28.68c8.92-.08,6.27,28.68,6.27,28.68Z"/><path id="_Path_95" data-name="&lt;Path&gt;" class="cls-23" d="M742.89,887s0-28.62,7.47-28.68c8.93-.08,6.28,28.68,6.28,28.68Z"/><path id="_Path_96" data-name="&lt;Path&gt;" class="cls-23" d="M764.58,887s0-28.62,7.47-28.68c8.92-.08,6.28,28.68,6.28,28.68Z"/><path id="_Path_97" data-name="&lt;Path&gt;" class="cls-23" d="M786.26,887s0-28.62,7.47-28.68C802.65,858.24,800,887,800,887Z"/><rect id="_Rectangle_147" data-name="&lt;Rectangle&gt;" class="cls-23" x="668.86" y="909.43" width="13.06" height="36.16"/><rect id="_Rectangle_148" data-name="&lt;Rectangle&gt;" class="cls-23" x="690.54" y="909.43" width="13.06" height="36.16"/><rect id="_Rectangle_149" data-name="&lt;Rectangle&gt;" class="cls-23" x="711.51" y="909.43" width="13.06" height="36.16"/><rect id="_Rectangle_150" data-name="&lt;Rectangle&gt;" class="cls-23" x="742.72" y="910.06" width="13.06" height="36.16"/><rect id="_Rectangle_151" data-name="&lt;Rectangle&gt;" class="cls-3" x="764.4" y="910.06" width="13.06" height="36.16"/><rect id="_Rectangle_152" data-name="&lt;Rectangle&gt;" class="cls-23" x="785.37" y="910.06" width="13.06" height="36.16"/><g id="_Group_5" data-name="&lt;Group&gt;"><rect id="_Rectangle_153" data-name="&lt;Rectangle&gt;" class="cls-27" x="521.84" y="832.43" width="13.75" height="1.87"/><rect id="_Rectangle_154" data-name="&lt;Rectangle&gt;" class="cls-27" x="543.7" y="832.43" width="13.75" height="1.87"/><rect id="_Rectangle_155" data-name="&lt;Rectangle&gt;" class="cls-27" x="565.39" y="832.12" width="13.75" height="1.87"/><rect id="_Rectangle_156" data-name="&lt;Rectangle&gt;" class="cls-27" x="595.53" y="832.12" width="13.75" height="1.87"/><rect id="_Rectangle_157" data-name="&lt;Rectangle&gt;" class="cls-27" x="617.21" y="832.12" width="13.75" height="1.87"/><rect id="_Rectangle_158" data-name="&lt;Rectangle&gt;" class="cls-27" x="638.54" y="832.12" width="13.75" height="1.87"/><rect id="_Rectangle_159" data-name="&lt;Rectangle&gt;" class="cls-27" x="520.87" y="886.21" width="13.75" height="1.87"/><rect id="_Path_98" data-name="&lt;Path&gt;" class="cls-27" x="542.21" y="886.21" width="14.28" height="1.87"/><polygon id="_Path_99" data-name="&lt;Path&gt;" class="cls-27" points="577.64 887.77 563.89 887.77 563.89 885.9 578.17 885.9 577.64 887.77"/><rect id="_Rectangle_160" data-name="&lt;Rectangle&gt;" class="cls-27" x="596.41" y="886.05" width="14.09" height="1.87"/><polygon id="_Path_100" data-name="&lt;Path&gt;" class="cls-27" points="631.64 887.92 617.89 887.92 617.89 886.05 632.17 886.05 631.64 887.92"/><rect id="_Rectangle_161" data-name="&lt;Rectangle&gt;" class="cls-27" x="639.75" y="886.05" width="13.75" height="1.87"/><rect id="_Rectangle_162" data-name="&lt;Rectangle&gt;" class="cls-27" x="522.19" y="943.73" width="13.22" height="1.87"/><rect id="_Rectangle_163" data-name="&lt;Rectangle&gt;" class="cls-27" x="544.05" y="943.73" width="13.22" height="1.87"/><rect id="_Rectangle_164" data-name="&lt;Rectangle&gt;" class="cls-27" x="565.02" y="943.73" width="13.22" height="1.87"/><rect id="_Rectangle_165" data-name="&lt;Rectangle&gt;" class="cls-27" x="596.23" y="944.35" width="13.06" height="1.87"/><rect id="_Rectangle_166" data-name="&lt;Rectangle&gt;" class="cls-27" x="617.91" y="944.35" width="13.06" height="1.87"/><rect id="_Rectangle_167" data-name="&lt;Rectangle&gt;" class="cls-27" x="638.89" y="944.66" width="13.22" height="1.87"/><rect id="_Rectangle_168" data-name="&lt;Rectangle&gt;" class="cls-27" x="668.33" y="832.43" width="13.75" height="1.87"/><rect id="_Rectangle_169" data-name="&lt;Rectangle&gt;" class="cls-27" x="690.19" y="832.43" width="13.75" height="1.87"/><rect id="_Rectangle_170" data-name="&lt;Rectangle&gt;" class="cls-27" x="711.88" y="832.12" width="13.75" height="1.87"/><rect id="_Rectangle_171" data-name="&lt;Rectangle&gt;" class="cls-27" x="742.02" y="832.12" width="13.75" height="1.87"/><rect id="_Rectangle_172" data-name="&lt;Rectangle&gt;" class="cls-27" x="763.7" y="832.12" width="13.75" height="1.87"/><rect id="_Rectangle_173" data-name="&lt;Rectangle&gt;" class="cls-27" x="785.03" y="832.12" width="13.75" height="1.87"/><rect id="_Rectangle_174" data-name="&lt;Rectangle&gt;" class="cls-27" x="667.36" y="886.21" width="13.75" height="1.87"/><rect id="_Path_101" data-name="&lt;Path&gt;" class="cls-27" x="688.7" y="886.21" width="14.28" height="1.87"/><polygon id="_Path_102" data-name="&lt;Path&gt;" class="cls-27" points="724.13 887.77 710.38 887.77 710.38 885.9 724.66 885.9 724.13 887.77"/><rect id="_Rectangle_175" data-name="&lt;Rectangle&gt;" class="cls-27" x="742.89" y="886.05" width="14.09" height="1.87"/><polygon id="_Path_103" data-name="&lt;Path&gt;" class="cls-27" points="778.13 887.92 764.38 887.92 764.38 886.05 778.66 886.05 778.13 887.92"/><rect id="_Rectangle_176" data-name="&lt;Rectangle&gt;" class="cls-27" x="786.24" y="886.05" width="13.75" height="1.87"/><rect id="_Rectangle_177" data-name="&lt;Rectangle&gt;" class="cls-27" x="668.68" y="943.73" width="13.22" height="1.87"/><rect id="_Rectangle_178" data-name="&lt;Rectangle&gt;" class="cls-27" x="690.54" y="943.73" width="13.22" height="1.87"/><rect id="_Rectangle_179" data-name="&lt;Rectangle&gt;" class="cls-27" x="711.51" y="943.73" width="13.22" height="1.87"/><rect id="_Rectangle_180" data-name="&lt;Rectangle&gt;" class="cls-27" x="742.72" y="944.35" width="13.06" height="1.87"/><rect id="_Rectangle_181" data-name="&lt;Rectangle&gt;" class="cls-27" x="764.4" y="944.35" width="13.06" height="1.87"/><rect id="_Rectangle_182" data-name="&lt;Rectangle&gt;" class="cls-27" x="785.38" y="944.66" width="13.22" height="1.87"/></g><rect id="_Rectangle_183" data-name="&lt;Rectangle&gt;" class="cls-25" x="659.34" y="787.22" width="147.54" height="4.99"/><rect id="_Rectangle_184" data-name="&lt;Rectangle&gt;" class="cls-26" x="730.73" y="787.22" width="7.41" height="4.99"/><rect id="_Rectangle_185" data-name="&lt;Rectangle&gt;" class="cls-24" x="657.42" y="787.22" width="7.01" height="178.33"/><rect id="_Rectangle_186" data-name="&lt;Rectangle&gt;" class="cls-26" x="657.02" y="787.22" width="7.41" height="4.99"/></g><rect id="highlight-6" data-name="highlight" class="cls-8" x="515.99" y="786.75" width="214.74" height="264.43"/><path class="cls-16" d="M887.13,861.89s-3.67-5.92-6.82-5.43c0,0,2.1-7.9-6.29-9.38,0,0-4.2-19.26-19.93-3,0,0-14.17-18.53-22-6.55,0,0-14.16,3.09-10,15.44,0,0-14.69,1-13.64,11.35,0,0-7.87,1.48-5.25,14.32,0,0-8.91,4.94-8.91,13.83,0,0-12.59-9.38-18.36,0,0,0-23.08,4-18.36,28.14,0,0-6.3,7.41,4.19,13.83,0,0,2.63,11.36,8.92,11.85,0,0,2.62,9.88,17.31,5.93,0,0,4.72,8.39,8.92,11.85,0,0,0,11.85,4.2,14.81s8.39,9.88,14.68,9.88,8.4,12.34,23.08-5.93c0,0,12.59,8.89,22.56-8.89,0,0,13.11-.49,15.21-8.39,0,0,13.11-9.88,13.11-16.3,0,0,16.27-8.39,13.12-26.17,0,0,11.3-23.21.4-28.64,0,0,2.75-16.79-4.6-15.8C898.67,878.68,898.67,857.45,887.13,861.89Z"/><path class="cls-17" d="M863,853.69s5.21-14-5.53-12.23c0,0-6.53,8.56-5.48,12.23C852,853.69,853.11,862.93,863,853.69Z"/><path class="cls-17" d="M886.24,871.18s4.16-10.14-2.78-9.79-8.79,3.49-11.1,7.34c0,0-6.47,2.45-7.4,5.95,0,0-10-6.3-13.79,6.64,0,0-12.87,10.84,0,17.13,0,0,8.24,1.4,10.09-3.84s4.26-6.3,6.3.35c0,0-2.5,4.54,0,5.24,0,0-4,9.45,5.26,9.45s11.1-6.3,8.79-9.8c0,0,3.7-4.54,3.7-7.69,0,0,8-6.29,2.16-12.24C887.47,879.92,891.32,870.48,886.24,871.18Z"/><path class="cls-15" d="M864.25,873.63s2.6-17,2.6-20,1-10.4,2.1-10.75-.8,10.81-1.05,15.39S864.25,873.63,864.25,873.63Z"/><polygon class="cls-15" points="883.32 858.84 881.67 864.41 881.25 866.72 886.6 855.2 883.32 858.84"/><path class="cls-15" d="M859.86,899.85s5.11-17.77,4.4-22.73a21,21,0,0,0-2.17,9.44s-6.1-12.81-5.84-12.93-.26.12-.26.12,2,11.74,4.17,14.21S859.86,899.85,859.86,899.85Z"/><path class="cls-15" d="M877.69,892.16s-3.21,18.88-7.37,27.28c0,0-2.77-3.15-2.07-9.79,0,0-2.51,5.59,2.07,13.63C870.32,923.28,879.79,900.9,877.69,892.16Z"/><path class="cls-17" d="M840.71,845s1.84-10.53-3.41-9.88l-5.25.65s-13.63,3.29-10,16.4c0,0-9.44,6.56-10.49,14.42,0,0-8.4,3.41-8.4,12.86,0,0-11.8,4.19-8.39,16,0,0-8.92-3.4-10.23-2.36s-6.82-.78-7.34,2.36c0,0-5.11-.17-5.89.18s-9.59,5.07-7.75,13.2,4.46,4.11,4.46-1.22c0,0,5.51,2.79,5.77-1.93,0,0,17.31,8.13,16.52-4.46,0,0,5.25-4.19,6.82-5.24s5.25,3.15,6.82-3.41c0,0,8.66-2.36,4.72,5.25,0,0-2.1,11.54,5,11.27s7.87-2.88,9.18-3.41,4.2-3,4.2,1.93,5,9.35,10.49,3.84c0,0,9.18-4.19,4.72-10.75,0,0,5-11-5.5-9.18,0,0-6.44,7.69-3.88-1.4a8.59,8.59,0,0,0,2.3-9.88s9.44,1.46,9.71-5.69c0,0,8.68-12.4,7-14,0,0,2-13.64-9.85-6C842,854.48,849.36,843.81,840.71,845Z"/><path class="cls-18" d="M826.81,861.38h8.65s-2.36,4.19-4.32,5.33-7.22,6.92-5.91,4.56C827.09,867.93,830.22,862.77,826.81,861.38Z"/><path class="cls-15" d="M839.38,886.5s-.67-15.27.64-18.26c0,0,.92,6.42,0,9.49,0,0,6.38-8,6.22-8.13s-.89,2.23-.89,2.23-3.92,4.92-4.21,7.13A63.33,63.33,0,0,1,839.38,886.5Z"/><polygon class="cls-15" points="776 898.09 775.46 892.31 774.99 890.02 774.32 902.7 776 898.09"/><path class="cls-15" d="M856,916.64s-3.22,7.61-2.69,10.75-2.62,9.71-4.46,2.89-10.61-27.45-9.63-33.92S841,890,841,890c-.39,10.3-.86,8.6-.52,9.83.78,2.89,7.1,18.32,7.1,18.32s4.47-6.34,4.32-8.52c0,0,.64-.62-3.82,10.66l2.63,6S853.17,914.28,856,916.64Z"/><path class="cls-15" d="M849.66,941.29s-5.21,70.29-6.95,80.26,0,43,0,43h4.85l4.31-85s20.19-14.16,20.91-19.4c0,0-20,14.16-22.78,14.16C850,974.34,853.11,941.29,849.66,941.29Z"/><path class="cls-17" d="M869.9,928.88s-1.39-8.39-6.59-2.8,1,9.47,4.17,7.18S869.9,928.88,869.9,928.88Z"/><path class="cls-15" d="M881.25,913.49s-3.21,18.92-6.71,19.77C874.54,933.26,883.07,937.24,881.25,913.49Z"/><polygon class="cls-15" points="831.85 841.31 827.33 835.64 825.24 833.54 832.9 847.05 831.85 841.31"/><polygon class="cls-15" points="891.11 950.37 899.64 943.58 902.72 940.57 881.83 953.08 891.11 950.37"/><path class="cls-15" d="M839.21,954.76S828.36,922.93,827,923.11s-16.07-9.47-17.47-11.47-1.07,6.05,14.85,14.44L809,927.48l15.12,1.57s4.62,4.37,5,7.52-11.53-.35-11.53-.35.93,3.5,12.71,5.07l9,15.21"/><path class="cls-17" d="M809.48,957.26s9.12,6.08,10.14-.79-1.69-9.3-5-12.33c0,0-1.13-6.83-4.37-8.42,0,0,8.14-8.58-3.8-14.83,0,0-8.1-14.75-16.8-3.37,0,0-3,7.8,1.78,10.65s5.34,5.42-1.58,6.1c0,0-4-3.34-5.14-1,0,0-8.47-5.76-10.3,3.3s4,12.12,7.87,10.55c0,0,3.73,4.52,6.82,5.14,0,0,4.59,9.11,11.57,4.53C800.66,956.76,809.16,962.39,809.48,957.26Z"/><rect id="_Rectangle_187" data-name="&lt;Rectangle&gt;" class="cls-3" x="73.67" y="611.57" width="21.76" height="11.4"/><rect id="_Rectangle_188" data-name="&lt;Rectangle&gt;" class="cls-12" x="73.54" y="628.67" width="21.76" height="11.4"/><rect id="_Rectangle_189" data-name="&lt;Rectangle&gt;" class="cls-3" x="73.41" y="646.36" width="21.76" height="11.4"/><rect id="_Rectangle_190" data-name="&lt;Rectangle&gt;" class="cls-12" x="73.28" y="663.46" width="21.76" height="11.4"/><rect id="_Rectangle_191" data-name="&lt;Rectangle&gt;" class="cls-3" x="73.41" y="680.56" width="22.08" height="11.4"/><rect id="_Rectangle_192" data-name="&lt;Rectangle&gt;" class="cls-12" x="73.28" y="697.66" width="22.08" height="11.4"/><rect id="_Rectangle_193" data-name="&lt;Rectangle&gt;" class="cls-3" x="73.54" y="714.95" width="22.08" height="11.4"/><rect id="_Rectangle_194" data-name="&lt;Rectangle&gt;" class="cls-3" x="73.41" y="732.05" width="22.08" height="11.4"/><rect id="_Rectangle_195" data-name="&lt;Rectangle&gt;" class="cls-12" x="73.28" y="749.74" width="22.08" height="11.4"/><rect id="_Rectangle_196" data-name="&lt;Rectangle&gt;" class="cls-3" x="73.15" y="766.84" width="22.08" height="11.4"/><rect id="_Rectangle_197" data-name="&lt;Rectangle&gt;" class="cls-3" x="73.28" y="783.94" width="22.08" height="11.4"/><rect id="_Rectangle_198" data-name="&lt;Rectangle&gt;" class="cls-3" x="73.15" y="801.04" width="22.08" height="11.4"/><rect class="cls-28" x="2.19" width="24.77" height="24.77"/></g></g></svg>