<svg xmlns="http://www.w3.org/2000/svg" viewBox="0 0 1399.76 261.93"><defs><style>.cls-1{fill:#c5e2dd;}.cls-2{fill:#daede9;}.cls-3{fill:#aed3cc;}</style></defs><title>clouds</title><g id="Layer_2" data-name="Layer 2"><g id="sky_water" data-name="sky&amp;water"><g id="clouds"><g id="cloud"><path id="_Path_" data-name="&lt;Path&gt;" class="cls-1" d="M379.2,119.82,14.8,122.73s32.73-9.45,35.64-13.82,53.83-8.73,53.83-8.73h57.46L225,90s14.54-33.46,24.73-10.18c0,0,18.91-14.78,24.73,17.34,0,0,19.63-20.25,32-9.34l21.09,9.34,13.09,5.93s13.85-6.72,15.28,5.09c0,0,10.9-1.55,10.91,5.1C366.84,113.28,393,115.46,379.2,119.82Z"/><path id="_Path_2" data-name="&lt;Path&gt;" class="cls-2" d="M321.74,112.55s13.1,16,15.28-6.55c0,0,5.82-11.14-9.46-8.84,0,0,8.25-15.72-15.15-6.71,0,0-17.59-16.75-24.85,6.71,0,0-12.37,16.84,10.18,13.93C297.74,111.09,302.83,122,321.74,112.55Z"/><path id="_Path_3" data-name="&lt;Path&gt;" class="cls-2" d="M228.64,107.46s-1.45-18.19-15.27,0c0,0-13.09,13.09-29.82,0,0,0-.73-5.18-14.55-1.14,0,0-7.27-12-10.18,0,0,0-11.64,6.15-15.28,0,0,0-8.73,9.14-20.36,4.05,0,0-14.55,6.46-18.91-4.05,0,0,0-10.58-10.19,0,0,0-6,3.21-11.63,0,0,0-10.19,10.51-19.64,0,0,0-23.28,4.05,0-15.59,0,0,19.64-18.91,29.09,0,0,0,5.82,12.28,10.18-8.41,0,0-11.63-12.43,24.73-10.74,0,0,14.39-15,13.74,6.78,0,0-2.1,10.72,8.81,11.54,0,0,9.46-11.54,11.64,3,0,0,5.09,6.77,10.18-8.25,0,0,1.46-18.4,13.82-13.08,0,0,17.46-19.4,26.19-11.4,0,0,16.73-13.82,20.36,4.36,0,0,13.82.73,6.55,16.73,0,0,13.82-4.36,11.64,7.28,0,0,4.16,3.2,8-4.34s8.72,7.74,8.72,13,1.46,20-18.91,12.48C247.55,109.64,232.28,119.09,228.64,107.46Z"/><path id="_Path_4" data-name="&lt;Path&gt;" class="cls-2" d="M39.53,118.06s16.73-9.15,0-10.6S35.17,127.91,39.53,118.06Z"/></g><g id="cloud-2" data-name="cloud"><path id="_Path_5" data-name="&lt;Path&gt;" class="cls-1" d="M1397.42,215.86l-211.8,2.91s19-9.46,20.72-13.82,31.28-8.73,31.28-8.73H1271L1307.8,186s8.46-33.46,14.37-10.18c0,0,11-14.79,14.38,17.33,0,0,11.41-20.24,18.6-9.33l12.26,9.33,7.61,5.94s8-6.72,8.88,5.09c0,0,6.33-1.55,6.34,5.09C1390.24,209.31,1405.46,211.5,1397.42,215.86Z"/><path id="_Path_6" data-name="&lt;Path&gt;" class="cls-2" d="M1364,208.59s7.61,16,8.87-6.55c0,0,3.39-11.14-5.49-8.85,0,0,4.79-15.71-8.81-6.7,0,0-10.22-16.75-14.44,6.7,0,0-7.19,16.85,5.92,13.94C1350.08,207.13,1353,218,1364,208.59Z"/><path id="_Path_7" data-name="&lt;Path&gt;" class="cls-2" d="M1309.91,203.49s-.84-18.18-8.87,0c0,0-7.61,13.1-17.34,0,0,0-.42-5.17-8.45-1.13,0,0-4.23-12-5.92,0,0,0-6.76,6.15-8.88,0,0,0-5.07,9.14-11.84,4,0,0-8.45,6.47-11-4,0,0,0-10.58-5.92,0,0,0-3.49,3.21-6.76,0,0,0-5.92,10.51-11.41,0,0,0-13.53,4,0-15.59,0,0,11.41-18.92,16.91,0,0,0,3.38,12.28,5.91-8.41,0,0-6.76-12.43,14.38-10.74,0,0,8.36-15,8,6.78,0,0-1.22,10.72,5.12,11.54,0,0,5.5-11.54,6.77,3,0,0,3,6.77,5.92-8.26,0,0,.84-18.39,8-13.07,0,0,10.14-19.4,15.22-11.4,0,0,9.72-13.82,11.83,4.36,0,0,8,.73,3.81,16.73,0,0,8-4.36,6.76,7.27,0,0,2.43,3.21,4.65-4.33s5.08,7.74,5.08,12.94.84,20-11,12.49C1320.91,205.68,1312,215.13,1309.91,203.49Z"/><path id="_Path_8" data-name="&lt;Path&gt;" class="cls-2" d="M1200,214.09s9.72-9.14,0-10.6S1197.46,224,1200,214.09Z"/></g><g id="cloud-3" data-name="cloud"><path id="_Path_9" data-name="&lt;Path&gt;" class="cls-1" d="M903.72,257.77s-6.71,2-8.25,0,2.06-14.42-5.68-12.87-7.75,5.9-9.81,6.82-11.36-1.41-11.87-7,3.61-10.7-6.2-9.15c0,0,3.05-9.6-6.19-6.2,0,0-4-8.49-16-7.86L820.1,244.9s-23.05-13.73-26.23-4.8c0,0-3.5-17.18-13.41-18.58l-61,23.38s-8.26-9.81-14.46-1c0,0-8.26.52-4.13,7.75,0,0-11.35-1.1-8.77,6.16,0,0-15.49-2.55-27.36,4.16H907.34S920.76,259.29,903.72,257.77Z"/><path id="_Path_10" data-name="&lt;Path&gt;" class="cls-2" d="M773.64,232.51s18.07-15-3.09-12.39c0,0-6.2-3.61-9.81,2.06,0,0-8.78-4.64-18.58,10.33,0,0,0,7.22-5.16,0,0,0-8.78-3.9-13.43,3.21,0,0-8.25-1.15-6.19,5.05,0,0-10.47,4.64-.33,12.39,0,0,7.56,8.77,16.33-3.1,0,0,2.58,5.68,7.74,2.06,0,0,5.17,8.78,10.84-3.09a17.46,17.46,0,0,0,7.75,4.13s8.26,7.79,14.45,3.12c0,0,18.07,5.13,16.52-7.25,0,0,10.32-12-6.2-10.65C784.48,238.38,781.9,229.41,773.64,232.51Z"/><path id="_Path_11" data-name="&lt;Path&gt;" class="cls-2" d="M845.91,228.38s-3.61-10.84-12.39-5.68c0,0-9.29-3.61-11.35,5.68,0,0-4.13,7.61-2.07,10,0,0-3.61.84-5.68-5.36s-5.16-.64-4.13,5.36c0,0-6.71-1.74-5.67,3.94,0,0-13.12,7.74-.11,11.35s11-7.74,13-6.71.33,5.68,4.81,5.16,8.61,1.55,7.58-6.19c0,0,10.32,1.93,8.26-7.55C838.17,238.38,850.46,234.49,845.91,228.38Z"/></g><g id="cloud-4" data-name="cloud"><path id="_Path_12" data-name="&lt;Path&gt;" class="cls-1" d="M1192.24,97.25s-4.76,2-5.86,0,1.46-14.42-4-12.87-5.49,5.9-7,6.82-8.06-1.41-8.42-7,2.56-10.7-4.4-9.16c0,0,2.17-9.59-4.39-6.19,0,0-2.83-8.49-11.32-7.86l-13.95,23.35s-16.35-13.74-18.61-4.81c0,0-2.48-17.17-9.51-18.57L1061.5,84.38s-5.86-9.81-10.25-1c0,0-5.86.52-2.93,7.75,0,0-8.06-1.1-6.22,6.16,0,0-11-2.55-19.41,4.16H1194.8S1204.32,98.76,1192.24,97.25Z"/><path id="_Path_13" data-name="&lt;Path&gt;" class="cls-2" d="M1100,72s12.82-15-2.19-12.39c0,0-4.4-3.61-7,2.06,0,0-6.23-4.64-13.18,10.33,0,0,0,7.22-3.67,0,0,0-6.22-3.9-9.52,3.21,0,0-5.86-1.15-4.39,5,0,0-7.43,4.64-.24,12.38,0,0,5.37,8.78,11.59-3.09,0,0,1.83,5.68,5.49,2.06,0,0,3.67,8.78,7.69-3.09a12.19,12.19,0,0,0,5.5,4.12s5.86,7.8,10.25,3.13c0,0,12.82,5.13,11.72-7.25,0,0,7.32-12-4.4-10.65C1107.64,77.86,1105.81,68.89,1100,72Z"/><path id="_Path_14" data-name="&lt;Path&gt;" class="cls-2" d="M1151.22,67.86s-2.56-10.84-8.79-5.68c0,0-6.59-3.61-8,5.68,0,0-2.93,7.61-1.47,10,0,0-2.56.84-4-5.36s-3.66-.65-2.93,5.36c0,0-4.76-1.74-4,3.93,0,0-9.31,7.75-.08,11.36s7.77-7.74,9.23-6.71.24,5.68,3.41,5.16,6.11,1.55,5.38-6.19c0,0,7.32,1.93,5.86-7.55C1145.73,77.86,1154.45,74,1151.22,67.86Z"/></g><rect class="cls-3" width="24.77" height="24.77"/></g></g></g></svg>