<svg xmlns="http://www.w3.org/2000/svg" viewBox="0 0 1366 1503"><defs><style>.cls-1{fill:#383838;}</style></defs><title>scapeOne</title><g id="Layer_2" data-name="Layer 2"><g id="Layer_5" data-name="Layer 5"><polygon class="cls-1" points="0 0 90.5 0.25 90.5 576 137.5 576 137.5 491 219.5 491 219.5 565 245 590.5 245 499 313.5 499 313.5 667 380.5 667 380.5 587 414.5 587 414.5 674 515.5 674 515.5 636 567.5 636 602.5 671 649.5 671 649.5 591 731.5 591 731.5 674 864.5 674 864.5 551 948.12 551 948.12 674 1120.5 674 1120.5 375 1208.5 375 1208.5 592 1266.5 592 1266.5 0 1366 0 1366 1503 0.5 1503 0 0"/></g></g></svg>