<svg xmlns="http://www.w3.org/2000/svg" viewBox="0 0 1371 2061"><defs><style>.cls-1{fill:#2c363a;}.cls-2{fill:#061e4c;}.cls-3{fill:#07564e;}.cls-4{fill:#88c03c;}.cls-5{fill:#aed3cc;}</style></defs><title>silhouette_front</title><g id="Layer_2" data-name="Layer 2"><g id="silhouette_front"><g id="background"><rect id="bottom_section" data-name="bottom section" class="cls-1" x="5" y="1098" width="1365" height="963"/><g id="top_section" data-name="top section"><polygon class="cls-1" points="0 1099 0 823 8.87 823 8.87 759.9 17.63 765.7 17.63 733.1 23.28 733.1 23.28 765.7 80.39 786 80.39 810.6 95.58 810.6 95.58 1099 0 1099"/><polygon class="cls-1" points="191.4 929.5 342.1 929.5 342.1 934.9 333.4 934.9 333.4 941.8 338.5 941.8 338.5 947.2 334.1 947.2 334.1 1099 191.4 1099 191.4 929.5"/><polygon id="_Path_" data-name="&lt;Path&gt;" class="cls-1" points="143.6 844 143.6 831.9 93.2 831.9 93.2 844 93.2 1099 193.4 1099 193.4 855.6 200.9 855.6 200.9 844 143.6 844"/><polygon class="cls-1" points="616.8 986.5 616.8 974.4 598 974.4 598 967.1 588.9 967.1 588.9 916.4 587 916.4 587 967.1 581.7 967.1 581.7 976.8 574.2 976.8 549.1 976.8 549.1 986.5 535.3 986.5 535.3 944.2 507.1 944.2 507.1 930.9 451.3 930.9 451.3 946.6 428.7 946.6 428.4 958.7 432.5 968.8 432.5 978 420 978 420 969.5 391.2 968.3 391.2 974.4 377.4 974.4 377.4 986.5 354.8 986.5 354.8 1003.4 348.6 1003.4 348.6 1011.8 341 1011.8 341 1025.1 329.8 1025.1 330.1 1099 630.6 1099 630.6 986.5 616.8 986.5"/><polygon class="cls-2" points="191.4 917.4 342.1 917.4 342.1 929.5 340.5 929.5 340.5 918.8 330 918.8 330 929.5 329 929.5 329 919 317.2 919 317.2 929.8 315.8 929.5 315.8 919 304.2 919 304.2 929.5 302.8 929.5 302.8 918.8 291.8 918.8 291.8 929.5 290.5 929.5 290.5 918.8 279.8 918.8 279.8 929.5 278.5 929.5 278.5 918.5 268 918.5 268 929.5 266.8 929.5 266.8 918.4 256 918.2 256 929.8 254.2 929.8 254.2 918.5 244 918.5 244 929.5 243 929.5 243 918.5 232.8 918.5 232.8 930 231.5 930 231.5 918.8 219.8 918.8 219.8 929.5 218.5 929.5 218.5 918.8 206.5 918.8 206.5 929.5 205 929.5 205 919 194.8 919 194.8 929.5 194 929.5 194 919 190.2 919 190.2 917.4 191.4 917.4"/><polygon class="cls-1" points="1371 1099 1371 748.04 1358.5 748.04 1358.5 674.14 1349.6 674.14 1349.6 711.13 1335.3 710.17 1335.3 740.45 1308.34 740.45 1308.42 763.37 1160.1 763.45 1160.1 753.07 1136.9 753.07 1136.9 1099 1371 1099"/><polyline id="_Path_2" data-name="&lt;Path&gt;" class="cls-1" points="1054.6 951.5 1054.6 938.3 1065.3 934.2 1065.3 845.9 1070.6 845.9 1070.6 836.8 1120.2 836 1120.2 841.8 1128.2 841.8 1131.8 845.9 1131.8 879.7 1138.9 883 1138.9 920.2 1138.9 1099 628 1099 628 1037.9 628 1005.1 636.9 1005.1 636.9 999.9 706 999.9 706 993.3 713.1 993.3 713.1 971.1 717.6 971.1 717.6 957.8 733.5 957.8 742.4 943 798.3 943 807.2 956.2 821.3 956.2 821.3 981 826.7 980.1 826.7 965.3 832.9 957.8 832.9 970.2 840.9 964.5 840.9 928.1 845.3 923.2 845.3 900.9 850.6 893.5 850.6 877.8 912.7 885.2 912.7 900.9 920.7 907.5 920.7 939.7 945.5 939.7 945.5 981 953.5 981 953.5 996.6 962.4 995.8 962.4 991.7 967.7 990 967.7 962 974.8 962.8 974.8 912.4 1010.3 913.3 1010.3 886 1026.2 877.8 1037.8 886 1037.8 913.3 1045.7 914.9 1045.7 957.6"/></g></g><g id="branches"><polyline id="_Path_3" data-name="&lt;Path&gt;" class="cls-3" points="1042.9 1430.3 1044.9 959.8 1050.4 955.8 1048.4 1429.4 1048.4 1433.85 962.2 1526.03 962.2 1949.52 956.8 1949.52 956.8 1523.03"/><polyline class="cls-3" points="1019.01 1885.08 961.21 1806 960.05 1812 1020.54 1895.57"/><polyline class="cls-3" points="1019.01 2023.4 961.21 1944.32 960.05 1950.32 1020.54 2033.88"/><polyline id="_Path_4" data-name="&lt;Path&gt;" class="cls-3" points="539.5 1309.13 538.5 987.2 534.6 987.2 534.6 1309.13 534.6 1312.34 552.1 1373.28 552.1 1944.32 555.8 1944.32 557.8 1372.34"/><polygon class="cls-3" points="495.6 1627.9 495.6 1469.2 553.1 1417.6 553 1424.4 500.9 1470.6 500.9 1611.9 495.6 1627.9"/><polyline class="cls-3" points="613.06 1884.08 555.26 1805 554.1 1811 614.59 1894.57"/><polyline class="cls-3" points="613.06 2022.4 555.26 1943.32 554.1 1949.32 614.59 2032.88"/><polygon class="cls-3" points="77.7 1234.9 189.8 1167.85 187.2 1165 73.6 1233.29 73.6 1415.2 73.6 1418.24 73.6 1419.66 139.7 1506.25 139.7 1948.52 143.7 1948.52 143.7 1506.25 78 1418.14 77.7 1234.9"/><polygon class="cls-3" points="87.3 1533.1 87.3 1681 140.7 1753 139.7 1742 92.2 1679 93.2 1542.1 87.3 1533.1"/><polyline class="cls-3" points="199.66 1884.08 141.86 1805 140.7 1811 201.19 1894.57"/><polyline class="cls-3" points="199.66 2021.6 141.86 1942.52 140.7 1948.52 201.19 2032.08"/><polygon class="cls-3" points="1144.2 1047.6 1144.2 1157.3 1047.4 1209 1047.5 1203.1 1138.5 1154.9 1138.4 1058.6 1144.2 1047.6"/><polygon class="cls-3" points="1247.5 1434.3 1247.5 1166.4 1143.2 1095.4 1142.6 1102.4 1242 1169.4 1241.6 1435.3 1247.5 1434.3"/><polygon class="cls-3" points="1095.9 1720.2 1095.9 1573.3 1242.5 1432.3 1247.7 1436.3 1102.3 1575.3 1101.6 1711.2 1095.9 1720.2"/><polyline class="cls-3" points="193.4 1386.1 193.4 903.9 187.2 903.9 187.2 1383.2 187.2 1386.7 253.3 1475.9 253.3 1669.2 258.3 1689.2 258.3 1474.8"/><path id="_Path_5" data-name="&lt;Path&gt;" class="cls-3" d="M427.2,978.3v372.1L242.6,1458l4.2,3.7,185.3-108.3-.7-375.1"/><polygon class="cls-3" points="313.8 1490.6 313.8 1601.2 256.3 1652.9 256.4 1645 308.6 1599.8 307.5 1501.6 313.8 1490.6"/><polygon class="cls-3" points="327.8 1131.8 327.8 1265.79 428.1 1329.2 425.7 1321.05 332.3 1263.07 332.7 1139.95 327.8 1131.8"/><path class="cls-3" d="M820,1435.56V957.69a2,2,0,0,1,1.9-2.09h0c1,0,3.91.9,3.91,2.09l.63,474.88L962.53,1523l-4.8,5Z"/><path id="_Path_6" data-name="&lt;Path&gt;" class="cls-3" d="M631.6,1287.4l-.7-282.7c0-.7-.9-.3-2-.3h0c-1.1,0-2-.4-2,.3v278.7"/><polygon class="cls-3" points="703 1125.1 703 1234.7 630.6 1286.4 630.6 1279.5 697.8 1231.3 697.7 1136.1 703 1125.1"/><polygon class="cls-3" points="753.2 1525.1 754.2 1334.2 652.9 1265.2 651.2 1270.2 747.6 1337.2 748.3 1528.1 753.2 1525.1"/><polygon class="cls-3" points="754.2 1525.05 833 1568.1 833 1661.88 827 1656.1 827 1571.98 750.7 1530.5 652.2 1595.7 652.2 1712.78 647 1720.2 647 1593.89 751 1521.7 754.2 1525.05"/></g><g id="lights"><g id="building1"><rect class="cls-4" x="14.5" y="862.6" width="15.8" height="22.7"/><rect class="cls-4" x="42.9" y="862.6" width="15.8" height="22.7"/><rect class="cls-4" x="100.1" y="862.6" width="15.8" height="22.7"/><rect class="cls-4" x="128.7" y="862.6" width="15.8" height="22.7"/><rect class="cls-4" x="14.5" y="903.9" width="15.8" height="22.7"/><rect class="cls-4" x="42.9" y="903.9" width="15.8" height="22.7"/><rect class="cls-4" x="71.4" y="903.9" width="15.8" height="22.7"/><rect class="cls-4" x="100.1" y="903.9" width="15.8" height="22.7"/><rect class="cls-4" x="128.7" y="903.9" width="15.8" height="22.7"/><rect class="cls-4" x="14.5" y="945.6" width="15.8" height="22.7"/><rect class="cls-4" x="42.9" y="945.6" width="15.8" height="22.7"/><rect class="cls-4" x="100.1" y="945.6" width="15.8" height="22.7"/><rect class="cls-4" x="128.7" y="945.6" width="15.8" height="22.7"/><rect class="cls-4" x="42.7" y="987.5" width="15.8" height="22.7"/><rect class="cls-4" x="71.2" y="987.5" width="15.8" height="22.7"/><rect class="cls-4" x="128.5" y="987.5" width="15.8" height="22.7"/><rect class="cls-4" x="13.8" y="1025.5" width="15.8" height="22.7"/><rect class="cls-4" x="70.7" y="1025.5" width="15.8" height="22.7"/><rect class="cls-4" x="42.2" y="1064.6" width="15.8" height="20.9"/><rect class="cls-4" x="70.7" y="1064.6" width="15.8" height="20.9"/><rect class="cls-4" x="155.7" y="1062.4" width="15.8" height="20.9"/><rect class="cls-4" x="157.2" y="861.6" width="15.8" height="22.7"/><rect class="cls-4" x="157.2" y="944.7" width="15.8" height="22.7"/><rect class="cls-4" x="157" y="986.5" width="15.8" height="22.7"/><rect class="cls-4" x="156.5" y="1024.5" width="15.8" height="22.7"/><rect class="cls-4" x="41.8" y="1141.6" width="15.8" height="16.7"/><rect class="cls-4" x="127" y="1097.7" width="15.8" height="16.7"/><rect class="cls-4" x="157.2" y="1138.2" width="15.8" height="16.7"/></g><g id="building2"><rect class="cls-4" x="203.2" y="953.2" width="13.9" height="11.7"/><rect class="cls-4" x="228.2" y="953.2" width="13.9" height="11.7"/><rect class="cls-4" x="278.5" y="953.2" width="13.9" height="11.7"/><rect class="cls-4" x="204" y="981.7" width="13.9" height="11.7"/><rect class="cls-4" x="229" y="981.7" width="13.9" height="11.7"/><rect class="cls-4" x="204" y="1011.4" width="13.9" height="11.7"/><rect class="cls-4" x="254" y="1011.4" width="13.9" height="11.7"/><rect class="cls-4" x="204" y="1040.1" width="13.9" height="11.7"/><rect class="cls-4" x="203.2" y="1069.4" width="13.9" height="11.7"/></g><g id="building3"><rect class="cls-4" x="501.2" y="974.7" width="19.5" height="9.6"/><rect class="cls-4" x="438.7" y="993.1" width="19.5" height="9.6"/><rect class="cls-4" x="470.8" y="993.1" width="19.5" height="9.6"/><rect class="cls-4" x="501.8" y="993.1" width="19.5" height="9.6"/><rect class="cls-4" x="471.4" y="1011.3" width="19.5" height="9.6"/><rect class="cls-4" x="502.4" y="1011.3" width="19.5" height="9.6"/><rect class="cls-4" x="471.4" y="1043.4" width="19.5" height="9.6"/><rect class="cls-4" x="501.2" y="1063.4" width="19.5" height="9.6"/></g><g id="building4"><rect class="cls-4" x="639" y="1032.7" width="9.4" height="12.7"/><rect class="cls-4" x="639.6" y="1057.6" width="9.4" height="12.7"/><rect class="cls-4" x="656.6" y="1057.6" width="9.4" height="12.7"/><rect class="cls-4" x="640" y="1083.4" width="9.4" height="12.7"/></g><g id="building5"><rect class="cls-4" x="904.7" y="952.3" width="10.1" height="16.2"/><rect class="cls-4" x="923" y="952.3" width="10.1" height="16.2"/><rect class="cls-4" x="904.7" y="979.7" width="10.1" height="16.2"/><rect class="cls-4" x="923" y="979.7" width="10.1" height="16.2"/><rect class="cls-4" x="867.2" y="952.3" width="10.1" height="16.2"/><rect class="cls-4" x="848.9" y="952.3" width="10.1" height="16.2"/><rect class="cls-4" x="848.9" y="979.7" width="10.1" height="16.2"/><rect class="cls-4" x="848.9" y="1005.2" width="10.1" height="16.2"/></g><g id="building6"><rect class="cls-4" x="1027.9" y="924.8" width="7.3" height="30.8"/><rect class="cls-4" x="1013" y="924.8" width="7.3" height="30.8"/><rect class="cls-4" x="1027.9" y="969" width="7.3" height="30.8"/><rect class="cls-4" x="1027.9" y="1018" width="7.3" height="20"/><rect class="cls-4" x="1013.1" y="1054.5" width="10.1" height="14"/></g><g id="building7"><rect class="cls-4" x="1153.7" y="793.9" width="20.2" height="35.5"/><rect class="cls-4" x="1190" y="793.9" width="20.2" height="35.5"/><rect class="cls-4" x="1226.4" y="793.9" width="20.2" height="35.5"/><rect class="cls-4" x="1263.1" y="793.9" width="20.2" height="35.5"/><rect class="cls-4" x="1337.9" y="793.9" width="20.2" height="35.5"/><rect class="cls-4" x="1337.9" y="860.9" width="20.2" height="35.5"/><rect class="cls-4" x="1337.9" y="928.9" width="20.2" height="35.5"/><rect class="cls-4" x="1337.9" y="1001.2" width="20.2" height="35.5"/><rect class="cls-4" x="1299.6" y="1001.3" width="20.2" height="35.5"/><rect class="cls-4" x="1299.6" y="1060.7" width="20.2" height="26.9"/><rect class="cls-4" x="1153.7" y="860.9" width="20.2" height="35.5"/><rect class="cls-4" x="1153.7" y="928.9" width="20.2" height="35.5"/><rect class="cls-4" x="1255.9" y="1109.1" width="20.2" height="22.7"/></g></g><g id="falling_lights" data-name="falling lights"><g id="_Group_" data-name="&lt;Group&gt;"><rect class="cls-4" x="85.3" y="1244.9" width="15.8" height="16.7"/><rect class="cls-4" x="85.3" y="1275.1" width="15.8" height="16.7"/><rect class="cls-4" x="85.3" y="1305.6" width="15.8" height="16.7"/><rect class="cls-4" x="85.3" y="1335.7" width="15.8" height="16.7"/><rect class="cls-4" x="115" y="1305.6" width="15.8" height="16.7"/><rect class="cls-4" x="115" y="1335.7" width="15.8" height="16.7"/></g><g id="_Group_2" data-name="&lt;Group&gt;"><rect class="cls-4" x="100.1" y="1598.8" width="15.8" height="16.7"/><rect class="cls-4" x="100.1" y="1629.1" width="15.8" height="16.7"/><rect class="cls-4" x="100.1" y="1659.5" width="15.8" height="16.7"/></g><g id="_Group_3" data-name="&lt;Group&gt;"><rect class="cls-4" x="202.3" y="1335.7" width="15.8" height="16.7"/><rect class="cls-4" x="202.3" y="1365.8" width="15.8" height="16.7"/><rect class="cls-4" x="228.1" y="1365.8" width="15.8" height="16.7"/></g><g id="_Group_4" data-name="&lt;Group&gt;"><rect class="cls-4" x="285.1" y="1506.7" width="15.8" height="16.7"/><rect class="cls-4" x="285.1" y="1536.8" width="15.8" height="16.7"/></g><g id="_Group_5" data-name="&lt;Group&gt;"><rect class="cls-4" x="299.5" y="1878.77" width="16.7" height="15.8"/><rect class="cls-4" x="269.3" y="1878.77" width="16.7" height="15.8"/><rect class="cls-4" x="238.8" y="1878.77" width="16.7" height="15.8"/></g><g id="_Group_6" data-name="&lt;Group&gt;"><rect class="cls-4" x="401.6" y="1211.9" width="15.8" height="16.7"/><rect class="cls-4" x="401.6" y="1244.9" width="15.8" height="16.7"/></g><g id="_Group_7" data-name="&lt;Group&gt;"><rect class="cls-4" x="299.7" y="2017.3" width="16.7" height="15.8"/><rect class="cls-4" x="269.4" y="2017.3" width="16.7" height="15.8"/><rect class="cls-4" x="238.9" y="2017.3" width="16.7" height="15.8"/></g><rect class="cls-4" x="507.3" y="1586.2" width="15.8" height="16.7"/><g id="_Group_8" data-name="&lt;Group&gt;"><rect class="cls-4" x="546.9" y="1250.1" width="15.8" height="16.7"/><rect class="cls-4" x="546.9" y="1283.1" width="15.8" height="16.7"/><rect class="cls-4" x="546.9" y="1184.9" width="15.8" height="16.7"/><rect class="cls-4" x="546.9" y="1217.9" width="15.8" height="16.7"/><rect class="cls-4" x="574.7" y="1150.3" width="15.8" height="16.7"/><rect class="cls-4" x="574.7" y="1184.3" width="15.8" height="16.7"/></g><g id="_Group_9" data-name="&lt;Group&gt;"><rect class="cls-4" x="658.7" y="1666.5" width="15.8" height="16.7"/><rect class="cls-4" x="658.7" y="1601.2" width="15.8" height="16.7"/><rect class="cls-4" x="658.7" y="1634.2" width="15.8" height="16.7"/><rect class="cls-4" x="686.5" y="1600.6" width="15.8" height="16.7"/></g><g id="_Group_10" data-name="&lt;Group&gt;"><rect class="cls-4" x="722.8" y="1466.1" width="15.8" height="16.7"/><rect class="cls-4" x="722.8" y="1496.3" width="15.8" height="16.7"/></g><g id="_Group_11" data-name="&lt;Group&gt;"><rect class="cls-4" x="839" y="1340.7" width="15.8" height="16.7"/><rect class="cls-4" x="839" y="1373.7" width="15.8" height="16.7"/><rect class="cls-4" x="839" y="1407.7" width="15.8" height="16.7"/></g><g id="_Group_12" data-name="&lt;Group&gt;"><rect class="cls-4" x="796.7" y="1216.7" width="15.8" height="16.7"/><rect class="cls-4" x="771.2" y="1218" width="15.8" height="16.7"/><rect class="cls-4" x="771.2" y="1251" width="15.8" height="16.7"/></g><g id="_Group_13" data-name="&lt;Group&gt;"><rect class="cls-4" x="1020.1" y="1128.3" width="15.8" height="16.7"/><rect class="cls-4" x="1020.1" y="1162.8" width="15.8" height="16.7"/><rect class="cls-4" x="1020.1" y="1195.8" width="15.8" height="16.7"/><rect class="cls-4" x="1020.1" y="1229.8" width="15.8" height="16.7"/><rect class="cls-4" x="994.7" y="1196" width="15.8" height="16.7"/><rect class="cls-4" x="994.7" y="1230.5" width="15.8" height="16.7"/><rect class="cls-4" x="994.7" y="1263.4" width="15.8" height="16.7"/><rect class="cls-4" x="994.7" y="1297.5" width="15.8" height="16.7"/><rect class="cls-4" x="1020.1" y="1297.5" width="15.8" height="16.7"/><rect class="cls-4" x="1020.1" y="1330.4" width="15.8" height="16.7"/></g><g id="_Group_14" data-name="&lt;Group&gt;"><rect class="cls-4" x="1258.1" y="1170.7" width="15.8" height="16.7"/><rect class="cls-4" x="1258.1" y="1205.2" width="15.8" height="16.7"/><rect class="cls-4" x="1258.1" y="1238.2" width="15.8" height="16.7"/><rect class="cls-4" x="1258.1" y="1272.2" width="15.8" height="16.7"/></g><g id="_Group_15" data-name="&lt;Group&gt;"><rect class="cls-4" x="1217.2" y="1356.5" width="15.8" height="16.7"/><rect class="cls-4" x="1191.7" y="1356.8" width="15.8" height="16.7"/><rect class="cls-4" x="1191.7" y="1388.8" width="15.8" height="16.7"/></g><g id="_Group_16" data-name="&lt;Group&gt;"><rect class="cls-4" x="1114.6" y="1059.5" width="15.8" height="16.7"/><rect class="cls-4" x="1114.6" y="1094" width="15.8" height="16.7"/></g><g id="_Group_17" data-name="&lt;Group&gt;"><rect class="cls-4" x="1141.7" y="1578.4" width="15.8" height="16.7"/><rect class="cls-4" x="1116.2" y="1578.7" width="15.8" height="16.7"/><rect class="cls-4" x="1116.2" y="1610.7" width="15.8" height="16.7"/><rect class="cls-4" x="1141.7" y="1547.8" width="15.8" height="16.7"/></g><g id="_Group_18" data-name="&lt;Group&gt;"><rect class="cls-4" x="711.9" y="1878.77" width="16.7" height="15.8"/><rect class="cls-4" x="681.7" y="1878.77" width="16.7" height="15.8"/><rect class="cls-4" x="651.2" y="1878.77" width="16.7" height="15.8"/></g><g id="_Group_19" data-name="&lt;Group&gt;"><rect class="cls-4" x="712.1" y="2017.3" width="16.7" height="15.8"/><rect class="cls-4" x="681.8" y="2017.3" width="16.7" height="15.8"/><rect class="cls-4" x="651.3" y="2017.3" width="16.7" height="15.8"/></g><g id="_Group_20" data-name="&lt;Group&gt;"><rect class="cls-4" x="1117.85" y="1879.77" width="16.7" height="15.8"/><rect class="cls-4" x="1087.65" y="1879.77" width="16.7" height="15.8"/><rect class="cls-4" x="1057.15" y="1879.77" width="16.7" height="15.8"/></g><g id="_Group_21" data-name="&lt;Group&gt;"><rect class="cls-4" x="1118.05" y="2018.3" width="16.7" height="15.8"/><rect class="cls-4" x="1087.75" y="2018.3" width="16.7" height="15.8"/><rect class="cls-4" x="1057.25" y="2018.3" width="16.7" height="15.8"/></g></g><rect class="cls-5" x="5" width="24.77" height="24.77"/></g></g></svg>