<svg xmlns="http://www.w3.org/2000/svg" viewBox="0 0 1392.04 520.59"><defs><style>.cls-1{fill:#5a8e2d;}.cls-2{fill:#65a03f;}.cls-3{fill:#5b4528;}.cls-4{fill:#54912c;}.cls-5{fill:#83a83b;}.cls-6{fill:#99bc53;}.cls-7{fill:#c6bfab;}.cls-8{fill:#beb77f;}.cls-9{fill:#514521;}.cls-10{fill:#d6e1e8;}.cls-11{fill:#abc6ce;}.cls-12{fill:#a69b71;}.cls-13{fill:#b5ad9a;}.cls-14{fill:#6b8e28;}.cls-15{fill:#8db746;}.cls-16{fill:#97c64e;}.cls-17{fill:#4c7f2e;}.cls-18{fill:#6d9b50;}.cls-19{fill:#629143;}.cls-20{fill:#aed3cc;}</style></defs><title>tree_back</title><g id="Layer_2" data-name="Layer 2"><g id="tree_back"><g id="_Group_" data-name="&lt;Group&gt;"><path id="_Path_" data-name="&lt;Path&gt;" class="cls-1" d="M186.45,277.56s-4.47-7.22-8.31-6.62c0,0,2.56-9.63-7.67-11.43,0,0-5.11-23.46-24.28-3.61,0,0-17.26-22.57-26.85-8,0,0-17.25,3.77-12.14,18.81,0,0-17.89,1.2-16.62,13.84,0,0-9.58,1.8-6.39,17.45,0,0-10.86,6-10.86,16.84,0,0-15.34-11.43-22.37,0,0,0-28.12,4.81-22.37,34.3,0,0-7.67,9,5.11,16.84,0,0,3.2,13.84,10.87,14.44,0,0,3.19,12,21.09,7.22,0,0,5.75,10.23,10.86,14.44,0,0,0,14.44,5.12,18s10.22,12,17.89,12,10.23,15,28.12-7.22c0,0,15.34,10.83,27.49-10.83,0,0,16-.6,18.53-10.22,0,0,16-12,16-19.86,0,0,19.81-10.23,16-31.89,0,0,13.76-28.27.49-34.89,0,0,3.34-20.46-5.61-19.25C200.51,298,200.51,272.14,186.45,277.56Z"/><path id="_Path_2" data-name="&lt;Path&gt;" class="cls-2" d="M157.05,267.57s6.34-17-6.73-14.9c0,0-8,10.42-6.69,14.9C143.63,267.57,145,278.83,157.05,267.57Z"/><path id="_Path_3" data-name="&lt;Path&gt;" class="cls-2" d="M185.36,288.87s5.07-12.35-3.38-11.93-10.71,4.26-13.52,8.95c0,0-7.89,3-9,7.24,0,0-12.2-7.67-16.8,8.1,0,0-15.68,13.21,0,20.88,0,0,10,1.7,12.29-4.69s5.2-7.67,7.67.43c0,0-3,5.54,0,6.39,0,0-4.85,11.5,6.42,11.5s13.52-7.67,10.71-11.93c0,0,4.5-5.54,4.5-9.37,0,0,9.78-7.67,2.64-14.92C186.87,299.52,191.56,288,185.36,288.87Z"/><polygon id="_Path_4" data-name="&lt;Path&gt;" class="cls-3" points="181.81 273.84 179.8 280.63 179.29 283.43 185.81 269.4 181.81 273.84"/><path id="_Path_5" data-name="&lt;Path&gt;" class="cls-2" d="M153.22,323.81s6.23-21.65,5.37-27.69a25.55,25.55,0,0,0-2.65,11.49s-7.43-15.6-7.12-15.75-.31.15-.31.15,2.47,14.3,5.08,17.31S153.22,323.81,153.22,323.81Z"/><path id="_Path_6" data-name="&lt;Path&gt;" class="cls-3" d="M175,314.44s-3.91,23-9,33.23c0,0-3.37-3.83-2.52-11.93,0,0-3.05,6.82,2.52,16.62C166,352.36,177.51,325.09,175,314.44Z"/><path id="_Path_7" data-name="&lt;Path&gt;" class="cls-2" d="M129.89,256.92s2.24-12.83-4.15-12l-6.4.79s-16.61,4-12.14,20c0,0-11.5,8-12.78,17.58,0,0-10.23,4.15-10.23,15.66,0,0-14.38,5.11-10.22,19.49,0,0-10.87-4.16-12.47-2.88s-8.31-1-8.94,2.88c0,0-6.23-.21-7.18.21s-11.68,6.18-9.44,16.09,5.43,5,5.43-1.49c0,0,6.71,3.4,7-2.35,0,0,21.09,9.91,20.13-5.43,0,0,6.39-5.11,8.31-6.39s6.39,3.83,8.31-4.16c0,0,10.55-2.87,5.75,6.4,0,0-2.55,14.06,6.07,13.74s9.59-3.52,11.19-4.16,5.11-3.62,5.11,2.35,6.07,11.39,12.79,4.68c0,0,11.18-5.11,5.75-13.1,0,0,6.07-13.42-6.71-11.18,0,0-7.84,9.37-4.72-1.71a10.46,10.46,0,0,0,2.8-12s11.5,1.78,11.82-6.93c0,0,10.59-15.12,8.49-17,0,0,2.38-16.62-12-7.35C131.49,268.53,140.44,255.53,129.89,256.92Z"/><path id="_Path_8" data-name="&lt;Path&gt;" class="cls-4" d="M113,276.93H123.5s-2.88,5.11-5.27,6.5-8.79,8.43-7.19,5.55C113.3,284.91,117.11,278.62,113,276.93Z"/><path id="_Path_9" data-name="&lt;Path&gt;" class="cls-3" d="M128.27,307.54s-.82-18.6.77-22.25c0,0,1.14,7.83,0,11.56,0,0,7.78-9.74,7.58-9.89s-1.08,2.7-1.08,2.7-4.78,6-5.13,8.7A76.87,76.87,0,0,1,128.27,307.54Z"/><path id="_Path_10" data-name="&lt;Path&gt;" class="cls-3" d="M148.51,344.26s-3.92,9.27-3.28,13.11-3.2,11.82-5.43,3.51-12.93-33.44-11.74-41.33,2.15-7.72,2.15-7.72c-.47,12.55-1.05,10.48-.64,12,1,3.52,8.65,22.32,8.65,22.32s5.45-7.72,5.27-10.39c0,0,.78-.74-4.65,13l3.19,7.35S145.07,341.39,148.51,344.26Z"/><path id="_Path_11" data-name="&lt;Path&gt;" class="cls-2" d="M165.46,359.18s-1.7-10.23-8-3.41,1.17,11.54,5.09,8.75S165.46,359.18,165.46,359.18Z"/><path id="_Path_12" data-name="&lt;Path&gt;" class="cls-3" d="M179.29,340.43s-3.92,23-8.18,24.09C171.11,364.52,181.5,369.36,179.29,340.43Z"/><polygon id="_Path_13" data-name="&lt;Path&gt;" class="cls-3" points="191.3 385.36 201.7 377.09 205.45 373.43 179.99 388.67 191.3 385.36"/><path id="_Path_14" data-name="&lt;Path&gt;" class="cls-3" d="M128.06,390.71s-13.22-38.78-14.91-38.56-19.58-11.54-21.29-14-1.3,7.37,18.1,17.6l-18.74,1.7,18.42,1.91s5.63,5.34,6.07,9.17-14-.43-14-.43,1.13,4.27,15.48,6.18l10.92,18.54"/><path id="_Path_15" data-name="&lt;Path&gt;" class="cls-2" d="M91.84,393.76s11.11,7.41,12.36-1-2.07-11.34-6.11-15c0,0-1.37-8.32-5.33-10.27,0,0,9.92-10.45-4.63-18.07,0,0-9.86-18-20.47-4.11,0,0-3.64,9.51,2.18,13s6.5,6.6-1.93,7.44c0,0-4.83-4.07-6.27-1.26,0,0-10.32-7-12.54,4s4.86,14.76,9.59,12.84c0,0,4.54,5.51,8.3,6.27,0,0,5.6,11.09,14.11,5.52C81.1,393.15,91.45,400,91.84,393.76Z"/></g><g id="_Group_2" data-name="&lt;Group&gt;"><path id="_Path_16" data-name="&lt;Path&gt;" class="cls-5" d="M264.28,294.26s-2.77-4.47-5.14-4.09c0,0,1.58-6-4.75-7.08,0,0-3.16-14.51-15-2.23,0,0-10.68-14-16.61-4.93,0,0-10.68,2.33-7.51,11.63,0,0-11.07.75-10.28,8.56,0,0-5.93,1.12-4,10.8,0,0-6.72,3.72-6.72,10.42,0,0-9.49-7.07-13.84,0,0,0-17.4,3-13.84,21.22,0,0-4.74,5.58,3.17,10.42,0,0,2,8.56,6.72,8.93,0,0,2,7.44,13.05,4.47,0,0,3.55,6.32,6.72,8.93,0,0,0,8.93,3.16,11.17s6.33,7.44,11.07,7.44,6.33,9.31,17.4-4.47c0,0,9.49,6.7,17-6.7,0,0,9.89-.37,11.47-6.32,0,0,9.88-7.45,9.88-12.29,0,0,12.26-6.32,9.89-19.72,0,0,8.52-17.5.3-21.59,0,0,2.07-12.66-3.46-11.91C273,306.92,273,290.91,264.28,294.26Z"/><path id="_Path_17" data-name="&lt;Path&gt;" class="cls-6" d="M246.09,288.08s3.92-10.53-4.17-9.22c0,0-4.93,6.45-4.13,9.22C237.79,288.08,238.63,295,246.09,288.08Z"/><path id="_Path_18" data-name="&lt;Path&gt;" class="cls-6" d="M263.6,301.26s3.14-7.64-2.09-7.38-6.62,2.64-8.37,5.53c0,0-4.88,1.85-5.57,4.49,0,0-7.55-4.75-10.4,5,0,0-9.7,8.18,0,12.92,0,0,6.21,1.06,7.61-2.9s3.21-4.74,4.74.27c0,0-1.88,3.42,0,3.95,0,0-3,7.12,4,7.12s8.37-4.75,6.63-7.38c0,0,2.79-3.43,2.79-5.8,0,0,6-4.75,1.63-9.23C264.54,307.85,267.44,300.73,263.6,301.26Z"/><path id="_Path_19" data-name="&lt;Path&gt;" class="cls-3" d="M247,303.11s2-12.79,2-15.1.79-7.84,1.58-8.1-.6,8.14-.79,11.6S247,303.11,247,303.11Z"/><path id="_Path_20" data-name="&lt;Path&gt;" class="cls-3" d="M243.72,322.88s3.85-13.4,3.32-17.14a15.91,15.91,0,0,0-1.64,7.12s-4.6-9.66-4.4-9.75-.2.09-.2.09,1.53,8.85,3.15,10.71S243.72,322.88,243.72,322.88Z"/><path id="_Path_21" data-name="&lt;Path&gt;" class="cls-3" d="M257.16,317.08s-2.42,14.23-5.56,20.56c0,0-2.08-2.37-1.56-7.38,0,0-1.89,4.21,1.56,10.28C251.6,340.54,258.74,323.67,257.16,317.08Z"/><path id="_Path_22" data-name="&lt;Path&gt;" class="cls-6" d="M229.28,281.49s1.39-7.94-2.57-7.45l-4,.49s-10.28,2.48-7.51,12.36c0,0-7.12,4.95-7.91,10.88a10.72,10.72,0,0,0-6.33,9.68s-8.89,3.17-6.32,12.06c0,0-6.73-2.57-7.71-1.77s-5.14-.6-5.54,1.77a26.88,26.88,0,0,0-4.44.13c-.59.27-7.22,3.83-5.84,10s3.36,3.1,3.36-.92c0,0,4.15,2.1,4.35-1.45,0,0,13,6.12,12.46-3.37,0,0,3.95-3.16,5.14-3.95s3.95,2.37,5.14-2.57c0,0,6.52-1.78,3.55,4,0,0-1.58,8.7,3.76,8.51s5.93-2.18,6.92-2.57S219,325,219,328.68s3.76,7.05,7.91,2.89c0,0,6.92-3.16,3.56-8.1,0,0,3.76-8.3-4.15-6.92,0,0-4.85,5.8-2.92-1.06a6.46,6.46,0,0,0,1.73-7.44s7.12,1.1,7.32-4.3c0,0,6.55-9.34,5.25-10.53,0,0,1.47-10.28-7.43-4.55C230.27,288.67,235.81,280.63,229.28,281.49Z"/><path id="_Path_23" data-name="&lt;Path&gt;" class="cls-5" d="M218.81,293.87h6.52s-1.78,3.17-3.26,4-5.44,5.21-4.45,3.43C219,298.81,221.38,294.92,218.81,293.87Z"/><path id="_Path_24" data-name="&lt;Path&gt;" class="cls-3" d="M228.28,312.81s-.5-11.51.48-13.76c0,0,.7,4.84,0,7.15,0,0,4.81-6,4.69-6.13s-.67,1.68-.67,1.68-2.95,3.71-3.17,5.38A48.1,48.1,0,0,1,228.28,312.81Z"/><polygon id="_Path_25" data-name="&lt;Path&gt;" class="cls-3" points="180.51 321.55 180.1 317.19 179.75 315.46 179.24 325.02 180.51 321.55"/><path id="_Path_26" data-name="&lt;Path&gt;" class="cls-3" d="M240.8,335.53s-2.42,5.73-2,8.1-2,7.32-3.36,2.18-8-20.69-7.26-25.57,1.33-4.78,1.33-4.78c-.29,7.77-.65,6.48-.39,7.42.59,2.17,5.35,13.8,5.35,13.8s3.37-4.78,3.26-6.42c0,0,.48-.46-2.88,8l2,4.54S238.68,333.75,240.8,335.53Z"/><path id="_Path_27" data-name="&lt;Path&gt;" class="cls-6" d="M251.29,344.76s-1-6.33-5-2.11.72,7.14,3.14,5.41S251.29,344.76,251.29,344.76Z"/><path id="_Path_28" data-name="&lt;Path&gt;" class="cls-3" d="M259.85,333.16s-2.43,14.25-5.06,14.9C254.79,348.06,261.21,351.05,259.85,333.16Z"/><polygon id="_Path_29" data-name="&lt;Path&gt;" class="cls-3" points="267.27 360.95 273.71 355.84 276.03 353.57 260.28 363 267.27 360.95"/><path id="_Path_30" data-name="&lt;Path&gt;" class="cls-3" d="M228.15,364.26s-8.18-24-9.22-23.85-12.12-7.14-13.17-8.65S205,336.32,217,342.65l-11.59,1.05,11.4,1.18s3.48,3.3,3.75,5.67-8.69-.26-8.69-.26.7,2.64,9.58,3.82l6.75,11.47"/><path id="_Path_31" data-name="&lt;Path&gt;" class="cls-6" d="M205.74,366.15s6.88,4.58,7.65-.59-1.28-7-3.78-9.3c0,0-.85-5.15-3.3-6.35,0,0,6.14-6.46-2.86-11.18,0,0-6.1-11.12-12.66-2.54,0,0-2.26,5.88,1.34,8s4,4.08-1.19,4.6c0,0-3-2.52-3.88-.78,0,0-6.38-4.34-7.76,2.49s3,9.14,5.94,8c0,0,2.81,3.41,5.13,3.88,0,0,3.46,6.86,8.73,3.41C199.1,365.77,205.5,370,205.74,366.15Z"/></g><g id="_Group_3" data-name="&lt;Group&gt;"><rect id="_Rectangle_" data-name="&lt;Rectangle&gt;" class="cls-7" x="265.14" y="357.62" width="91.93" height="63.37"/><rect id="_Rectangle_2" data-name="&lt;Rectangle&gt;" class="cls-8" x="271.21" y="383.32" width="20.21" height="40.52"/><rect id="_Rectangle_3" data-name="&lt;Rectangle&gt;" class="cls-9" x="272.41" y="383.32" width="17.38" height="40.52"/><rect id="_Rectangle_4" data-name="&lt;Rectangle&gt;" class="cls-10" x="274.31" y="384.63" width="13.84" height="20.17"/><polygon id="_Path_32" data-name="&lt;Path&gt;" class="cls-7" points="333.88 324.53 314.07 296.88 288.74 322.97 333.88 324.53"/><polygon id="_Path_33" data-name="&lt;Path&gt;" class="cls-11" points="336.64 326.31 357.07 353.63 264.53 353.87 285.74 324.53 336.64 326.31"/><rect id="_Rectangle_5" data-name="&lt;Rectangle&gt;" class="cls-12" x="296.47" y="326.33" width="12.02" height="27.29"/><rect id="_Rectangle_6" data-name="&lt;Rectangle&gt;" class="cls-12" x="313.34" y="326.33" width="12.02" height="27.29"/><rect id="_Rectangle_7" data-name="&lt;Rectangle&gt;" class="cls-10" x="297.94" y="327.36" width="9.22" height="25.35"/><rect id="_Rectangle_8" data-name="&lt;Rectangle&gt;" class="cls-10" x="314.78" y="327.36" width="9.22" height="25.35"/><polygon id="_Path_34" data-name="&lt;Path&gt;" class="cls-13" points="290.54 323 333.28 323 336.64 326 287.41 326 290.54 323"/><polygon id="_Path_35" data-name="&lt;Path&gt;" class="cls-13" points="256.46 353.44 364.15 353.63 360.49 357.77 260.51 357.62 256.46 353.44"/><polygon id="_Path_36" data-name="&lt;Path&gt;" class="cls-13" points="261.81 353.67 313.22 293.6 360.48 354 357.07 354 313.47 298.43 264.93 353.52 261.81 353.67"/><rect id="_Rectangle_9" data-name="&lt;Rectangle&gt;" class="cls-8" x="313.34" y="375.65" width="31.1" height="34.72"/><rect id="_Rectangle_10" data-name="&lt;Rectangle&gt;" class="cls-10" x="315.28" y="376.96" width="27.36" height="30.34"/><rect id="_Rectangle_11" data-name="&lt;Rectangle&gt;" class="cls-8" x="271.21" y="372.02" width="20.28" height="11.3"/><rect id="_Rectangle_12" data-name="&lt;Rectangle&gt;" class="cls-10" x="272.41" y="374.04" width="17.38" height="6.77"/></g><g id="_Group_4" data-name="&lt;Group&gt;"><path id="_Path_37" data-name="&lt;Path&gt;" class="cls-14" d="M280.83,364.19s-3.59-5.79-6.66-5.31c0,0,2.05-7.71-6.14-9.16,0,0-4.1-18.8-19.47-2.89,0,0-13.82-18.09-21.51-6.39,0,0-13.82,3-9.73,15.07,0,0-14.34,1-13.31,11.09,0,0-7.68,1.44-5.12,14,0,0-8.71,4.82-8.71,13.5,0,0-12.29-9.16-17.93,0,0,0-22.53,3.85-17.92,27.48,0,0-6.15,7.23,4.1,13.5,0,0,2.56,11.08,8.7,11.57,0,0,2.56,9.64,16.9,5.78,0,0,4.61,8.2,8.71,11.57,0,0,0,11.57,4.1,14.47s8.19,9.64,14.34,9.64,8.19,12.05,22.53-5.79c0,0,12.29,8.68,22-8.68,0,0,12.81-.48,14.86-8.19,0,0,12.8-9.64,12.8-15.91,0,0,15.88-8.2,12.8-25.55,0,0,11-22.66.4-28,0,0,2.68-16.39-4.49-15.42C292.1,380.58,292.1,359.85,280.83,364.19Z"/><path id="_Path_38" data-name="&lt;Path&gt;" class="cls-15" d="M257.27,356.18s5.08-13.64-5.4-11.94c0,0-6.38,8.35-5.35,11.94C246.52,356.18,247.61,365.2,257.27,356.18Z"/><path id="_Path_39" data-name="&lt;Path&gt;" class="cls-15" d="M280,373.25s4.07-9.9-2.7-9.56-8.58,3.42-10.84,7.17c0,0-6.32,2.39-7.23,5.81,0,0-9.77-6.15-13.46,6.48,0,0-12.57,10.59,0,16.73,0,0,8.05,1.37,9.85-3.75s4.16-6.15,6.15.34c0,0-2.44,4.44,0,5.12,0,0-3.89,9.22,5.14,9.22s10.84-6.15,8.58-9.56c0,0,3.61-4.44,3.61-7.51,0,0,7.84-6.15,2.11-11.95C281.16,381.79,284.92,372.57,280,373.25Z"/><path id="_Path_40" data-name="&lt;Path&gt;" class="cls-3" d="M258.49,375.64S261,359.08,261,356.09s1-10.15,2-10.49-.77,10.54-1,15S258.49,375.64,258.49,375.64Z"/><polygon id="_Path_41" data-name="&lt;Path&gt;" class="cls-3" points="277.11 361.21 275.49 366.65 275.09 368.89 280.31 357.65 277.11 361.21"/><path id="_Path_42" data-name="&lt;Path&gt;" class="cls-3" d="M254.2,401.25s5-17.35,4.3-22.19a20.51,20.51,0,0,0-2.12,9.21s-6-12.51-5.71-12.63l-.25.12s2,11.46,4.07,13.88S254.2,401.25,254.2,401.25Z"/><path id="_Path_43" data-name="&lt;Path&gt;" class="cls-16" d="M271.61,393.74s-3.13,18.43-7.2,26.63c0,0-2.7-3.07-2-9.56,0,0-2.45,5.46,2,13.31C264.41,424.12,273.66,402.27,271.61,393.74Z"/><path id="_Path_44" data-name="&lt;Path&gt;" class="cls-15" d="M235.5,347.64s1.8-10.28-3.32-9.64l-5.13.63s-13.31,3.21-9.73,16c0,0-9.22,6.4-10.24,14.09,0,0-8.19,3.33-8.19,12.54,0,0-11.53,4.1-8.2,15.62,0,0-8.7-3.32-10-2.3s-6.65-.77-7.17,2.3c0,0-5-.17-5.75.17s-9.35,5-7.56,12.89,4.35,4,4.35-1.19c0,0,5.38,2.73,5.64-1.88,0,0,16.9,7.94,16.13-4.35,0,0,5.12-4.1,6.66-5.12s5.12,3.07,6.65-3.33c0,0,8.45-2.31,4.61,5.12,0,0-2,11.27,4.87,11s7.68-2.82,9-3.33,4.1-2.9,4.1,1.88,4.86,9.13,10.24,3.76c0,0,9-4.1,4.61-10.5,0,0,4.87-10.76-5.38-9,0,0-6.28,7.52-3.78-1.36a8.4,8.4,0,0,0,2.25-9.65s9.22,1.43,9.47-5.56c0,0,8.49-12.11,6.8-13.64,0,0,1.91-13.32-9.62-5.89C236.78,357,244,346.53,235.5,347.64Z"/><path id="_Path_45" data-name="&lt;Path&gt;" class="cls-14" d="M221.93,363.68h8.45s-2.3,4.1-4.22,5.21-7,6.75-5.76,4.45C222.21,370.08,225.26,365,221.93,363.68Z"/><path id="_Path_46" data-name="&lt;Path&gt;" class="cls-3" d="M234.2,388.21s-.65-14.91.63-17.83c0,0,.9,6.27,0,9.26,0,0,6.23-7.8,6.08-7.93s-.87,2.17-.87,2.17-3.83,4.81-4.11,7A61.26,61.26,0,0,1,234.2,388.21Z"/><polygon id="_Path_47" data-name="&lt;Path&gt;" class="cls-3" points="172.33 399.53 171.8 393.88 171.34 391.65 170.68 404.03 172.33 399.53"/><path id="_Path_48" data-name="&lt;Path&gt;" class="cls-3" d="M250.42,417.64s-3.14,7.42-2.62,10.5-2.57,9.47-4.36,2.81-10.36-26.79-9.4-33.11,1.72-6.19,1.72-6.19c-.38,10.06-.84,8.39-.51,9.6.77,2.81,6.93,17.88,6.93,17.88s4.37-6.19,4.22-8.32c0,0,.63-.6-3.73,10.41l2.56,5.89S247.67,415.33,250.42,417.64Z"/><path id="_Path_49" data-name="&lt;Path&gt;" class="cls-15" d="M264,429.59s-1.37-8.2-6.44-2.73.93,9.24,4.07,7S264,429.59,264,429.59Z"/><path id="_Path_50" data-name="&lt;Path&gt;" class="cls-3" d="M275.09,414.56S272,433,268.54,433.87C268.54,433.87,276.86,437.75,275.09,414.56Z"/><polygon id="_Path_51" data-name="&lt;Path&gt;" class="cls-3" points="226.86 344.09 222.44 338.55 220.4 336.5 227.88 349.69 226.86 344.09"/><polygon id="_Path_52" data-name="&lt;Path&gt;" class="cls-3" points="284.71 450.57 293.05 443.94 296.05 441 275.65 453.22 284.71 450.57"/><path id="_Path_53" data-name="&lt;Path&gt;" class="cls-3" d="M234,454.85s-10.6-31.07-11.95-30.9S206.4,414.71,205,412.76s-1,5.9,14.5,14.1l-15,1.36,14.76,1.53s4.51,4.28,4.86,7.35-11.26-.34-11.26-.34.91,3.41,12.41,4.95L234,456.56"/><path id="_Path_54" data-name="&lt;Path&gt;" class="cls-15" d="M205,457.3s8.91,5.94,9.91-.77-1.66-9.09-4.9-12c0,0-1.1-6.67-4.27-8.22,0,0,7.95-8.38-3.71-14.48,0,0-7.9-14.41-16.4-3.3,0,0-2.92,7.62,1.74,10.4s5.21,5.29-1.54,6c0,0-3.87-3.26-5-1,0,0-8.27-5.62-10,3.23s3.89,11.84,7.68,10.29c0,0,3.64,4.42,6.66,5,0,0,4.48,8.9,11.3,4.43C196.41,456.81,204.7,462.31,205,457.3Z"/></g><g id="_Group_5" data-name="&lt;Group&gt;"><path id="_Path_55" data-name="&lt;Path&gt;" class="cls-14" d="M481.51,331.92s-4.21-5.78-7.82-5.3c0,0,2.4-7.71-7.22-9.16,0,0-4.82-18.8-22.87-2.89,0,0-16.24-18.09-25.27-6.39,0,0-16.24,3-11.43,15.07,0,0-16.85,1-15.64,11.08,0,0-9,1.45-6,14,0,0-10.23,4.82-10.23,13.49,0,0-14.44-9.16-21.06,0,0,0-26.47,3.86-21.05,27.48,0,0-7.22,7.24,4.81,13.5,0,0,3,11.09,10.23,11.57,0,0,3,9.65,19.85,5.79,0,0,5.42,8.2,10.23,11.57,0,0,0,11.57,4.81,14.46s9.63,9.65,16.85,9.65,9.63,12.05,26.47-5.79c0,0,14.44,8.68,25.88-8.68,0,0,15-.48,17.44-8.19,0,0,15-9.65,15-15.91,0,0,18.65-8.2,15-25.56,0,0,13-22.65.46-28,0,0,3.15-16.39-5.28-15.42C494.74,348.32,494.74,327.58,481.51,331.92Z"/><path id="_Path_56" data-name="&lt;Path&gt;" class="cls-15" d="M453.83,323.92s6-13.64-6.34-11.94c0,0-7.5,8.35-6.29,11.94C441.2,323.92,442.48,332.94,453.83,323.92Z"/><path id="_Path_57" data-name="&lt;Path&gt;" class="cls-15" d="M480.48,341s4.77-9.9-3.18-9.56-10.08,3.41-12.73,7.17c0,0-7.43,2.39-8.49,5.8,0,0-11.49-6.14-15.82,6.49,0,0-14.76,10.58,0,16.73,0,0,9.45,1.37,11.57-3.76s4.89-6.14,7.22.35c0,0-2.86,4.43,0,5.12,0,0-4.56,9.22,6.05,9.22s12.73-6.15,10.07-9.56c0,0,4.25-4.44,4.25-7.52,0,0,9.2-6.14,2.48-12C481.9,349.52,486.31,340.31,480.48,341Z"/><path id="_Path_58" data-name="&lt;Path&gt;" class="cls-3" d="M450.22,369s5.86-17.36,5.06-22.2a18.17,18.17,0,0,0-2.49,9.22s-7-12.51-6.71-12.63l-.29.12s2.32,11.46,4.78,13.88S450.22,369,450.22,369Z"/><path id="_Path_59" data-name="&lt;Path&gt;" class="cls-16" d="M470.68,361.47s-3.68,18.44-8.46,26.64c0,0-3.18-3.08-2.37-9.56,0,0-2.88,5.46,2.37,13.31C462.22,391.86,473.08,370,470.68,361.47Z"/><path id="_Path_60" data-name="&lt;Path&gt;" class="cls-15" d="M428.26,315.38s2.11-10.28-3.91-9.64l-6,.63s-15.64,3.21-11.43,16c0,0-10.83,6.4-12,14.08,0,0-9.63,3.33-9.63,12.55,0,0-13.54,4.1-9.63,15.62,0,0-10.22-3.33-11.73-2.3s-7.82-.77-8.42,2.3c0,0-5.86-.17-6.76.17s-11,4.95-8.89,12.89,5.12,4,5.12-1.19c0,0,6.32,2.73,6.62-1.88,0,0,19.85,7.94,18.95-4.35,0,0,6-4.1,7.82-5.13s6,3.08,7.82-3.32c0,0,9.93-2.31,5.42,5.12,0,0-2.41,11.26,5.71,11s9-2.82,10.53-3.33,4.82-2.9,4.82,1.88,5.71,9.13,12,3.75c0,0,10.53-4.09,5.41-10.5,0,0,5.72-10.75-6.31-9,0,0-7.38,7.51-4.44-1.36a7.72,7.72,0,0,0,2.63-9.65s10.83,1.43,11.13-5.56c0,0,10-12.11,8-13.64,0,0,2.24-13.32-11.3-5.89C429.76,324.69,438.19,314.27,428.26,315.38Z"/><path id="_Path_61" data-name="&lt;Path&gt;" class="cls-14" d="M412.32,331.42h9.92s-2.7,4.1-5,5.21-8.27,6.75-6.77,4.44C412.64,337.81,416.23,332.78,412.32,331.42Z"/><path id="_Path_62" data-name="&lt;Path&gt;" class="cls-3" d="M426.73,356s-.77-14.91.73-17.83c0,0,1.07,6.27,0,9.26,0,0,7.32-7.81,7.14-7.93s-1,2.17-1,2.17-4.5,4.8-4.83,7A53.42,53.42,0,0,1,426.73,356Z"/><polygon id="_Path_63" data-name="&lt;Path&gt;" class="cls-3" points="354.04 367.27 353.42 361.62 352.88 359.38 352.11 371.76 354.04 367.27"/><path id="_Path_64" data-name="&lt;Path&gt;" class="cls-3" d="M445.79,385.37s-3.69,7.43-3.09,10.5-3,9.48-5.11,2.82-12.18-26.8-11-33.12,2-6.19,2-6.19c-.45,10.06-1,8.4-.6,9.61.9,2.81,8.14,17.88,8.14,17.88s5.13-6.19,5-8.32c0,0,.74-.6-4.38,10.41l3,5.89S442.55,383.07,445.79,385.37Z"/><path id="_Path_65" data-name="&lt;Path&gt;" class="cls-15" d="M461.75,397.32s-1.61-8.19-7.57-2.73,1.09,9.25,4.78,7S461.75,397.32,461.75,397.32Z"/><path id="_Path_66" data-name="&lt;Path&gt;" class="cls-3" d="M474.76,382.3s-3.68,18.47-7.69,19.31C467.07,401.61,476.84,405.48,474.76,382.3Z"/><polygon id="_Path_67" data-name="&lt;Path&gt;" class="cls-3" points="486.07 418.3 495.86 411.68 499.39 408.74 475.43 420.96 486.07 418.3"/><path id="_Path_68" data-name="&lt;Path&gt;" class="cls-3" d="M426.54,422.59s-12.45-31.07-14-30.9-18.44-9.25-20-11.19-1.22,5.9,17,14.09L391.86,396l17.34,1.53s5.29,4.27,5.71,7.35-13.22-.35-13.22-.35,1.06,3.42,14.57,5l10.28,14.85"/><path id="_Path_69" data-name="&lt;Path&gt;" class="cls-15" d="M392.44,425s10.46,5.93,11.64-.77-1.95-9.09-5.76-12c0,0-1.29-6.67-5-8.23,0,0,9.34-8.37-4.36-14.48,0,0-9.28-14.4-19.27-3.29,0,0-3.43,7.62,2.05,10.4s6.11,5.29-1.82,6c0,0-4.55-3.26-5.9-1,0,0-9.71-5.63-11.8,3.23s4.57,11.83,9,10.29c0,0,4.28,4.42,7.82,5,0,0,5.27,8.89,13.28,4.42C382.33,424.54,392.08,430,392.44,425Z"/></g><g id="_Group_6" data-name="&lt;Group&gt;"><path id="_Path_70" data-name="&lt;Path&gt;" class="cls-17" d="M402.59,380.3s-3.36-5.42-6.23-5c0,0,1.91-7.22-5.76-8.58,0,0-3.84-17.6-18.22-2.7,0,0-12.95-16.94-20.14-6,0,0-12.95,2.83-9.11,14.11,0,0-13.43.9-12.47,10.38,0,0-7.19,1.36-4.8,13.09,0,0-8.15,4.52-8.15,12.64,0,0-11.51-8.57-16.78,0,0,0-21.1,3.62-16.78,25.73,0,0-5.76,6.77,3.83,12.64,0,0,2.4,10.39,8.15,10.84,0,0,2.4,9,15.83,5.41,0,0,4.31,7.68,8.15,10.84,0,0,0,10.83,3.84,13.54s7.67,9,13.42,9,7.68,11.28,21.1-5.42c0,0,11.51,8.13,20.62-8.12,0,0,12-.46,13.91-7.68,0,0,12-9,12-14.89,0,0,14.86-7.68,12-23.93,0,0,10.33-21.22.37-26.18,0,0,2.51-15.35-4.2-14.45C413.14,395.64,413.14,376.23,402.59,380.3Z"/><path id="_Path_71" data-name="&lt;Path&gt;" class="cls-18" d="M380.53,372.8s4.76-12.77-5-11.18c0,0-6,7.82-5,11.18C370.46,372.8,371.49,381.25,380.53,372.8Z"/><path id="_Path_72" data-name="&lt;Path&gt;" class="cls-18" d="M401.77,388.78s3.8-9.27-2.54-8.95-8,3.2-10.14,6.72c0,0-5.92,2.23-6.77,5.43,0,0-9.15-5.75-12.61,6.08,0,0-11.76,9.91,0,15.66,0,0,7.54,1.28,9.23-3.52s3.9-5.75,5.75.32c0,0-2.28,4.16,0,4.8,0,0-3.64,8.63,4.82,8.63s10.15-5.75,8-8.95c0,0,3.38-4.16,3.38-7,0,0,7.34-5.76,2-11.19C402.9,396.78,406.42,388.15,401.77,388.78Z"/><path id="_Path_73" data-name="&lt;Path&gt;" class="cls-3" d="M381.67,391s2.38-15.51,2.38-18.3,1-9.51,1.92-9.83-.73,9.88-1,14.07S381.67,391,381.67,391Z"/><polygon id="_Path_74" data-name="&lt;Path&gt;" class="cls-3" points="399.11 377.51 397.59 382.6 397.21 384.7 402.11 374.18 399.11 377.51"/><path id="_Path_75" data-name="&lt;Path&gt;" class="cls-3" d="M377.65,415s4.68-16.25,4-20.78a19.21,19.21,0,0,0-2,8.63s-5.58-11.71-5.35-11.83-.23.12-.23.12,1.85,10.73,3.81,13S377.65,415,377.65,415Z"/><path id="_Path_76" data-name="&lt;Path&gt;" class="cls-3" d="M394,408s-2.93,17.26-6.74,24.93c0,0-2.53-2.88-1.89-8.95,0,0-2.3,5.12,1.89,12.47C387.22,436.42,395.88,416,394,408Z"/><path id="_Path_77" data-name="&lt;Path&gt;" class="cls-18" d="M360.15,364.81s1.68-9.63-3.12-9l-4.79.59s-12.47,3-9.11,15c0,0-8.63,6-9.59,13.19,0,0-7.68,3.12-7.68,11.75,0,0-10.78,3.83-7.67,14.62,0,0-8.15-3.11-9.35-2.15s-6.23-.72-6.71,2.15c0,0-4.67-.16-5.39.16s-8.76,4.64-7.08,12.07,4.08,3.76,4.08-1.12c0,0,5,2.56,5.27-1.76,0,0,15.83,7.44,15.11-4.07,0,0,4.79-3.84,6.23-4.8s4.8,2.88,6.23-3.11c0,0,7.92-2.16,4.32,4.79,0,0-1.92,10.55,4.56,10.31s7.19-2.64,8.39-3.12,3.83-2.71,3.83,1.76,4.56,8.55,9.59,3.52c0,0,8.4-3.84,4.32-9.83,0,0,4.56-10.07-5-8.39,0,0-5.88,7-3.54-1.28a7.86,7.86,0,0,0,2.11-9s8.63,1.33,8.87-5.21c0,0,7.94-11.34,6.37-12.78,0,0,1.78-12.46-9-5.51C361.35,373.52,368.06,363.77,360.15,364.81Z"/><path id="_Path_78" data-name="&lt;Path&gt;" class="cls-17" d="M347.44,379.83h7.92s-2.16,3.83-4,4.87-6.59,6.32-5.39,4.16C347.7,385.81,350.56,381.1,347.44,379.83Z"/><path id="_Path_79" data-name="&lt;Path&gt;" class="cls-3" d="M358.93,402.79s-.61-14,.59-16.69c0,0,.85,5.87,0,8.67,0,0,5.84-7.31,5.69-7.42s-.81,2-.81,2-3.59,4.49-3.85,6.52A58,58,0,0,1,358.93,402.79Z"/><polygon id="_Path_80" data-name="&lt;Path&gt;" class="cls-3" points="301 413.39 300.5 408.1 300.07 406.01 299.46 417.6 301 413.39"/><path id="_Path_81" data-name="&lt;Path&gt;" class="cls-3" d="M374.12,430.34s-2.94,7-2.46,9.83-2.4,8.88-4.08,2.64-9.7-25.09-8.8-31,1.61-5.79,1.61-5.79c-.35,9.42-.79,7.86-.48,9,.72,2.64,6.49,16.74,6.49,16.74s4.09-5.79,4-7.79c0,0,.58-.56-3.5,9.75l2.4,5.52S371.54,428.19,374.12,430.34Z"/><path id="_Path_82" data-name="&lt;Path&gt;" class="cls-18" d="M386.84,441.53s-1.28-7.67-6-2.55.87,8.65,3.81,6.56S386.84,441.53,386.84,441.53Z"/><path id="_Path_83" data-name="&lt;Path&gt;" class="cls-3" d="M397.21,427.47s-2.93,17.29-6.13,18.07C391.08,445.54,398.87,449.17,397.21,427.47Z"/><polygon id="_Path_84" data-name="&lt;Path&gt;" class="cls-3" points="352.06 361.48 347.92 356.29 346 354.38 353.01 366.73 352.06 361.48"/><polygon id="_Path_85" data-name="&lt;Path&gt;" class="cls-3" points="406.22 461.18 414.03 454.98 416.84 452.22 397.74 463.66 406.22 461.18"/><path id="_Path_86" data-name="&lt;Path&gt;" class="cls-3" d="M358.78,465.19s-9.92-29.09-11.19-28.93-14.69-8.66-16-10.48-1,5.52,13.58,13.2l-14.06,1.27L345,441.69s4.22,4,4.55,6.88-10.54-.32-10.54-.32.85,3.19,11.62,4.63l8.19,13.91"/><path id="_Path_87" data-name="&lt;Path&gt;" class="cls-18" d="M331.6,467.48s8.34,5.56,9.28-.72-1.56-8.51-4.59-11.27c0,0-1-6.25-4-7.7,0,0,7.44-7.85-3.48-13.56,0,0-7.4-13.49-15.36-3.09,0,0-2.73,7.14,1.64,9.74s4.87,5-1.45,5.58c0,0-3.63-3-4.7-.94,0,0-7.75-5.27-9.41,3s3.64,11.08,7.19,9.64c0,0,3.41,4.13,6.23,4.7,0,0,4.2,8.32,10.58,4.14C323.54,467,331.31,472.17,331.6,467.48Z"/></g><g id="_Group_7" data-name="&lt;Group&gt;"><path id="_Path_88" data-name="&lt;Path&gt;" class="cls-17" d="M96.28,371.66s-2.69-4.35-5-4c0,0,1.53-5.79-4.61-6.88,0,0-3.08-14.1-14.61-2.17,0,0-10.37-13.57-16.13-4.79,0,0-10.38,2.26-7.31,11.3,0,0-10.75.73-10,8.32,0,0-5.76,1.09-3.84,10.49,0,0-6.53,3.62-6.53,10.13,0,0-9.22-6.87-13.45,0,0,0-16.91,2.9-13.45,20.62,0,0-4.61,5.43,3.08,10.13,0,0,1.92,8.32,6.53,8.68,0,0,1.92,7.23,12.68,4.34,0,0,3.46,6.15,6.53,8.68,0,0,0,8.68,3.07,10.85s6.15,7.24,10.76,7.24,6.15,9,16.91-4.34c0,0,9.22,6.51,16.52-6.52,0,0,9.61-.36,11.15-6.14,0,0,9.6-7.24,9.6-11.94,0,0,11.91-6.15,9.61-19.17,0,0,8.28-17,.3-21,0,0,2-12.3-3.37-11.58C104.74,384,104.74,368.4,96.28,371.66Z"/><path id="_Path_89" data-name="&lt;Path&gt;" class="cls-19" d="M78.61,365.65s3.81-10.24-4-9c0,0-4.79,6.27-4,9C70.54,365.65,71.36,372.42,78.61,365.65Z"/><path id="_Path_90" data-name="&lt;Path&gt;" class="cls-19" d="M95.63,378.46s3-7.43-2-7.18-6.43,2.57-8.13,5.38c0,0-4.74,1.8-5.42,4.36,0,0-7.33-4.61-10.1,4.87,0,0-9.43,7.94,0,12.55,0,0,6,1,7.39-2.82s3.12-4.61,4.61.26c0,0-1.82,3.33,0,3.84,0,0-2.91,6.92,3.86,6.92s8.13-4.62,6.44-7.18c0,0,2.71-3.33,2.71-5.63,0,0,5.88-4.61,1.58-9C96.53,384.86,99.35,377.94,95.63,378.46Z"/><path id="_Path_91" data-name="&lt;Path&gt;" class="cls-3" d="M79.52,380.25s1.9-12.43,1.9-14.67.77-7.62,1.54-7.87-.58,7.91-.77,11.27S79.52,380.25,79.52,380.25Z"/><path id="_Path_92" data-name="&lt;Path&gt;" class="cls-3" d="M76.3,399.46s3.75-13,3.23-16.65a15.44,15.44,0,0,0-1.59,6.91s-4.47-9.38-4.28-9.47l-.19.09s1.48,8.6,3,10.41S76.3,399.46,76.3,399.46Z"/><path id="_Path_93" data-name="&lt;Path&gt;" class="cls-3" d="M89.37,393.83S87,407.66,84,413.81c0,0-2-2.31-1.51-7.17,0,0-1.84,4.09,1.51,10C84,416.63,90.9,400.23,89.37,393.83Z"/><path id="_Path_94" data-name="&lt;Path&gt;" class="cls-19" d="M62.28,359.24s1.34-7.71-2.5-7.23l-3.84.47s-10,2.41-7.31,12c0,0-6.91,4.8-7.68,10.56a10.43,10.43,0,0,0-6.15,9.42s-8.64,3.07-6.15,11.72c0,0-6.53-2.5-7.49-1.73s-5-.58-5.38,1.73a26.26,26.26,0,0,0-4.31.12c-.58.26-7,3.72-5.68,9.67s3.27,3,3.27-.89c0,0,4,2,4.22-1.41,0,0,12.68,6,12.11-3.27,0,0,3.84-3.07,5-3.84s3.85,2.31,5-2.5c0,0,6.34-1.73,3.46,3.85,0,0-1.54,8.45,3.65,8.26s5.76-2.12,6.72-2.5,3.08-2.18,3.08,1.41S55.94,412,60,407.92c0,0,6.72-3.08,3.46-7.88,0,0,3.65-8.07-4-6.73,0,0-4.71,5.64-2.83-1a6.3,6.3,0,0,0,1.68-7.24s6.92,1.07,7.11-4.17c0,0,6.36-9.08,5.1-10.24,0,0,1.43-10-7.21-4.42C63.24,366.22,68.62,358.41,62.28,359.24Z"/><path id="_Path_95" data-name="&lt;Path&gt;" class="cls-17" d="M52.09,371.28h6.34s-1.73,3.07-3.17,3.91-5.28,5.06-4.32,3.33C52.3,376.08,54.59,372.3,52.09,371.28Z"/><path id="_Path_96" data-name="&lt;Path&gt;" class="cls-3" d="M61.3,389.68s-.49-11.18.47-13.37c0,0,.68,4.7,0,6.94,0,0,4.67-5.85,4.56-5.95s-.65,1.63-.65,1.63-2.88,3.6-3.09,5.23A46.46,46.46,0,0,1,61.3,389.68Z"/><polygon id="_Path_97" data-name="&lt;Path&gt;" class="cls-3" points="14.88 398.17 14.48 393.94 14.13 392.26 13.64 401.55 14.88 398.17"/><path id="_Path_98" data-name="&lt;Path&gt;" class="cls-3" d="M73.47,411.76s-2.36,5.57-2,7.88-1.92,7.1-3.27,2.11-7.77-20.11-7.06-24.85,1.3-4.64,1.3-4.64c-.29,7.55-.63,6.3-.39,7.2.58,2.12,5.21,13.42,5.21,13.42s3.27-4.64,3.16-6.24c0,0,.47-.45-2.79,7.81l1.92,4.42S71.4,410,73.47,411.76Z"/><path id="_Path_99" data-name="&lt;Path&gt;" class="cls-19" d="M83.66,420.72s-1-6.14-4.83-2.05.7,6.94,3,5.27S83.66,420.72,83.66,420.72Z"/><path id="_Path_100" data-name="&lt;Path&gt;" class="cls-3" d="M92,409.45s-2.36,13.86-4.92,14.49C87.06,423.94,93.3,426.85,92,409.45Z"/><polygon id="_Path_101" data-name="&lt;Path&gt;" class="cls-3" points="99.22 436.47 105.43 431.45 107.66 429.23 92.44 438.52 99.22 436.47"/><path id="_Path_102" data-name="&lt;Path&gt;" class="cls-3" d="M61.17,439.68s-7.94-23.31-9-23.18-11.77-6.94-12.8-8.4-.78,4.43,10.88,10.57L39,419.7l11.07,1.15s3.38,3.2,3.65,5.51-8.45-.26-8.45-.26.68,2.57,9.31,3.72L61.17,441"/><path id="_Path_103" data-name="&lt;Path&gt;" class="cls-19" d="M39.4,441.52s6.68,4.45,7.43-.58-1.24-6.82-3.67-9c0,0-.83-5-3.21-6.17,0,0,6-6.29-2.78-10.87,0,0-5.93-10.8-12.31-2.47,0,0-2.19,5.72,1.31,7.8s3.91,4-1.16,4.47c0,0-2.9-2.44-3.76-.75,0,0-6.21-4.22-7.54,2.42s2.92,8.88,5.76,7.72c0,0,2.73,3.31,5,3.77,0,0,3.37,6.67,8.48,3.32C32.94,441.15,39.17,445.27,39.4,441.52Z"/></g><g id="_Group_8" data-name="&lt;Group&gt;"><path id="_Path_104" data-name="&lt;Path&gt;" class="cls-1" d="M580.27,356.67s-3.86-6.22-7.16-5.7c0,0,2.2-8.29-6.61-9.85,0,0-4.4-20.21-20.92-3.11,0,0-14.87-19.44-23.13-6.87,0,0-14.86,3.24-10.46,16.2,0,0-15.41,1-14.31,11.92,0,0-8.26,1.56-5.51,15,0,0-9.36,5.18-9.36,14.51,0,0-13.21-9.84-19.27,0,0,0-24.22,4.15-19.27,29.55,0,0-6.61,7.77,4.41,14.51,0,0,2.75,11.92,9.36,12.44,0,0,2.75,10.36,18.17,6.22,0,0,5,8.81,9.36,12.44,0,0,0,12.44,4.4,15.54s8.81,10.37,15.42,10.37,8.81,13,24.22-6.22c0,0,13.22,9.33,23.68-9.33,0,0,13.76-.52,16-8.81,0,0,13.77-10.36,13.77-17.1,0,0,17.07-8.81,13.76-27.47,0,0,11.86-24.36.43-30.06,0,0,2.88-17.63-4.83-16.59C592.38,374.29,592.38,352,580.27,356.67Z"/><path id="_Path_105" data-name="&lt;Path&gt;" class="cls-2" d="M554.94,348.06s5.46-14.66-5.8-12.84c0,0-6.86,9-5.76,12.84C543.38,348.06,544.55,357.76,554.94,348.06Z"/><path id="_Path_106" data-name="&lt;Path&gt;" class="cls-2" d="M579.33,366.41s4.36-10.64-2.92-10.27-9.22,3.67-11.65,7.71c0,0-6.79,2.56-7.76,6.24,0,0-10.51-6.61-14.48,7,0,0-13.51,11.38,0,18,0,0,8.65,1.46,10.59-4s4.48-6.61,6.61.36c0,0-2.62,4.78,0,5.51,0,0-4.18,9.91,5.53,9.91s11.65-6.61,9.22-10.28c0,0,3.88-4.77,3.88-8.07,0,0,8.43-6.61,2.28-12.85C580.63,375.59,584.67,365.68,579.33,366.41Z"/><path id="_Path_107" data-name="&lt;Path&gt;" class="cls-2" d="M551.64,396.51s5.36-18.65,4.62-23.86a22.18,22.18,0,0,0-2.28,9.91s-6.4-13.45-6.13-13.58l-.27.13S549.71,381.44,552,384,551.64,396.51,551.64,396.51Z"/><path id="_Path_108" data-name="&lt;Path&gt;" class="cls-3" d="M570.36,388.44s-3.37,19.82-7.74,28.63c0,0-2.91-3.3-2.17-10.28,0,0-2.64,5.87,2.17,14.32C562.62,421.11,572.56,397.61,570.36,388.44Z"/><path id="_Path_109" data-name="&lt;Path&gt;" class="cls-2" d="M531.54,338.89s1.93-11.06-3.58-10.37l-5.51.68s-14.31,3.45-10.46,17.21c0,0-9.91,6.88-11,15.14,0,0-8.81,3.58-8.81,13.49,0,0-12.39,4.41-8.81,16.79,0,0-9.36-3.58-10.73-2.47s-7.16-.83-7.71,2.47c0,0-5.36-.18-6.18.18s-10.06,5.33-8.14,13.86,4.68,4.32,4.68-1.28c0,0,5.78,2.94,6.06-2,0,0,18.17,8.53,17.34-4.68,0,0,5.51-4.4,7.16-5.51s5.51,3.31,7.16-3.57c0,0,9.08-2.48,4.95,5.5,0,0-2.2,12.11,5.23,11.84s8.26-3,9.64-3.58,4.4-3.12,4.4,2,5.23,9.82,11,4c0,0,9.63-4.41,5-11.29,0,0,5.23-11.56-5.78-9.64,0,0-6.75,8.08-4.06-1.46a9,9,0,0,0,2.41-10.37s9.91,1.53,10.18-6c0,0,9.12-13,7.32-14.67,0,0,2-14.32-10.34-6.33C532.92,348.89,540.62,337.69,531.54,338.89Z"/><path id="_Path_110" data-name="&lt;Path&gt;" class="cls-4" d="M517,356.13H526s-2.47,4.4-4.54,5.6-7.57,7.25-6.19,4.78C517.24,363,520.53,357.59,517,356.13Z"/><path id="_Path_111" data-name="&lt;Path&gt;" class="cls-3" d="M530.14,382.5s-.7-16,.67-19.17c0,0,1,6.74,0,10,0,0,6.7-8.4,6.54-8.53s-.94,2.34-.94,2.34-4.11,5.16-4.41,7.49A68,68,0,0,1,530.14,382.5Z"/><polygon id="_Path_112" data-name="&lt;Path&gt;" class="cls-3" points="463.62 394.67 463.05 388.59 462.56 386.19 461.85 399.5 463.62 394.67"/><path id="_Path_113" data-name="&lt;Path&gt;" class="cls-3" d="M547.58,414.13s-3.38,8-2.83,11.29-2.75,10.19-4.68,3-11.13-28.81-10.11-35.6,1.85-6.66,1.85-6.66c-.4,10.82-.9,9-.55,10.32.83,3,7.46,19.23,7.46,19.23s4.69-6.65,4.54-8.95c0,0,.67-.64-4,11.2l2.75,6.33S544.62,411.65,547.58,414.13Z"/><path id="_Path_114" data-name="&lt;Path&gt;" class="cls-2" d="M562.18,427s-1.46-8.81-6.92-2.94,1,9.94,4.38,7.54S562.18,427,562.18,427Z"/><path id="_Path_115" data-name="&lt;Path&gt;" class="cls-3" d="M574.1,410.83s-3.38,19.85-7.05,20.75C567.05,431.58,576,435.75,574.1,410.83Z"/><polygon id="_Path_116" data-name="&lt;Path&gt;" class="cls-3" points="584.44 449.53 593.4 442.41 596.63 439.25 574.7 452.39 584.44 449.53"/><path id="_Path_117" data-name="&lt;Path&gt;" class="cls-3" d="M530,454.14s-11.39-33.4-12.84-33.22-16.87-9.94-18.34-12-1.12,6.34,15.59,15.15l-16.14,1.47,15.87,1.64s4.84,4.6,5.22,7.9-12.1-.36-12.1-.36,1,3.67,13.34,5.32l9.4,16"/><path id="_Path_118" data-name="&lt;Path&gt;" class="cls-2" d="M498.76,456.77s9.58,6.38,10.65-.83-1.78-9.76-5.27-12.94c0,0-1.18-7.17-4.58-8.84,0,0,8.54-9-4-15.57,0,0-8.5-15.48-17.64-3.54,0,0-3.14,8.2,1.88,11.18s5.59,5.69-1.66,6.41c0,0-4.17-3.51-5.4-1.09,0,0-8.9-6-10.81,3.47s4.19,12.73,8.26,11.07c0,0,3.92,4.75,7.16,5.4,0,0,4.82,9.56,12.15,4.75C489.51,456.24,498.43,462.15,498.76,456.77Z"/></g><g id="_Group_9" data-name="&lt;Group&gt;"><path id="_Path_119" data-name="&lt;Path&gt;" class="cls-14" d="M703.83,382.19s-3.59-5.79-6.66-5.31c0,0,2.05-7.71-6.14-9.16,0,0-4.1-18.8-19.47-2.89,0,0-13.82-18.09-21.51-6.39,0,0-13.82,3-9.73,15.07,0,0-14.34,1-13.31,11.09,0,0-7.68,1.44-5.12,14,0,0-8.71,4.82-8.71,13.5,0,0-12.29-9.16-17.93,0,0,0-22.53,3.85-17.92,27.48,0,0-6.15,7.23,4.1,13.5,0,0,2.56,11.08,8.7,11.57,0,0,2.56,9.64,16.9,5.78,0,0,4.61,8.2,8.71,11.57,0,0,0,11.57,4.1,14.47s8.19,9.64,14.34,9.64,8.19,12.05,22.53-5.79c0,0,12.29,8.68,22-8.68,0,0,12.81-.48,14.86-8.19,0,0,12.8-9.64,12.8-15.91,0,0,15.88-8.2,12.8-25.55,0,0,11-22.66.4-28,0,0,2.68-16.39-4.49-15.42C715.1,398.58,715.1,377.85,703.83,382.19Z"/><path id="_Path_120" data-name="&lt;Path&gt;" class="cls-15" d="M680.27,374.18s5.08-13.64-5.4-11.94c0,0-6.38,8.35-5.35,11.94C669.52,374.18,670.61,383.2,680.27,374.18Z"/><path id="_Path_121" data-name="&lt;Path&gt;" class="cls-15" d="M703,391.25s4.07-9.9-2.7-9.56-8.58,3.42-10.84,7.17c0,0-6.32,2.39-7.23,5.81,0,0-9.77-6.15-13.46,6.48,0,0-12.57,10.59,0,16.73,0,0,8,1.37,9.85-3.75s4.16-6.15,6.15.34c0,0-2.44,4.44,0,5.12,0,0-3.89,9.22,5.14,9.22s10.84-6.15,8.58-9.56c0,0,3.61-4.44,3.61-7.51,0,0,7.84-6.15,2.11-11.95C704.16,399.79,707.92,390.57,703,391.25Z"/><path id="_Path_122" data-name="&lt;Path&gt;" class="cls-3" d="M677.2,419.25s5-17.35,4.3-22.19a20.51,20.51,0,0,0-2.12,9.21s-6-12.51-5.71-12.63l-.25.12s2,11.46,4.07,13.88S677.2,419.25,677.2,419.25Z"/><path id="_Path_123" data-name="&lt;Path&gt;" class="cls-16" d="M694.61,411.74s-3.13,18.43-7.2,26.63c0,0-2.7-3.07-2-9.56,0,0-2.45,5.46,2,13.31C687.41,442.12,696.66,420.27,694.61,411.74Z"/><path id="_Path_124" data-name="&lt;Path&gt;" class="cls-15" d="M658.5,365.64s1.8-10.28-3.32-9.64l-5.13.63s-13.31,3.21-9.73,16c0,0-9.22,6.4-10.24,14.09,0,0-8.19,3.33-8.19,12.54,0,0-11.53,4.1-8.2,15.62,0,0-8.7-3.32-10-2.3s-6.65-.77-7.17,2.3c0,0-5-.17-5.75.17s-9.35,5-7.56,12.89,4.35,4,4.35-1.19c0,0,5.38,2.73,5.64-1.88,0,0,16.9,7.94,16.13-4.35,0,0,5.12-4.1,6.66-5.12s5.12,3.07,6.65-3.33c0,0,8.45-2.31,4.61,5.12,0,0-2,11.27,4.87,11s7.68-2.82,9-3.33,4.1-2.9,4.1,1.88,4.86,9.13,10.24,3.76c0,0,9-4.1,4.61-10.5,0,0,4.87-10.76-5.38-9,0,0-6.28,7.52-3.78-1.36a8.4,8.4,0,0,0,2.25-9.65s9.22,1.43,9.47-5.56c0,0,8.49-12.11,6.8-13.64,0,0,1.91-13.32-9.62-5.89C659.78,375,667,364.53,658.5,365.64Z"/><path id="_Path_125" data-name="&lt;Path&gt;" class="cls-14" d="M644.93,381.68h8.45s-2.3,4.1-4.22,5.21-7,6.75-5.76,4.45C645.21,388.08,648.26,383,644.93,381.68Z"/><path id="_Path_126" data-name="&lt;Path&gt;" class="cls-3" d="M657.2,406.21s-.65-14.91.63-17.83c0,0,.9,6.27,0,9.26,0,0,6.23-7.8,6.08-7.93s-.87,2.17-.87,2.17-3.83,4.81-4.11,7A61.26,61.26,0,0,1,657.2,406.21Z"/><polygon id="_Path_127" data-name="&lt;Path&gt;" class="cls-3" points="595.33 417.53 594.8 411.88 594.34 409.65 593.68 422.03 595.33 417.53"/><path id="_Path_128" data-name="&lt;Path&gt;" class="cls-3" d="M673.42,435.64s-3.14,7.42-2.62,10.5-2.57,9.47-4.36,2.81-10.36-26.79-9.4-33.11,1.72-6.19,1.72-6.19c-.38,10.06-.84,8.39-.51,9.6.77,2.81,6.93,17.88,6.93,17.88s4.37-6.19,4.22-8.32c0,0,.63-.6-3.73,10.41l2.56,5.89S670.67,433.33,673.42,435.64Z"/><path id="_Path_129" data-name="&lt;Path&gt;" class="cls-15" d="M687,447.59s-1.37-8.2-6.44-2.73.93,9.24,4.07,7S687,447.59,687,447.59Z"/><path id="_Path_130" data-name="&lt;Path&gt;" class="cls-3" d="M698.09,432.56S695,451,691.54,451.87C691.54,451.87,699.86,455.75,698.09,432.56Z"/><polygon id="_Path_131" data-name="&lt;Path&gt;" class="cls-3" points="707.71 468.57 716.04 461.94 719.05 459 698.65 471.22 707.71 468.57"/><path id="_Path_132" data-name="&lt;Path&gt;" class="cls-3" d="M657,472.85s-10.6-31.07-11.95-30.9S629.4,432.71,628,430.76s-1,5.9,14.5,14.1l-15,1.36,14.76,1.53s4.51,4.28,4.86,7.35-11.26-.34-11.26-.34.91,3.41,12.41,4.95L657,474.56"/><path id="_Path_133" data-name="&lt;Path&gt;" class="cls-15" d="M628,475.3s8.91,5.94,9.91-.77-1.66-9.09-4.9-12c0,0-1.1-6.67-4.27-8.22,0,0,8-8.38-3.71-14.48,0,0-7.9-14.41-16.4-3.3,0,0-2.92,7.62,1.74,10.4s5.21,5.29-1.54,6c0,0-3.87-3.26-5-1,0,0-8.27-5.62-10.05,3.23s3.89,11.84,7.68,10.29c0,0,3.64,4.42,6.66,5,0,0,4.48,8.9,11.3,4.43C619.41,474.81,627.7,480.31,628,475.3Z"/></g><g id="_Group_10" data-name="&lt;Group&gt;"><path id="_Path_134" data-name="&lt;Path&gt;" class="cls-14" d="M932.66,331.88s-3.59-5.78-6.66-5.3c0,0,2-7.72-6.15-9.16,0,0-4.09-18.8-19.46-2.89,0,0-13.83-18.09-21.51-6.4,0,0-13.83,3-9.73,15.07,0,0-14.34,1-13.31,11.09,0,0-7.69,1.45-5.13,14,0,0-8.7,4.82-8.7,13.5,0,0-12.29-9.16-17.93,0,0,0-22.53,3.86-17.92,27.48,0,0-6.15,7.23,4.1,13.5,0,0,2.56,11.09,8.7,11.57,0,0,2.56,9.64,16.9,5.79,0,0,4.61,8.19,8.71,11.57,0,0,0,11.57,4.1,14.46s8.19,9.64,14.34,9.64,8.19,12.06,22.53-5.78c0,0,12.29,8.68,22-8.68,0,0,12.81-.48,14.85-8.2,0,0,12.81-9.64,12.81-15.91,0,0,15.87-8.19,12.8-25.55,0,0,11-22.66.4-28,0,0,2.67-16.39-4.5-15.43C943.92,348.27,943.92,327.54,932.66,331.88Z"/><path id="_Path_135" data-name="&lt;Path&gt;" class="cls-15" d="M909.1,323.88s5.08-13.65-5.4-11.95c0,0-6.38,8.36-5.36,11.95C898.34,323.88,899.44,332.9,909.1,323.88Z"/><path id="_Path_136" data-name="&lt;Path&gt;" class="cls-15" d="M931.78,341s4.07-9.9-2.71-9.56-8.58,3.41-10.83,7.17c0,0-6.32,2.39-7.23,5.8,0,0-9.77-6.14-13.46,6.49,0,0-12.57,10.58,0,16.73,0,0,8,1.36,9.85-3.76s4.16-6.14,6.14.34c0,0-2.43,4.44,0,5.13,0,0-3.88,9.21,5.15,9.21s10.84-6.14,8.58-9.56c0,0,3.61-4.43,3.61-7.51,0,0,7.84-6.14,2.11-11.95C933,349.48,936.75,340.26,931.78,341Z"/><path id="_Path_137" data-name="&lt;Path&gt;" class="cls-3" d="M910.31,343.34s2.54-16.57,2.54-19.55,1-10.16,2-10.5-.77,10.55-1,15S910.31,343.34,910.31,343.34Z"/><polygon id="_Path_138" data-name="&lt;Path&gt;" class="cls-3" points="928.94 328.9 927.32 334.34 926.92 336.59 932.14 325.34 928.94 328.9"/><path id="_Path_139" data-name="&lt;Path&gt;" class="cls-3" d="M906,368.94s5-17.35,4.3-22.19a20.58,20.58,0,0,0-2.12,9.22s-6-12.51-5.71-12.63l-.25.12s2,11.46,4.07,13.88S906,368.94,906,368.94Z"/><path id="_Path_140" data-name="&lt;Path&gt;" class="cls-16" d="M923.44,361.43s-3.13,18.44-7.2,26.63c0,0-2.7-3.07-2-9.56,0,0-2.45,5.47,2,13.32C916.24,391.82,925.49,370,923.44,361.43Z"/><path id="_Path_141" data-name="&lt;Path&gt;" class="cls-15" d="M887.33,315.34s1.8-10.28-3.33-9.65l-5.12.64s-13.31,3.2-9.73,16c0,0-9.22,6.4-10.24,14.08,0,0-8.2,3.33-8.2,12.55,0,0-11.52,4.1-8.19,15.62,0,0-8.71-3.33-10-2.3s-6.65-.77-7.17,2.3c0,0-5-.17-5.75.17s-9.35,4.95-7.56,12.89,4.35,4,4.35-1.19c0,0,5.38,2.73,5.63-1.88,0,0,16.91,7.94,16.14-4.36,0,0,5.12-4.09,6.65-5.12s5.13,3.08,6.66-3.33c0,0,8.45-2.3,4.61,5.13,0,0-2.05,11.26,4.87,11s7.68-2.82,9-3.33,4.1-2.9,4.1,1.88,4.86,9.13,10.24,3.75c0,0,9-4.1,4.61-10.5,0,0,4.86-10.75-5.38-9,0,0-6.28,7.51-3.78-1.37a8.38,8.38,0,0,0,2.25-9.64s9.21,1.42,9.47-5.56c0,0,8.48-12.11,6.8-13.65,0,0,1.91-13.31-9.62-5.89C888.61,324.64,895.78,314.23,887.33,315.34Z"/><path id="_Path_142" data-name="&lt;Path&gt;" class="cls-14" d="M873.76,331.38h8.45s-2.3,4.09-4.22,5.21-7,6.75-5.77,4.44C874,337.77,877.09,332.73,873.76,331.38Z"/><path id="_Path_143" data-name="&lt;Path&gt;" class="cls-3" d="M886,355.91s-.65-14.91.63-17.83c0,0,.9,6.27,0,9.26,0,0,6.23-7.81,6.08-7.93s-.87,2.17-.87,2.17-3.83,4.8-4.11,7A61.26,61.26,0,0,1,886,355.91Z"/><path id="_Path_144" data-name="&lt;Path&gt;" class="cls-3" d="M902.25,385.33s-3.14,7.43-2.63,10.5-2.56,9.48-4.35,2.82-10.36-26.8-9.4-33.12,1.72-6.19,1.72-6.19c-.38,10.06-.84,8.4-.51,9.6.76,2.82,6.93,17.89,6.93,17.89s4.37-6.19,4.22-8.33c0,0,.63-.59-3.73,10.42l2.56,5.89S899.5,383,902.25,385.33Z"/><path id="_Path_145" data-name="&lt;Path&gt;" class="cls-15" d="M915.84,397.28s-1.37-8.19-6.44-2.73.93,9.25,4.07,7S915.84,397.28,915.84,397.28Z"/><path id="_Path_146" data-name="&lt;Path&gt;" class="cls-3" d="M926.92,382.26s-3.14,18.47-6.55,19.3C920.37,401.56,928.69,405.44,926.92,382.26Z"/><polygon id="_Path_147" data-name="&lt;Path&gt;" class="cls-3" points="936.54 418.26 944.87 411.64 947.88 408.7 927.48 420.92 936.54 418.26"/><path id="_Path_148" data-name="&lt;Path&gt;" class="cls-3" d="M885.87,422.55s-10.6-31.07-12-30.9-15.69-9.25-17.06-11.2-1,5.91,14.5,14.1l-15,1.37,14.76,1.53s4.5,4.27,4.86,7.34-11.26-.34-11.26-.34.91,3.42,12.41,4.95l8.75,14.86"/><path id="_Path_149" data-name="&lt;Path&gt;" class="cls-15" d="M856.84,425s8.91,5.93,9.91-.78-1.66-9.08-4.9-12c0,0-1.1-6.67-4.27-8.23,0,0,7.95-8.37-3.71-14.48,0,0-7.9-14.4-16.4-3.29,0,0-2.92,7.62,1.74,10.4s5.21,5.29-1.54,6c0,0-3.87-3.27-5-1,0,0-8.28-5.63-10,3.23s3.89,11.83,7.68,10.29c0,0,3.64,4.41,6.65,5,0,0,4.49,8.89,11.3,4.42C848.23,424.5,856.53,430,856.84,425Z"/></g><g id="_Group_11" data-name="&lt;Group&gt;"><path id="_Path_150" data-name="&lt;Path&gt;" class="cls-17" d="M825.59,398.3s-3.36-5.42-6.23-5c0,0,1.91-7.22-5.76-8.58,0,0-3.84-17.6-18.22-2.7,0,0-13-16.94-20.14-6,0,0-13,2.83-9.11,14.11,0,0-13.43.9-12.47,10.38,0,0-7.19,1.36-4.8,13.09,0,0-8.15,4.52-8.15,12.64,0,0-11.51-8.57-16.78,0,0,0-21.1,3.62-16.78,25.73,0,0-5.76,6.77,3.83,12.64,0,0,2.4,10.39,8.15,10.84,0,0,2.4,9,15.83,5.41,0,0,4.31,7.68,8.15,10.84,0,0,0,10.83,3.84,13.54s7.67,9,13.42,9,7.68,11.28,21.1-5.42c0,0,11.51,8.13,20.62-8.12,0,0,12-.46,13.91-7.68,0,0,12-9,12-14.89,0,0,14.86-7.68,12-23.93,0,0,10.33-21.22.37-26.18,0,0,2.51-15.35-4.2-14.45C836.14,413.64,836.14,394.23,825.59,398.3Z"/><path id="_Path_151" data-name="&lt;Path&gt;" class="cls-18" d="M803.53,390.8s4.76-12.77-5-11.18c0,0-6,7.82-5,11.18C793.46,390.8,794.49,399.25,803.53,390.8Z"/><path id="_Path_152" data-name="&lt;Path&gt;" class="cls-18" d="M824.77,406.78s3.8-9.27-2.54-8.95-8,3.2-10.14,6.72c0,0-5.92,2.23-6.77,5.43,0,0-9.15-5.75-12.61,6.08,0,0-11.76,9.91,0,15.66,0,0,7.54,1.28,9.23-3.52s3.9-5.75,5.75.32c0,0-2.28,4.16,0,4.8,0,0-3.64,8.63,4.82,8.63s10.15-5.75,8-8.95c0,0,3.38-4.16,3.38-7,0,0,7.34-5.76,2-11.19C825.9,414.78,829.42,406.15,824.77,406.78Z"/><path id="_Path_153" data-name="&lt;Path&gt;" class="cls-3" d="M804.67,409s2.38-15.51,2.38-18.3,1-9.51,1.92-9.83-.73,9.88-1,14.07S804.67,409,804.67,409Z"/><polygon id="_Path_154" data-name="&lt;Path&gt;" class="cls-3" points="822.11 395.51 820.59 400.6 820.22 402.7 825.11 392.18 822.11 395.51"/><path id="_Path_155" data-name="&lt;Path&gt;" class="cls-3" d="M800.65,433s4.68-16.25,4-20.78a19.21,19.21,0,0,0-2,8.63s-5.58-11.71-5.35-11.83-.23.12-.23.12,1.85,10.73,3.81,13S800.65,433,800.65,433Z"/><path id="_Path_156" data-name="&lt;Path&gt;" class="cls-3" d="M817,426s-2.93,17.26-6.74,24.93c0,0-2.53-2.88-1.89-8.95,0,0-2.3,5.12,1.89,12.47C810.22,454.42,818.88,434,817,426Z"/><path id="_Path_157" data-name="&lt;Path&gt;" class="cls-18" d="M783.15,382.81s1.68-9.63-3.12-9l-4.79.59s-12.47,3-9.11,15c0,0-8.63,6-9.59,13.19,0,0-7.68,3.12-7.68,11.75,0,0-10.78,3.83-7.67,14.62,0,0-8.15-3.11-9.35-2.15s-6.23-.72-6.71,2.15c0,0-4.67-.16-5.39.16s-8.76,4.64-7.08,12.07,4.08,3.76,4.08-1.12c0,0,5,2.56,5.27-1.76,0,0,15.83,7.44,15.11-4.07,0,0,4.79-3.84,6.23-4.8s4.8,2.88,6.23-3.11c0,0,7.92-2.16,4.32,4.79,0,0-1.92,10.55,4.56,10.31s7.19-2.64,8.39-3.12,3.83-2.71,3.83,1.76,4.56,8.55,9.59,3.52c0,0,8.4-3.84,4.32-9.83,0,0,4.56-10.07-5-8.39,0,0-5.88,7-3.54-1.28a7.86,7.86,0,0,0,2.11-9s8.63,1.33,8.87-5.21c0,0,7.94-11.34,6.37-12.78,0,0,1.78-12.46-9-5.51C784.35,391.52,791.06,381.77,783.15,382.81Z"/><path id="_Path_158" data-name="&lt;Path&gt;" class="cls-17" d="M770.44,397.83h7.92s-2.16,3.83-4,4.87-6.59,6.32-5.39,4.16C770.7,403.81,773.56,399.1,770.44,397.83Z"/><path id="_Path_159" data-name="&lt;Path&gt;" class="cls-3" d="M781.93,420.79s-.61-14,.59-16.69c0,0,.85,5.87,0,8.67,0,0,5.84-7.31,5.69-7.42s-.81,2-.81,2-3.59,4.49-3.85,6.52A58,58,0,0,1,781.93,420.79Z"/><polygon id="_Path_160" data-name="&lt;Path&gt;" class="cls-3" points="724 431.39 723.5 426.1 723.07 424.01 722.46 435.6 724 431.39"/><path id="_Path_161" data-name="&lt;Path&gt;" class="cls-3" d="M797.12,448.34s-2.94,7-2.46,9.83-2.4,8.88-4.08,2.64-9.7-25.09-8.8-31,1.61-5.79,1.61-5.79c-.35,9.42-.79,7.86-.48,9,.72,2.64,6.49,16.74,6.49,16.74s4.09-5.79,4-7.79c0,0,.58-.56-3.5,9.75l2.4,5.52S794.54,446.19,797.12,448.34Z"/><path id="_Path_162" data-name="&lt;Path&gt;" class="cls-18" d="M809.84,459.53s-1.28-7.67-6-2.55.87,8.65,3.81,6.56S809.84,459.53,809.84,459.53Z"/><path id="_Path_163" data-name="&lt;Path&gt;" class="cls-3" d="M820.21,445.47s-2.93,17.29-6.13,18.07C814.08,463.54,821.87,467.17,820.21,445.47Z"/><polygon id="_Path_164" data-name="&lt;Path&gt;" class="cls-3" points="829.22 479.18 837.03 472.98 839.84 470.22 820.74 481.66 829.22 479.18"/><path id="_Path_165" data-name="&lt;Path&gt;" class="cls-3" d="M781.78,483.19s-9.92-29.09-11.19-28.93-14.69-8.66-16-10.48-1,5.52,13.58,13.2l-14.06,1.27L768,459.69s4.22,4,4.55,6.88-10.54-.32-10.54-.32.85,3.19,11.62,4.63l8.19,13.91"/><path id="_Path_166" data-name="&lt;Path&gt;" class="cls-18" d="M754.6,485.48s8.34,5.56,9.28-.72-1.56-8.51-4.59-11.27c0,0-1-6.25-4-7.7,0,0,7.44-7.85-3.48-13.56,0,0-7.4-13.49-15.36-3.09,0,0-2.73,7.14,1.64,9.74s4.87,5-1.45,5.58c0,0-3.63-3-4.7-.94,0,0-7.75-5.27-9.41,3s3.64,11.08,7.19,9.64c0,0,3.41,4.13,6.23,4.7,0,0,4.2,8.32,10.58,4.14C746.54,485,754.31,490.17,754.6,485.48Z"/></g><g id="_Group_12" data-name="&lt;Group&gt;"><path id="_Path_167" data-name="&lt;Path&gt;" class="cls-5" d="M1231.18,332.93s-3.61-4.77-6.71-4.37c0,0,2.07-6.36-6.19-7.55,0,0-4.13-15.48-19.61-2.38,0,0-13.93-14.9-21.67-5.26,0,0-13.94,2.48-9.81,12.41,0,0-14.45.79-13.42,9.13,0,0-7.74,1.19-5.16,11.52,0,0-8.77,4-8.77,11.11,0,0-12.39-7.54-18.07,0,0,0-22.7,3.18-18.06,22.64,0,0-6.19,5.95,4.13,11.11,0,0,2.58,9.14,8.77,9.53,0,0,2.58,7.95,17,4.77,0,0,4.65,6.75,8.78,9.53,0,0,0,9.53,4.13,11.91S1154.8,435,1161,435s8.25,9.93,22.7-4.76c0,0,12.39,7.14,22.2-7.15,0,0,12.9-.4,15-6.75,0,0,12.9-7.94,12.9-13.1,0,0,16-6.75,12.91-21,0,0,11.11-18.66.39-23,0,0,2.7-13.5-4.52-12.7C1242.54,346.43,1242.54,329.35,1231.18,332.93Z"/><path id="_Path_168" data-name="&lt;Path&gt;" class="cls-6" d="M1207.44,326.33s5.12-11.23-5.44-9.83c0,0-6.43,6.88-5.39,9.83C1196.61,326.33,1197.71,333.76,1207.44,326.33Z"/><path id="_Path_169" data-name="&lt;Path&gt;" class="cls-6" d="M1230.3,340.39s4.1-8.15-2.73-7.87-8.64,2.81-10.92,5.9c0,0-6.37,2-7.28,4.78,0,0-9.85-5.06-13.57,5.35,0,0-12.66,8.71,0,13.78,0,0,8.11,1.12,9.93-3.1s4.2-5.06,6.19.28c0,0-2.45,3.66,0,4.22,0,0-3.91,7.59,5.19,7.59s10.92-5.06,8.64-7.87c0,0,3.64-3.66,3.64-6.19,0,0,7.9-5.06,2.13-9.84C1231.52,347.42,1235.31,339.83,1230.3,340.39Z"/><path id="_Path_170" data-name="&lt;Path&gt;" class="cls-3" d="M1204.35,363.45s5-14.29,4.34-18.28a14.47,14.47,0,0,0-2.14,7.59s-6-10.3-5.75-10.4l-.26.1s2,9.44,4.11,11.43S1204.35,363.45,1204.35,363.45Z"/><path id="_Path_171" data-name="&lt;Path&gt;" class="cls-3" d="M1221.89,357.26s-3.15,15.19-7.25,21.94c0,0-2.72-2.53-2-7.88,0,0-2.46,4.5,2,11C1214.64,382.29,1224,364.29,1221.89,357.26Z"/><path id="_Path_172" data-name="&lt;Path&gt;" class="cls-6" d="M1185.51,319.3s1.81-8.47-3.35-7.94l-5.16.52s-13.42,2.64-9.81,13.19c0,0-9.29,5.27-10.32,11.6,0,0-8.26,2.74-8.26,10.33,0,0-11.61,3.37-8.26,12.87,0,0-8.77-2.75-10.06-1.9s-6.71-.64-7.23,1.9a42.19,42.19,0,0,0-5.79.13c-.77.28-9.43,4.08-7.62,10.62s4.38,3.31,4.38-1c0,0,5.42,2.25,5.68-1.55,0,0,17,6.54,16.26-3.59,0,0,5.16-3.37,6.71-4.21s5.16,2.53,6.7-2.74c0,0,8.52-1.9,4.65,4.21,0,0-2.06,9.28,4.9,9.07s7.74-2.32,9-2.74,4.13-2.39,4.13,1.55,4.91,7.52,10.32,3.09c0,0,9-3.37,4.65-8.65,0,0,4.9-8.85-5.42-7.38,0,0-6.33,6.19-3.81-1.12,0,0,4.58-2.89,2.26-7.95,0,0,9.29,1.18,9.55-4.58,0,0,8.55-10,6.85-11.23,0,0,1.92-11-9.69-4.86C1186.8,327,1194,318.39,1185.51,319.3Z"/><path id="_Path_173" data-name="&lt;Path&gt;" class="cls-5" d="M1171.83,332.51h8.52s-2.32,3.37-4.26,4.29-7.09,5.56-5.8,3.66C1172.11,337.78,1175.19,333.63,1171.83,332.51Z"/><path id="_Path_174" data-name="&lt;Path&gt;" class="cls-3" d="M1184.2,352.71s-.66-12.27.63-14.68c0,0,.91,5.16,0,7.63,0,0,6.28-6.43,6.12-6.53s-.87,1.78-.87,1.78-3.86,4-4.14,5.74A43.78,43.78,0,0,1,1184.2,352.71Z"/><polygon id="_Path_175" data-name="&lt;Path&gt;" class="cls-3" points="1121.85 362.04 1121.32 357.38 1120.85 355.54 1120.19 365.74 1121.85 362.04"/><path id="_Path_176" data-name="&lt;Path&gt;" class="cls-3" d="M1200.54,377s-3.16,6.11-2.64,8.65-2.58,7.8-4.39,2.32-10.44-22.08-9.48-27.28,1.74-5.1,1.74-5.1c-.38,8.29-.85,6.92-.52,7.91.78,2.32,7,14.73,7,14.73s4.4-5.1,4.25-6.86c0,0,.63-.49-3.75,8.58l2.58,4.85S1197.77,375.05,1200.54,377Z"/><path id="_Path_177" data-name="&lt;Path&gt;" class="cls-6" d="M1214.23,386.79s-1.37-6.75-6.49-2.25.94,7.62,4.11,5.78S1214.23,386.79,1214.23,386.79Z"/><path id="_Path_178" data-name="&lt;Path&gt;" class="cls-3" d="M1225.4,374.42s-3.16,15.21-6.6,15.9C1218.8,390.32,1227.18,393.51,1225.4,374.42Z"/><polygon id="_Path_179" data-name="&lt;Path&gt;" class="cls-3" points="1235.1 404.07 1243.49 398.62 1246.52 396.19 1225.97 406.25 1235.1 404.07"/><path id="_Path_180" data-name="&lt;Path&gt;" class="cls-3" d="M1184,407.6s-10.67-25.59-12-25.45-15.81-7.62-17.19-9.22-1,4.86,14.62,11.61l-15.13,1.13,14.87,1.25s4.54,3.53,4.9,6.06-11.34-.28-11.34-.28.91,2.81,12.5,4.07L1184,409"/><path id="_Path_181" data-name="&lt;Path&gt;" class="cls-6" d="M1154.78,409.62s9,4.88,10-.64-1.67-7.48-4.94-9.91c0,0-1.1-5.5-4.3-6.78,0,0,8-6.9-3.74-11.93,0,0-8-11.86-16.53-2.71,0,0-2.94,6.28,1.76,8.57s5.25,4.36-1.56,4.91c0,0-3.9-2.69-5.06-.84,0,0-8.33-4.63-10.12,2.66s3.92,9.75,7.74,8.48c0,0,3.67,3.64,6.7,4.14,0,0,4.52,7.32,11.39,3.64C1146.11,409.21,1154.47,413.74,1154.78,409.62Z"/></g><g id="_Group_13" data-name="&lt;Group&gt;"><path id="_Path_182" data-name="&lt;Path&gt;" class="cls-17" d="M518.07,424.64s-2.69-4.34-5-4c0,0,1.54-5.78-4.61-6.87,0,0-3.07-14.11-14.6-2.17,0,0-10.38-13.57-16.14-4.8,0,0-10.38,2.27-7.3,11.31,0,0-10.76.72-10,8.32,0,0-5.77,1.09-3.84,10.49,0,0-6.54,3.62-6.54,10.13,0,0-9.22-6.87-13.45,0,0,0-16.9,2.89-13.44,20.62,0,0-4.62,5.42,3.07,10.12,0,0,1.92,8.32,6.53,8.68,0,0,1.92,7.24,12.68,4.35,0,0,3.46,6.14,6.53,8.68,0,0,0,8.68,3.08,10.85s6.15,7.23,10.76,7.23,6.15,9,16.9-4.34c0,0,9.23,6.51,16.53-6.51,0,0,9.6-.36,11.14-6.15,0,0,9.61-7.23,9.61-11.93,0,0,11.91-6.15,9.6-19.18,0,0,8.28-17,.3-21,0,0,2-12.29-3.37-11.57C526.52,436.94,526.52,421.39,518.07,424.64Z"/><path id="_Path_183" data-name="&lt;Path&gt;" class="cls-19" d="M500.39,418.63s3.81-10.23-4.05-9c0,0-4.79,6.27-4,9C492.32,418.63,493.14,425.4,500.39,418.63Z"/><path id="_Path_184" data-name="&lt;Path&gt;" class="cls-19" d="M517.41,431.44s3.05-7.43-2-7.17-6.44,2.56-8.13,5.38c0,0-4.75,1.79-5.42,4.35,0,0-7.34-4.61-10.11,4.87,0,0-9.42,7.94,0,12.55,0,0,6,1,7.4-2.81s3.12-4.61,4.61.25c0,0-1.83,3.33,0,3.84,0,0-2.92,6.92,3.85,6.92s8.14-4.61,6.44-7.17c0,0,2.71-3.33,2.71-5.64,0,0,5.88-4.61,1.59-9C518.32,437.85,521.14,430.93,517.41,431.44Z"/><path id="_Path_185" data-name="&lt;Path&gt;" class="cls-3" d="M501.3,433.24s1.91-12.43,1.91-14.67.77-7.62,1.53-7.88-.58,7.92-.76,11.27S501.3,433.24,501.3,433.24Z"/><polygon id="_Path_186" data-name="&lt;Path&gt;" class="cls-3" points="515.27 422.41 514.06 426.49 513.76 428.17 517.68 419.74 515.27 422.41"/><path id="_Path_187" data-name="&lt;Path&gt;" class="cls-3" d="M498.08,452.45s3.75-13,3.23-16.65a15.39,15.39,0,0,0-1.59,6.91s-4.47-9.38-4.28-9.47l-.19.09s1.49,8.6,3.06,10.41S498.08,452.45,498.08,452.45Z"/><path id="_Path_188" data-name="&lt;Path&gt;" class="cls-3" d="M511.15,446.81s-2.35,13.84-5.4,20c0,0-2-2.3-1.52-7.17,0,0-1.83,4.1,1.52,10C505.75,469.61,512.69,453.22,511.15,446.81Z"/><path id="_Path_189" data-name="&lt;Path&gt;" class="cls-19" d="M484.06,412.23s1.34-7.71-2.5-7.24l-3.84.48s-10,2.41-7.3,12c0,0-6.92,4.81-7.69,10.57a10.42,10.42,0,0,0-6.14,9.41s-8.65,3.08-6.15,11.72c0,0-6.54-2.49-7.5-1.73s-5-.57-5.38,1.73a25.33,25.33,0,0,0-4.31.13c-.57.25-7,3.72-5.68,9.67s3.27,3,3.27-.9c0,0,4,2.05,4.23-1.4,0,0,12.68,5.95,12.1-3.27,0,0,3.84-3.07,5-3.84s3.84,2.3,5-2.5c0,0,6.34-1.73,3.46,3.84,0,0-1.54,8.46,3.65,8.26s5.76-2.11,6.72-2.49,3.08-2.18,3.08,1.4,3.65,6.86,7.68,2.82c0,0,6.73-3.07,3.46-7.87,0,0,3.65-8.07-4-6.73,0,0-4.72,5.64-2.84-1A6.3,6.3,0,0,0,480,438s6.92,1.07,7.11-4.17c0,0,6.37-9.09,5.11-10.24,0,0,1.43-10-7.22-4.42C485,419.21,490.4,411.4,484.06,412.23Z"/><path id="_Path_190" data-name="&lt;Path&gt;" class="cls-17" d="M473.88,424.26h6.34s-1.73,3.08-3.17,3.91-5.29,5.07-4.33,3.34C474.08,429.06,476.37,425.28,473.88,424.26Z"/><path id="_Path_191" data-name="&lt;Path&gt;" class="cls-3" d="M483.08,442.67s-.49-11.19.47-13.38c0,0,.68,4.71,0,6.95,0,0,4.68-5.86,4.56-5.95s-.65,1.63-.65,1.63-2.87,3.6-3.08,5.23A46.22,46.22,0,0,1,483.08,442.67Z"/><polygon id="_Path_192" data-name="&lt;Path&gt;" class="cls-3" points="436.66 451.16 436.26 446.92 435.92 445.24 435.43 454.53 436.66 451.16"/><path id="_Path_193" data-name="&lt;Path&gt;" class="cls-3" d="M495.25,464.74s-2.35,5.58-2,7.88-1.92,7.11-3.26,2.12-7.78-20.11-7.06-24.85,1.29-4.65,1.29-4.65c-.28,7.55-.63,6.3-.38,7.21.57,2.11,5.2,13.42,5.2,13.42s3.28-4.65,3.17-6.25c0,0,.46-.45-2.8,7.81l1.92,4.42S493.19,463,495.25,464.74Z"/><path id="_Path_194" data-name="&lt;Path&gt;" class="cls-19" d="M505.45,473.71s-1-6.15-4.84-2,.7,6.94,3.06,5.26S505.45,473.71,505.45,473.71Z"/><path id="_Path_195" data-name="&lt;Path&gt;" class="cls-3" d="M513.76,462.44s-2.35,13.85-4.92,14.48C508.84,476.92,515.09,479.83,513.76,462.44Z"/><polygon id="_Path_196" data-name="&lt;Path&gt;" class="cls-3" points="477.57 409.56 474.26 405.41 472.72 403.87 478.34 413.77 477.57 409.56"/><polygon id="_Path_197" data-name="&lt;Path&gt;" class="cls-3" points="521 489.46 527.21 484.44 529.45 482.21 514.22 491.51 521 489.46"/><path id="_Path_198" data-name="&lt;Path&gt;" class="cls-3" d="M483,492.67s-7.95-23.31-9-23.19-11.78-6.93-12.8-8.4-.78,4.43,10.88,10.58l-11.27,1,11.08,1.14s3.38,3.21,3.64,5.52-8.44-.26-8.44-.26.68,2.56,9.3,3.71L483,494"/><path id="_Path_199" data-name="&lt;Path&gt;" class="cls-19" d="M461.18,494.5s6.69,4.46,7.43-.58-1.24-6.81-3.67-9c0,0-.82-5-3.2-6.17,0,0,6-6.28-2.79-10.86,0,0-5.93-10.81-12.3-2.47,0,0-2.2,5.72,1.31,7.8s3.9,4-1.16,4.47c0,0-2.91-2.45-3.77-.76,0,0-6.21-4.22-7.54,2.43s2.92,8.87,5.76,7.72c0,0,2.74,3.31,5,3.76,0,0,3.36,6.68,8.47,3.32C454.72,494.13,461,498.26,461.18,494.5Z"/></g><g id="_Group_14" data-name="&lt;Group&gt;"><path id="_Path_200" data-name="&lt;Path&gt;" class="cls-1" d="M1042.84,323.65s-4.23-5.78-7.85-5.3c0,0,2.42-7.7-7.25-9.14,0,0-4.83-18.77-23-2.89,0,0-16.31-18.05-25.38-6.38,0,0-16.31,3-11.48,15,0,0-16.91,1-15.71,11.07,0,0-9.06,1.45-6,14,0,0-10.27,4.81-10.27,13.47,0,0-14.5-9.14-21.15,0,0,0-26.58,3.85-21.14,27.44,0,0-7.25,7.21,4.83,13.47,0,0,3,11.07,10.27,11.55,0,0,3,9.63,19.94,5.78,0,0,5.44,8.18,10.27,11.55,0,0,0,11.55,4.84,14.43s9.66,9.63,16.91,9.63,9.67,12,26.59-5.78c0,0,14.5,8.67,26-8.66,0,0,15.1-.48,17.52-8.18,0,0,15.1-9.63,15.1-15.88,0,0,18.73-8.18,15.11-25.51,0,0,13-22.62.47-27.91,0,0,3.15-16.36-5.3-15.4C1056.14,340,1056.14,319.31,1042.84,323.65Z"/><path id="_Path_201" data-name="&lt;Path&gt;" class="cls-2" d="M1015.05,315.65s6-13.61-6.37-11.92c0,0-7.53,8.35-6.32,11.92C1002.36,315.65,1003.65,324.66,1015.05,315.65Z"/><path id="_Path_202" data-name="&lt;Path&gt;" class="cls-2" d="M1041.81,332.7s4.8-9.89-3.19-9.55-10.13,3.41-12.79,7.16c0,0-7.46,2.39-8.52,5.79,0,0-11.54-6.13-15.89,6.48,0,0-14.82,10.56,0,16.7,0,0,9.5,1.36,11.63-3.75s4.91-6.13,7.25.34c0,0-2.88,4.43,0,5.11,0,0-4.59,9.21,6.06,9.21s12.79-6.14,10.12-9.55c0,0,4.27-4.43,4.27-7.5,0,0,9.24-6.13,2.49-11.92C1043.24,341.22,1047.67,332,1041.81,332.7Z"/><path id="_Path_203" data-name="&lt;Path&gt;" class="cls-2" d="M1011.43,360.64s5.88-17.32,5.07-22.15a18.06,18.06,0,0,0-2.5,9.2s-7-12.49-6.73-12.61l-.3.12s2.34,11.44,4.81,13.85S1011.43,360.64,1011.43,360.64Z"/><path id="_Path_204" data-name="&lt;Path&gt;" class="cls-3" d="M1032,353.14s-3.7,18.41-8.5,26.59c0,0-3.18-3.07-2.38-9.54,0,0-2.89,5.45,2.38,13.29C1023.47,383.48,1034.38,361.67,1032,353.14Z"/><path id="_Path_205" data-name="&lt;Path&gt;" class="cls-2" d="M989.37,307.13s2.12-10.26-3.93-9.62l-6,.63s-15.71,3.2-11.48,16c0,0-10.87,6.39-12.08,14.06,0,0-9.67,3.32-9.67,12.52,0,0-13.59,4.09-9.67,15.6,0,0-10.27-3.33-11.78-2.3s-7.85-.77-8.46,2.3c0,0-5.88-.17-6.78.16s-11,5-8.92,12.87,5.13,4,5.13-1.19c0,0,6.34,2.73,6.65-1.87,0,0,19.94,7.92,19-4.35,0,0,6-4.09,7.85-5.11s6,3.07,7.86-3.32c0,0,10-2.31,5.44,5.11,0,0-2.42,11.25,5.74,11s9.06-2.81,10.57-3.32,4.83-2.9,4.83,1.87,5.74,9.12,12.09,3.75c0,0,10.57-4.09,5.43-10.48,0,0,5.74-10.74-6.34-9,0,0-7.41,7.5-4.46-1.36a7.68,7.68,0,0,0,2.65-9.63s10.87,1.43,11.18-5.55c0,0,10-12.09,8-13.62,0,0,2.25-13.29-11.35-5.88C990.88,316.42,999.34,306,989.37,307.13Z"/><path id="_Path_206" data-name="&lt;Path&gt;" class="cls-4" d="M973.36,323.14h10s-2.72,4.09-5,5.21-8.31,6.73-6.8,4.43C973.68,329.53,977.29,324.5,973.36,323.14Z"/><path id="_Path_207" data-name="&lt;Path&gt;" class="cls-3" d="M987.84,347.63s-.77-14.88.73-17.8c0,0,1.07,6.26,0,9.25,0,0,7.35-7.8,7.17-7.92s-1,2.17-1,2.17-4.52,4.79-4.85,6.95A54.12,54.12,0,0,1,987.84,347.63Z"/><polygon id="_Path_208" data-name="&lt;Path&gt;" class="cls-3" points="914.84 358.93 914.22 353.29 913.67 351.06 912.9 363.42 914.84 358.93"/><path id="_Path_209" data-name="&lt;Path&gt;" class="cls-3" d="M1007,377s-3.7,7.42-3.1,10.48-3,9.46-5.13,2.81-12.23-26.75-11.1-33.05,2-6.18,2-6.18c-.44,10-1,8.38-.6,9.58.91,2.81,8.18,17.85,8.18,17.85s5.15-6.17,5-8.3c0,0,.74-.6-4.4,10.39l3,5.88S1003.73,374.7,1007,377Z"/><path id="_Path_210" data-name="&lt;Path&gt;" class="cls-2" d="M1023,388.93s-1.61-8.18-7.6-2.73,1.1,9.24,4.81,7S1023,388.93,1023,388.93Z"/><path id="_Path_211" data-name="&lt;Path&gt;" class="cls-3" d="M1036.07,373.93s-3.7,18.44-7.73,19.28C1028.34,393.21,1038.16,397.08,1036.07,373.93Z"/><polygon id="_Path_212" data-name="&lt;Path&gt;" class="cls-3" points="1047.42 409.87 1057.26 403.26 1060.8 400.33 1036.74 412.52 1047.42 409.87"/><path id="_Path_213" data-name="&lt;Path&gt;" class="cls-3" d="M987.64,414.15s-12.5-31-14.09-30.84-18.52-9.23-20.13-11.18-1.23,5.89,17.11,14.07l-17.71,1.37,17.41,1.52s5.32,4.27,5.73,7.34-13.27-.34-13.27-.34,1.07,3.41,14.63,4.94l10.32,14.83"/><path id="_Path_214" data-name="&lt;Path&gt;" class="cls-2" d="M953.4,416.6s10.51,5.92,11.69-.78-2-9.06-5.78-12c0,0-1.3-6.66-5-8.21,0,0,9.38-8.36-4.37-14.46,0,0-9.33-14.37-19.35-3.28,0,0-3.45,7.61,2.05,10.38s6.14,5.28-1.82,5.95c0,0-4.57-3.26-5.92-1,0,0-9.76-5.62-11.86,3.22s4.59,11.82,9.07,10.28c0,0,4.29,4.4,7.84,5,0,0,5.29,8.87,13.34,4.41C943.25,416.1,953,421.59,953.4,416.6Z"/></g><g id="_Group_15" data-name="&lt;Group&gt;"><path id="_Path_215" data-name="&lt;Path&gt;" class="cls-5" d="M1138.28,309.26s-2.77-4.47-5.14-4.09c0,0,1.58-6-4.75-7.08,0,0-3.16-14.51-15-2.23,0,0-10.68-14-16.61-4.93,0,0-10.68,2.33-7.51,11.63,0,0-11.07.75-10.28,8.56,0,0-5.93,1.12-4,10.8,0,0-6.72,3.72-6.72,10.42,0,0-9.49-7.07-13.84,0,0,0-17.4,3-13.84,21.22,0,0-4.74,5.58,3.17,10.42,0,0,2,8.56,6.72,8.93,0,0,2,7.44,13,4.47,0,0,3.55,6.32,6.72,8.93,0,0,0,8.93,3.16,11.17s6.33,7.44,11.07,7.44,6.33,9.31,17.4-4.47c0,0,9.49,6.7,17-6.7,0,0,9.89-.37,11.47-6.32,0,0,9.88-7.45,9.88-12.29,0,0,12.26-6.32,9.89-19.72,0,0,8.52-17.5.3-21.59,0,0,2.07-12.66-3.46-11.91C1147,321.92,1147,305.91,1138.28,309.26Z"/><path id="_Path_216" data-name="&lt;Path&gt;" class="cls-6" d="M1120.09,303.08s3.92-10.53-4.17-9.22c0,0-4.93,6.45-4.13,9.22C1111.79,303.08,1112.63,310,1120.09,303.08Z"/><path id="_Path_217" data-name="&lt;Path&gt;" class="cls-6" d="M1137.6,316.26s3.14-7.64-2.09-7.38-6.62,2.64-8.37,5.53c0,0-4.88,1.85-5.57,4.49,0,0-7.55-4.75-10.4,5,0,0-9.7,8.18,0,12.92,0,0,6.21,1.06,7.61-2.9s3.21-4.74,4.74.27c0,0-1.88,3.42,0,3.95,0,0-3,7.12,4,7.12s8.37-4.75,6.63-7.38c0,0,2.79-3.43,2.79-5.8,0,0,6-4.75,1.63-9.23C1138.54,322.85,1141.44,315.73,1137.6,316.26Z"/><path id="_Path_218" data-name="&lt;Path&gt;" class="cls-3" d="M1117.72,337.88s3.85-13.4,3.32-17.14a15.91,15.91,0,0,0-1.64,7.12s-4.6-9.66-4.4-9.75-.2.09-.2.09,1.53,8.85,3.15,10.71S1117.72,337.88,1117.72,337.88Z"/><path id="_Path_219" data-name="&lt;Path&gt;" class="cls-3" d="M1131.16,332.08s-2.42,14.23-5.56,20.56c0,0-2.08-2.37-1.56-7.38,0,0-1.89,4.21,1.56,10.28C1125.6,355.54,1132.74,338.67,1131.16,332.08Z"/><path id="_Path_220" data-name="&lt;Path&gt;" class="cls-6" d="M1103.28,296.49s1.39-7.94-2.57-7.45l-4,.49s-10.28,2.48-7.51,12.36c0,0-7.12,4.95-7.91,10.88a10.72,10.72,0,0,0-6.33,9.68s-8.89,3.17-6.32,12.06c0,0-6.73-2.57-7.71-1.77s-5.14-.6-5.54,1.77a26.88,26.88,0,0,0-4.44.13c-.59.27-7.22,3.83-5.84,10s3.36,3.1,3.36-.92c0,0,4.15,2.1,4.35-1.45,0,0,13.05,6.12,12.46-3.37,0,0,4-3.16,5.14-3.95s4,2.37,5.14-2.57c0,0,6.52-1.78,3.55,4,0,0-1.58,8.7,3.76,8.51s5.93-2.18,6.92-2.57,3.16-2.25,3.16,1.45,3.76,7.05,7.91,2.89c0,0,6.92-3.16,3.56-8.1,0,0,3.76-8.3-4.15-6.92,0,0-4.85,5.8-2.92-1.06a6.46,6.46,0,0,0,1.73-7.44s7.12,1.1,7.32-4.3c0,0,6.55-9.34,5.25-10.53,0,0,1.47-10.28-7.43-4.55C1104.27,303.67,1109.81,295.63,1103.28,296.49Z"/><path id="_Path_221" data-name="&lt;Path&gt;" class="cls-5" d="M1092.81,308.87h6.52s-1.78,3.17-3.26,4-5.44,5.21-4.45,3.43C1093,313.81,1095.38,309.92,1092.81,308.87Z"/><path id="_Path_222" data-name="&lt;Path&gt;" class="cls-3" d="M1102.28,327.81s-.5-11.51.48-13.76c0,0,.7,4.84,0,7.15,0,0,4.81-6,4.69-6.13s-.67,1.68-.67,1.68-3,3.71-3.17,5.38A48.1,48.1,0,0,1,1102.28,327.81Z"/><polygon id="_Path_223" data-name="&lt;Path&gt;" class="cls-3" points="1054.51 336.55 1054.1 332.19 1053.74 330.46 1053.24 340.02 1054.51 336.55"/><path id="_Path_224" data-name="&lt;Path&gt;" class="cls-3" d="M1114.8,350.53s-2.42,5.73-2,8.1-2,7.32-3.36,2.18-8-20.69-7.26-25.57,1.33-4.78,1.33-4.78c-.29,7.77-.65,6.48-.39,7.42.59,2.17,5.35,13.8,5.35,13.8s3.37-4.78,3.26-6.42c0,0,.48-.46-2.88,8l2,4.54S1112.68,348.75,1114.8,350.53Z"/><path id="_Path_225" data-name="&lt;Path&gt;" class="cls-6" d="M1125.29,359.76s-1-6.33-5-2.11.72,7.14,3.14,5.41S1125.29,359.76,1125.29,359.76Z"/><path id="_Path_226" data-name="&lt;Path&gt;" class="cls-3" d="M1133.85,348.16s-2.43,14.25-5.06,14.9C1128.79,363.06,1135.21,366.05,1133.85,348.16Z"/><polygon id="_Path_227" data-name="&lt;Path&gt;" class="cls-3" points="1141.27 375.95 1147.71 370.84 1150.03 368.57 1134.28 378 1141.27 375.95"/><path id="_Path_228" data-name="&lt;Path&gt;" class="cls-3" d="M1102.15,379.26s-8.18-24-9.22-23.85-12.12-7.14-13.17-8.65-.81,4.56,11.19,10.89l-11.59,1.05,11.4,1.18s3.48,3.3,3.75,5.67-8.69-.26-8.69-.26.7,2.64,9.58,3.82l6.75,11.47"/><path id="_Path_229" data-name="&lt;Path&gt;" class="cls-6" d="M1079.74,381.15s6.88,4.58,7.65-.59-1.28-7-3.78-9.3c0,0-.85-5.15-3.3-6.35,0,0,6.14-6.46-2.86-11.18,0,0-6.1-11.12-12.66-2.54,0,0-2.26,5.88,1.34,8s4,4.08-1.19,4.6c0,0-3-2.52-3.88-.78,0,0-6.38-4.34-7.76,2.49s3,9.14,5.94,8c0,0,2.81,3.41,5.13,3.88,0,0,3.46,6.86,8.73,3.41C1073.1,380.77,1079.5,385,1079.74,381.15Z"/></g><g id="_Group_16" data-name="&lt;Group&gt;"><path id="_Path_230" data-name="&lt;Path&gt;" class="cls-14" d="M1123.83,379.19s-3.59-5.79-6.66-5.31c0,0,2-7.71-6.14-9.16,0,0-4.1-18.8-19.47-2.89,0,0-13.82-18.09-21.51-6.39,0,0-13.82,3-9.73,15.07,0,0-14.34,1-13.31,11.09,0,0-7.68,1.44-5.12,14,0,0-8.71,4.82-8.71,13.5,0,0-12.29-9.16-17.93,0,0,0-22.53,3.85-17.92,27.48,0,0-6.15,7.23,4.1,13.5,0,0,2.56,11.08,8.7,11.57,0,0,2.56,9.64,16.9,5.78,0,0,4.61,8.2,8.71,11.57,0,0,0,11.57,4.1,14.47s8.19,9.64,14.34,9.64,8.19,12.05,22.53-5.79c0,0,12.29,8.68,22-8.68,0,0,12.81-.48,14.86-8.19,0,0,12.8-9.64,12.8-15.91,0,0,15.88-8.2,12.8-25.55,0,0,11-22.66.4-28,0,0,2.68-16.39-4.49-15.42C1135.1,395.58,1135.1,374.85,1123.83,379.19Z"/><path id="_Path_231" data-name="&lt;Path&gt;" class="cls-15" d="M1100.27,371.18s5.08-13.64-5.4-11.94c0,0-6.38,8.35-5.35,11.94C1089.52,371.18,1090.61,380.2,1100.27,371.18Z"/><path id="_Path_232" data-name="&lt;Path&gt;" class="cls-15" d="M1123,388.25s4.07-9.9-2.7-9.56-8.58,3.42-10.84,7.17c0,0-6.32,2.39-7.23,5.81,0,0-9.77-6.15-13.46,6.48,0,0-12.57,10.59,0,16.73,0,0,8,1.37,9.85-3.75s4.16-6.15,6.15.34c0,0-2.44,4.44,0,5.12,0,0-3.89,9.22,5.14,9.22s10.84-6.15,8.58-9.56c0,0,3.61-4.44,3.61-7.51,0,0,7.84-6.15,2.11-11.95C1124.16,396.79,1127.92,387.57,1123,388.25Z"/><path id="_Path_233" data-name="&lt;Path&gt;" class="cls-3" d="M1101.49,390.64s2.54-16.56,2.54-19.55,1-10.15,2-10.49-.77,10.54-1,15S1101.49,390.64,1101.49,390.64Z"/><polygon id="_Path_234" data-name="&lt;Path&gt;" class="cls-3" points="1120.11 376.21 1118.49 381.65 1118.09 383.89 1123.31 372.65 1120.11 376.21"/><path id="_Path_235" data-name="&lt;Path&gt;" class="cls-3" d="M1097.2,416.25s5-17.35,4.3-22.19a20.51,20.51,0,0,0-2.12,9.21s-6-12.51-5.71-12.63l-.25.12s2,11.46,4.07,13.88S1097.2,416.25,1097.2,416.25Z"/><path id="_Path_236" data-name="&lt;Path&gt;" class="cls-16" d="M1114.61,408.74s-3.13,18.43-7.2,26.63c0,0-2.7-3.07-2-9.56,0,0-2.45,5.46,2,13.31C1107.41,439.12,1116.66,417.27,1114.61,408.74Z"/><path id="_Path_237" data-name="&lt;Path&gt;" class="cls-15" d="M1078.5,362.64s1.8-10.28-3.32-9.64l-5.13.63s-13.31,3.21-9.73,16c0,0-9.22,6.4-10.24,14.09,0,0-8.19,3.33-8.19,12.54,0,0-11.53,4.1-8.2,15.62,0,0-8.7-3.32-10-2.3s-6.65-.77-7.17,2.3c0,0-5-.17-5.75.17s-9.35,5-7.56,12.89,4.35,4,4.35-1.19c0,0,5.38,2.73,5.64-1.88,0,0,16.9,7.94,16.13-4.35,0,0,5.12-4.1,6.66-5.12s5.12,3.07,6.65-3.33c0,0,8.45-2.31,4.61,5.12,0,0-2,11.27,4.87,11s7.68-2.82,9-3.33,4.1-2.9,4.1,1.88,4.86,9.13,10.24,3.76c0,0,9-4.1,4.61-10.5,0,0,4.87-10.76-5.38-9,0,0-6.28,7.52-3.78-1.36a8.4,8.4,0,0,0,2.25-9.65s9.22,1.43,9.47-5.56c0,0,8.49-12.11,6.8-13.64,0,0,1.91-13.32-9.62-5.89C1079.78,372,1087,361.53,1078.5,362.64Z"/><path id="_Path_238" data-name="&lt;Path&gt;" class="cls-14" d="M1064.93,378.68h8.45s-2.3,4.1-4.22,5.21-7,6.75-5.76,4.45C1065.21,385.08,1068.26,380,1064.93,378.68Z"/><path id="_Path_239" data-name="&lt;Path&gt;" class="cls-3" d="M1077.2,403.21s-.65-14.91.63-17.83c0,0,.9,6.27,0,9.26,0,0,6.23-7.8,6.08-7.93s-.87,2.17-.87,2.17-3.83,4.81-4.11,7A61.26,61.26,0,0,1,1077.2,403.21Z"/><polygon id="_Path_240" data-name="&lt;Path&gt;" class="cls-3" points="1015.33 414.53 1014.8 408.88 1014.34 406.65 1013.68 419.03 1015.33 414.53"/><path id="_Path_241" data-name="&lt;Path&gt;" class="cls-3" d="M1093.42,432.64s-3.14,7.42-2.62,10.5-2.57,9.47-4.36,2.81-10.36-26.79-9.4-33.11,1.72-6.19,1.72-6.19c-.38,10.06-.84,8.39-.51,9.6.77,2.81,6.93,17.88,6.93,17.88s4.37-6.19,4.22-8.32c0,0,.63-.6-3.73,10.41l2.56,5.89S1090.67,430.33,1093.42,432.64Z"/><path id="_Path_242" data-name="&lt;Path&gt;" class="cls-15" d="M1107,444.59s-1.37-8.2-6.44-2.73.93,9.24,4.07,7S1107,444.59,1107,444.59Z"/><path id="_Path_243" data-name="&lt;Path&gt;" class="cls-3" d="M1118.09,429.56s-3.14,18.47-6.55,19.31C1111.54,448.87,1119.86,452.75,1118.09,429.56Z"/><polygon id="_Path_244" data-name="&lt;Path&gt;" class="cls-3" points="1069.86 359.09 1065.44 353.55 1063.4 351.5 1070.88 364.69 1069.86 359.09"/><polygon id="_Path_245" data-name="&lt;Path&gt;" class="cls-3" points="1127.71 465.57 1136.05 458.94 1139.05 456 1118.65 468.22 1127.71 465.57"/><path id="_Path_246" data-name="&lt;Path&gt;" class="cls-3" d="M1077,469.85s-10.6-31.07-12-30.9-15.69-9.24-17.06-11.19-1,5.9,14.5,14.1l-15,1.36,14.76,1.53s4.51,4.28,4.86,7.35-11.26-.34-11.26-.34.91,3.41,12.41,4.95l8.75,14.85"/><path id="_Path_247" data-name="&lt;Path&gt;" class="cls-15" d="M1048,472.3s8.91,5.94,9.91-.77-1.66-9.09-4.9-12c0,0-1.1-6.67-4.27-8.22,0,0,8-8.38-3.71-14.48,0,0-7.9-14.41-16.4-3.3,0,0-2.92,7.62,1.74,10.4s5.21,5.29-1.54,6c0,0-3.87-3.26-5-1,0,0-8.27-5.62-10.05,3.23s3.89,11.84,7.68,10.29c0,0,3.64,4.42,6.66,5,0,0,4.48,8.9,11.3,4.43C1039.41,471.81,1047.7,477.31,1048,472.3Z"/></g><g id="_Group_17" data-name="&lt;Group&gt;"><path id="_Path_248" data-name="&lt;Path&gt;" class="cls-14" d="M1371.66,328.88s-3.59-5.78-6.66-5.3c0,0,2-7.72-6.15-9.16,0,0-4.09-18.8-19.46-2.89,0,0-13.83-18.09-21.51-6.4,0,0-13.83,3-9.73,15.07,0,0-14.34,1-13.31,11.09,0,0-7.69,1.45-5.13,14,0,0-8.7,4.82-8.7,13.5,0,0-12.29-9.16-17.93,0,0,0-22.53,3.86-17.92,27.48,0,0-6.15,7.23,4.1,13.5,0,0,2.56,11.09,8.7,11.57,0,0,2.56,9.64,16.9,5.79,0,0,4.61,8.19,8.71,11.57,0,0,0,11.57,4.1,14.46s8.19,9.64,14.34,9.64,8.19,12.06,22.53-5.78c0,0,12.29,8.68,22-8.68,0,0,12.81-.48,14.85-8.2,0,0,12.81-9.64,12.81-15.91,0,0,15.87-8.19,12.8-25.55,0,0,11-22.66.4-28,0,0,2.67-16.39-4.5-15.43C1382.92,345.27,1382.92,324.54,1371.66,328.88Z"/><path id="_Path_249" data-name="&lt;Path&gt;" class="cls-15" d="M1348.1,320.88s5.08-13.65-5.4-11.95c0,0-6.38,8.36-5.36,11.95C1337.34,320.88,1338.44,329.9,1348.1,320.88Z"/><path id="_Path_250" data-name="&lt;Path&gt;" class="cls-15" d="M1370.78,338s4.07-9.9-2.71-9.56-8.58,3.41-10.83,7.17c0,0-6.32,2.39-7.23,5.8,0,0-9.77-6.14-13.46,6.49,0,0-12.57,10.58,0,16.73,0,0,8,1.36,9.85-3.76s4.16-6.14,6.14.34c0,0-2.43,4.44,0,5.13,0,0-3.88,9.21,5.15,9.21s10.84-6.14,8.58-9.56c0,0,3.61-4.43,3.61-7.51,0,0,7.84-6.14,2.11-11.95C1372,346.48,1375.75,337.26,1370.78,338Z"/><path id="_Path_251" data-name="&lt;Path&gt;" class="cls-3" d="M1345,365.94s5-17.35,4.3-22.19a20.58,20.58,0,0,0-2.12,9.22s-6-12.51-5.71-12.63l-.25.12s2,11.46,4.07,13.88S1345,365.94,1345,365.94Z"/><path id="_Path_252" data-name="&lt;Path&gt;" class="cls-16" d="M1362.44,358.43s-3.13,18.44-7.2,26.63c0,0-2.7-3.07-2-9.56,0,0-2.45,5.47,2,13.32C1355.24,388.82,1364.49,367,1362.44,358.43Z"/><path id="_Path_253" data-name="&lt;Path&gt;" class="cls-15" d="M1326.33,312.34s1.8-10.28-3.33-9.65l-5.12.64s-13.31,3.2-9.73,16c0,0-9.22,6.4-10.24,14.08,0,0-8.2,3.33-8.2,12.55,0,0-11.52,4.1-8.19,15.62,0,0-8.71-3.33-10-2.3s-6.65-.77-7.17,2.3c0,0-5-.17-5.75.17s-9.35,4.95-7.56,12.89,4.35,4,4.35-1.19c0,0,5.38,2.73,5.63-1.88,0,0,16.91,7.94,16.14-4.36,0,0,5.12-4.09,6.65-5.12s5.13,3.08,6.66-3.33c0,0,8.45-2.3,4.61,5.13,0,0-2,11.26,4.87,11s7.68-2.82,9-3.33,4.1-2.9,4.1,1.88,4.86,9.13,10.24,3.75c0,0,9-4.1,4.61-10.5,0,0,4.86-10.75-5.38-9,0,0-6.28,7.51-3.78-1.37a8.38,8.38,0,0,0,2.25-9.64s9.21,1.42,9.47-5.56c0,0,8.48-12.11,6.8-13.65,0,0,1.91-13.31-9.62-5.89C1327.61,321.64,1334.78,311.23,1326.33,312.34Z"/><path id="_Path_254" data-name="&lt;Path&gt;" class="cls-14" d="M1312.76,328.38h8.45s-2.3,4.09-4.22,5.21-7,6.75-5.77,4.44C1313,334.77,1316.09,329.73,1312.76,328.38Z"/><path id="_Path_255" data-name="&lt;Path&gt;" class="cls-3" d="M1325,352.91s-.65-14.91.63-17.83c0,0,.9,6.27,0,9.26,0,0,6.23-7.81,6.08-7.93s-.87,2.17-.87,2.17-3.83,4.8-4.11,7A61.26,61.26,0,0,1,1325,352.91Z"/><polygon id="_Path_256" data-name="&lt;Path&gt;" class="cls-3" points="1263.16 364.23 1262.63 358.58 1262.17 356.34 1261.51 368.72 1263.16 364.23"/><path id="_Path_257" data-name="&lt;Path&gt;" class="cls-3" d="M1341.25,382.33s-3.14,7.43-2.63,10.5-2.56,9.48-4.35,2.82-10.36-26.8-9.4-33.12,1.72-6.19,1.72-6.19c-.38,10.06-.84,8.4-.51,9.6.76,2.82,6.93,17.89,6.93,17.89s4.37-6.19,4.22-8.33c0,0,.63-.59-3.73,10.42l2.56,5.89S1338.5,380,1341.25,382.33Z"/><path id="_Path_258" data-name="&lt;Path&gt;" class="cls-15" d="M1354.84,394.28s-1.37-8.19-6.44-2.73.93,9.25,4.07,7S1354.84,394.28,1354.84,394.28Z"/><path id="_Path_259" data-name="&lt;Path&gt;" class="cls-3" d="M1365.92,379.26s-3.14,18.47-6.55,19.3C1359.37,398.56,1367.69,402.44,1365.92,379.26Z"/><polygon id="_Path_260" data-name="&lt;Path&gt;" class="cls-3" points="1375.54 415.26 1383.87 408.64 1386.88 405.7 1366.48 417.92 1375.54 415.26"/><path id="_Path_261" data-name="&lt;Path&gt;" class="cls-3" d="M1324.87,419.55s-10.6-31.07-11.95-30.9-15.69-9.25-17.06-11.2-1,5.91,14.5,14.1l-15,1.37,14.76,1.53s4.5,4.27,4.86,7.34-11.26-.34-11.26-.34.91,3.42,12.41,4.95l8.75,14.86"/><path id="_Path_262" data-name="&lt;Path&gt;" class="cls-15" d="M1295.84,422s8.91,5.93,9.91-.78-1.66-9.08-4.9-12c0,0-1.1-6.67-4.27-8.23,0,0,8-8.37-3.71-14.48,0,0-7.9-14.4-16.4-3.29,0,0-2.92,7.62,1.74,10.4s5.21,5.29-1.54,6c0,0-3.87-3.27-5-1,0,0-8.28-5.63-10.05,3.23s3.89,11.83,7.68,10.29c0,0,3.64,4.41,6.65,5,0,0,4.49,8.89,11.3,4.42C1287.23,421.5,1295.53,427,1295.84,422Z"/></g><g id="_Group_18" data-name="&lt;Group&gt;"><path id="_Path_263" data-name="&lt;Path&gt;" class="cls-17" d="M1264.12,368.33s-3.36-5.42-6.24-5c0,0,1.92-7.22-5.75-8.57,0,0-3.84-17.61-18.22-2.71,0,0-13-16.94-20.14-6,0,0-13,2.83-9.11,14.11,0,0-13.43.91-12.47,10.38,0,0-7.19,1.36-4.8,13.1,0,0-8.15,4.51-8.15,12.63,0,0-11.51-8.57-16.78,0,0,0-21.1,3.62-16.78,25.73,0,0-5.76,6.78,3.83,12.64,0,0,2.4,10.39,8.15,10.84,0,0,2.4,9,15.83,5.41,0,0,4.31,7.68,8.15,10.84,0,0,0,10.83,3.84,13.54s7.67,9,13.42,9,7.68,11.28,21.1-5.42c0,0,11.51,8.13,20.62-8.12,0,0,12-.46,13.91-7.68,0,0,12-9,12-14.89,0,0,14.86-7.68,12-23.93,0,0,10.33-21.21.37-26.18,0,0,2.51-15.35-4.2-14.44C1274.67,383.68,1274.67,364.27,1264.12,368.33Z"/><path id="_Path_264" data-name="&lt;Path&gt;" class="cls-18" d="M1242.06,360.83s4.76-12.77-5-11.18c0,0-6,7.83-5,11.18C1232,360.83,1233,369.28,1242.06,360.83Z"/><path id="_Path_265" data-name="&lt;Path&gt;" class="cls-18" d="M1263.3,376.82s3.8-9.27-2.54-9-8,3.2-10.14,6.72c0,0-5.92,2.24-6.77,5.43,0,0-9.15-5.75-12.61,6.08,0,0-11.76,9.91,0,15.66,0,0,7.54,1.28,9.23-3.52s3.9-5.75,5.75.32c0,0-2.28,4.16,0,4.8,0,0-3.64,8.63,4.82,8.63s10.15-5.75,8-9c0,0,3.38-4.16,3.38-7,0,0,7.34-5.76,2-11.19C1264.43,384.81,1268,376.18,1263.3,376.82Z"/><path id="_Path_266" data-name="&lt;Path&gt;" class="cls-3" d="M1243.2,379.05s2.38-15.51,2.38-18.3,1-9.51,1.92-9.83-.73,9.88-1,14.07S1243.2,379.05,1243.2,379.05Z"/><polygon id="_Path_267" data-name="&lt;Path&gt;" class="cls-3" points="1260.63 365.54 1259.12 370.63 1258.74 372.74 1263.63 362.21 1260.63 365.54"/><path id="_Path_268" data-name="&lt;Path&gt;" class="cls-3" d="M1239.18,403s4.68-16.25,4-20.78a19.21,19.21,0,0,0-2,8.63s-5.58-11.71-5.35-11.83-.23.12-.23.12,1.85,10.73,3.81,13S1239.18,403,1239.18,403Z"/><path id="_Path_269" data-name="&lt;Path&gt;" class="cls-3" d="M1255.49,396s-2.93,17.26-6.74,24.93c0,0-2.53-2.87-1.89-8.95,0,0-2.3,5.12,1.89,12.47C1248.75,424.45,1257.41,404,1255.49,396Z"/><path id="_Path_270" data-name="&lt;Path&gt;" class="cls-18" d="M1221.68,352.84s1.68-9.63-3.12-9l-4.79.59s-12.47,3-9.11,15c0,0-8.63,6-9.59,13.19,0,0-7.68,3.12-7.68,11.75,0,0-10.78,3.83-7.67,14.62,0,0-8.15-3.11-9.35-2.15s-6.23-.72-6.71,2.15c0,0-4.67-.16-5.39.16s-8.76,4.64-7.08,12.07,4.08,3.76,4.08-1.12c0,0,5,2.56,5.27-1.76,0,0,15.83,7.44,15.11-4.07,0,0,4.79-3.84,6.23-4.8s4.8,2.88,6.23-3.11c0,0,7.92-2.16,4.32,4.79,0,0-1.92,10.55,4.56,10.31s7.19-2.64,8.39-3.12,3.83-2.71,3.83,1.76,4.56,8.55,9.59,3.52c0,0,8.4-3.84,4.32-9.83,0,0,4.55-10.07-5-8.39,0,0-5.88,7-3.54-1.28a7.86,7.86,0,0,0,2.11-9s8.63,1.33,8.87-5.21c0,0,7.94-11.34,6.37-12.77,0,0,1.78-12.47-9-5.52C1222.88,361.55,1229.59,351.8,1221.68,352.84Z"/><path id="_Path_271" data-name="&lt;Path&gt;" class="cls-17" d="M1209,367.86h7.92s-2.16,3.83-4,4.88-6.59,6.31-5.4,4.16C1209.23,373.84,1212.09,369.13,1209,367.86Z"/><path id="_Path_272" data-name="&lt;Path&gt;" class="cls-3" d="M1220.46,390.82s-.61-13.95.59-16.69c0,0,.85,5.87,0,8.67,0,0,5.84-7.31,5.69-7.42s-.81,2-.81,2-3.59,4.49-3.85,6.52A58,58,0,0,1,1220.46,390.82Z"/><polygon id="_Path_273" data-name="&lt;Path&gt;" class="cls-3" points="1162.53 401.42 1162.03 396.13 1161.6 394.04 1160.99 405.63 1162.53 401.42"/><path id="_Path_274" data-name="&lt;Path&gt;" class="cls-3" d="M1235.65,418.37s-2.94,7-2.46,9.84-2.4,8.87-4.08,2.63-9.7-25.09-8.8-31,1.61-5.8,1.61-5.8c-.35,9.42-.79,7.86-.48,9,.72,2.64,6.49,16.74,6.49,16.74s4.09-5.79,4-7.79c0,0,.58-.56-3.5,9.75l2.4,5.52S1233.07,416.22,1235.65,418.37Z"/><path id="_Path_275" data-name="&lt;Path&gt;" class="cls-18" d="M1248.37,429.56s-1.28-7.67-6-2.55.87,8.65,3.81,6.56S1248.37,429.56,1248.37,429.56Z"/><path id="_Path_276" data-name="&lt;Path&gt;" class="cls-3" d="M1258.74,415.5s-2.93,17.29-6.13,18.07C1252.61,433.57,1260.4,437.2,1258.74,415.5Z"/><polygon id="_Path_277" data-name="&lt;Path&gt;" class="cls-3" points="1213.59 349.51 1209.45 344.32 1207.54 342.41 1214.55 354.76 1213.59 349.51"/><polygon id="_Path_278" data-name="&lt;Path&gt;" class="cls-3" points="1267.75 449.21 1275.56 443.01 1278.37 440.25 1259.27 451.69 1267.75 449.21"/><path id="_Path_279" data-name="&lt;Path&gt;" class="cls-3" d="M1220.31,453.22s-9.92-29.09-11.19-28.93-14.69-8.66-16-10.48-1,5.52,13.58,13.2l-14.06,1.28,13.82,1.43s4.22,4,4.55,6.88-10.54-.32-10.54-.32.85,3.19,11.62,4.63l8.19,13.91"/><path id="_Path_280" data-name="&lt;Path&gt;" class="cls-18" d="M1193.13,455.51s8.34,5.56,9.28-.72-1.56-8.51-4.59-11.27c0,0-1-6.24-4-7.7,0,0,7.45-7.84-3.47-13.56,0,0-7.4-13.49-15.36-3.08,0,0-2.73,7.13,1.64,9.73s4.87,5-1.45,5.58c0,0-3.63-3.05-4.7-.94,0,0-7.75-5.27-9.41,3s3.64,11.08,7.19,9.64c0,0,3.41,4.13,6.23,4.7,0,0,4.2,8.33,10.58,4.14C1185.07,455.05,1192.84,460.2,1193.13,455.51Z"/></g><g id="_Group_19" data-name="&lt;Group&gt;"><path id="_Path_281" data-name="&lt;Path&gt;" class="cls-17" d="M169.6,384.79s-2.69-4.34-5-4c0,0,1.53-5.79-4.62-6.87,0,0-3.07-14.11-14.6-2.17,0,0-10.37-13.57-16.14-4.8,0,0-10.37,2.27-7.3,11.31,0,0-10.75.72-10,8.32,0,0-5.76,1.08-3.84,10.49,0,0-6.53,3.62-6.53,10.13,0,0-9.22-6.88-13.45,0,0,0-16.91,2.89-13.45,20.61,0,0-4.61,5.43,3.08,10.13,0,0,1.92,8.32,6.53,8.68,0,0,1.92,7.24,12.68,4.34,0,0,3.46,6.15,6.53,8.69,0,0,0,8.68,3.07,10.85s6.15,7.23,10.76,7.23,6.15,9,16.91-4.34c0,0,9.22,6.51,16.52-6.51,0,0,9.61-.36,11.15-6.15,0,0,9.6-7.23,9.6-11.94,0,0,11.91-6.14,9.61-19.17,0,0,8.28-17,.29-21,0,0,2-12.29-3.37-11.57C178.05,397.09,178.05,381.54,169.6,384.79Z"/><path id="_Path_282" data-name="&lt;Path&gt;" class="cls-19" d="M151.93,378.78s3.81-10.23-4.05-9c0,0-4.79,6.27-4,9C143.86,378.78,144.68,385.55,151.93,378.78Z"/><path id="_Path_283" data-name="&lt;Path&gt;" class="cls-19" d="M168.94,391.59s3.05-7.43-2-7.17-6.43,2.56-8.13,5.38c0,0-4.74,1.79-5.42,4.35,0,0-7.33-4.61-10.1,4.87,0,0-9.43,7.94,0,12.55,0,0,6,1,7.39-2.81s3.12-4.62,4.61.25c0,0-1.83,3.33,0,3.84,0,0-2.91,6.92,3.86,6.92s8.13-4.61,6.44-7.17c0,0,2.71-3.33,2.71-5.64,0,0,5.88-4.61,1.58-9C169.85,398,172.67,391.08,168.94,391.59Z"/><path id="_Path_284" data-name="&lt;Path&gt;" class="cls-3" d="M152.84,393.39s1.9-12.43,1.9-14.67.77-7.62,1.54-7.88-.58,7.92-.77,11.27S152.84,393.39,152.84,393.39Z"/><polygon id="_Path_285" data-name="&lt;Path&gt;" class="cls-3" points="166.81 382.56 165.6 386.64 165.29 388.32 169.21 379.89 166.81 382.56"/><path id="_Path_286" data-name="&lt;Path&gt;" class="cls-3" d="M149.62,412.6s3.75-13,3.23-16.65a15.39,15.39,0,0,0-1.59,6.91s-4.47-9.38-4.28-9.47-.19.09-.19.09,1.48,8.6,3.05,10.41S149.62,412.6,149.62,412.6Z"/><path id="_Path_287" data-name="&lt;Path&gt;" class="cls-3" d="M162.68,407s-2.34,13.84-5.4,20c0,0-2-2.3-1.51-7.17,0,0-1.84,4.1,1.51,10C157.28,429.76,164.22,413.37,162.68,407Z"/><path id="_Path_288" data-name="&lt;Path&gt;" class="cls-19" d="M135.59,372.38s1.35-7.71-2.49-7.24l-3.85.48s-10,2.4-7.3,12c0,0-6.91,4.8-7.68,10.57a10.42,10.42,0,0,0-6.15,9.41s-8.64,3.08-6.15,11.72c0,0-6.53-2.5-7.49-1.73s-5-.57-5.38,1.73a25.33,25.33,0,0,0-4.31.13c-.58.25-7,3.71-5.68,9.67s3.27,3,3.27-.9c0,0,4,2,4.22-1.41,0,0,12.68,6,12.11-3.26,0,0,3.84-3.08,5-3.84s3.84,2.3,5-2.5c0,0,6.34-1.73,3.46,3.84,0,0-1.54,8.45,3.65,8.26s5.76-2.11,6.72-2.5,3.07-2.17,3.07,1.41,3.65,6.86,7.69,2.82c0,0,6.72-3.07,3.46-7.88,0,0,3.65-8.06-4-6.72,0,0-4.71,5.64-2.83-1a6.3,6.3,0,0,0,1.68-7.24s6.92,1.07,7.11-4.17c0,0,6.36-9.09,5.1-10.24,0,0,1.43-10-7.21-4.42C136.56,379.36,141.94,371.55,135.59,372.38Z"/><path id="_Path_289" data-name="&lt;Path&gt;" class="cls-17" d="M125.41,384.41h6.34s-1.73,3.08-3.17,3.91-5.28,5.07-4.32,3.34C125.62,389.21,127.91,385.43,125.41,384.41Z"/><path id="_Path_290" data-name="&lt;Path&gt;" class="cls-3" d="M134.62,402.82s-.49-11.19.47-13.38c0,0,.68,4.71,0,6.95,0,0,4.67-5.86,4.56-5.95s-.66,1.63-.66,1.63-2.87,3.6-3.08,5.22A46.82,46.82,0,0,1,134.62,402.82Z"/><polygon id="_Path_291" data-name="&lt;Path&gt;" class="cls-3" points="88.2 411.31 87.8 407.07 87.45 405.39 86.96 414.68 88.2 411.31"/><path id="_Path_292" data-name="&lt;Path&gt;" class="cls-3" d="M146.79,424.89s-2.36,5.58-2,7.88-1.92,7.11-3.27,2.11-7.77-20.1-7.06-24.84,1.3-4.65,1.3-4.65c-.29,7.55-.63,6.3-.39,7.21.58,2.11,5.2,13.41,5.2,13.41s3.28-4.64,3.17-6.24c0,0,.47-.45-2.8,7.81L142.9,432S144.72,423.16,146.79,424.89Z"/><path id="_Path_293" data-name="&lt;Path&gt;" class="cls-19" d="M157,433.86s-1-6.15-4.83-2.05.7,6.94,3,5.26S157,433.86,157,433.86Z"/><path id="_Path_294" data-name="&lt;Path&gt;" class="cls-3" d="M165.29,422.59s-2.35,13.85-4.91,14.48C160.38,437.07,166.62,440,165.29,422.59Z"/><polygon id="_Path_295" data-name="&lt;Path&gt;" class="cls-3" points="172.54 449.61 178.75 444.58 180.98 442.36 165.76 451.66 172.54 449.61"/><path id="_Path_296" data-name="&lt;Path&gt;" class="cls-3" d="M134.49,452.82s-7.94-23.31-9-23.19-11.77-6.93-12.8-8.4-.78,4.43,10.88,10.58l-11.26,1L123.42,434s3.38,3.21,3.65,5.52-8.45-.26-8.45-.26.68,2.56,9.31,3.71l6.56,11.15"/><path id="_Path_297" data-name="&lt;Path&gt;" class="cls-19" d="M112.72,454.65s6.68,4.46,7.43-.58-1.24-6.81-3.67-9c0,0-.83-5-3.21-6.17,0,0,6-6.28-2.78-10.86,0,0-5.93-10.81-12.31-2.47,0,0-2.19,5.71,1.31,7.8s3.91,4-1.16,4.47c0,0-2.9-2.45-3.76-.76,0,0-6.21-4.22-7.55,2.42s2.92,8.88,5.77,7.73c0,0,2.73,3.31,5,3.76,0,0,3.37,6.68,8.48,3.32C106.26,454.28,112.49,458.41,112.72,454.65Z"/></g><rect class="cls-20" x="35.59" width="24.77" height="24.77"/></g></g></svg>